<?xml version="1.0" encoding="UTF-8"?>
<svg id="Layer_1" xmlns="http://www.w3.org/2000/svg" version="1.1" viewBox="0 0 1080 1080">
  <!-- Generator: Adobe Illustrator 30.4.0, SVG Export Plug-In . SVG Version: 2.1.4 Build 226)  -->
  <g>
    <path d="M250.2,529.4c-5.9,4.3-13.4,6.5-22.2,6.5s-11.5-1.1-16.1-3.1-8.5-5-11.6-8.8c-3.1-3.8-5.4-8.1-6.9-13.1-1.5-4.9-2.3-10.1-2.3-15.8s.8-11.2,2.3-16.2c1.5-4.9,3.8-9.2,6.8-13,3-3.6,6.8-6.6,11.2-8.7,4.6-2,9.7-3.1,15.7-3.1s10.8.9,15.3,2.8c4.6,1.9,8.2,4.7,11.2,8.4,3,3.8,4.9,8.4,5.5,13.9h18.1c-.8-8.5-3.4-15.8-7.6-22-4.2-6.2-10-11.1-17.2-14.6-7.2-3.5-15.7-5.3-25.5-5.3s-17.7,1.6-24.6,4.9c-6.9,3.2-12.6,7.6-16.9,13-4.3,5.4-7.6,11.4-9.6,18-2,6.6-3.1,13.2-3.1,19.9v3.2c0,6.1,1.1,12.4,3.1,18.9,2,6.5,5.3,12.6,9.6,18.2s10,10.1,17,13.7c7,3.4,15.5,5.1,25.5,5.1s19.1-1.9,26.4-5.5c7.3-3.8,13-8.8,17.2-15.1s6.8-13.4,7.7-21h-18.2c-1.4,8.1-4.9,14.3-10.9,18.7h.1Z"/>
    <path d="M343.6,471.4c-5.4-2-12.2-3.1-20.3-3.1s-5.3,0-8.1.1c-2.8,0-5.5.3-8.2.4s-5,.3-7.3.5v15.1c2.4-.1,5.4-.4,8.7-.5,3.2-.1,6.5-.3,10-.4,3.4,0,6.5-.1,9.3-.1,5.1,0,8.9,1.4,11.5,3.9s3.9,6.4,3.9,11.4v1.5h-18.4c-7,0-13.1.9-18.2,2.8-5.1,1.9-9.1,4.7-11.8,8.5s-4.1,8.5-4.1,14.3,1.2,10.1,3.6,14.1c2.4,3.9,5.8,6.9,10.1,8.9,4.3,2,9.5,3.1,15.4,3.1s10.5-1.1,14.5-3.1c3.9-2,7-5,9.3-8.8.9-1.8,1.8-3.6,2.4-5.7v15.4h13.9v-50.4c0-7.6-1.4-13.7-3.9-18.1-2.7-4.6-6.6-7.8-12-10h-.4ZM342.8,519.9c-.1,4.9-1.2,8.7-3.1,11.4s-4.2,4.6-6.9,5.8c-2.8,1.1-5.7,1.8-8.8,1.8-5.3,0-9.3-1.2-12.2-3.6s-4.2-5.7-4.2-9.7,1.4-7.4,4.2-10,6.8-3.8,12.2-3.8h18.8v8.4h0Z"/>
    <polygon points="416.2 535.6 412.8 535.6 391.9 469.2 373.6 469.2 399.8 549.8 404.8 549.8 412.3 549.8 417.3 549.8 424.4 549.8 428.6 549.8 451.5 469.2 434.4 469.2 416.2 535.6"/>
    <path d="M514.6,471.4c-5.4-2-12.2-3.1-20.3-3.1s-5.3,0-8.1.1c-2.8,0-5.5.3-8.2.4s-5,.3-7.3.5v15.1c2.4-.1,5.4-.4,8.7-.5,3.2-.1,6.5-.3,10-.4,3.4,0,6.5-.1,9.3-.1,5.1,0,8.9,1.4,11.5,3.9s3.9,6.4,3.9,11.4v1.5h-18.4c-7,0-13.1.9-18.2,2.8-5.1,1.9-9.1,4.7-11.8,8.5-2.7,3.8-4.1,8.5-4.1,14.3s1.2,10.1,3.6,14.1c2.4,3.9,5.8,6.9,10.1,8.9,4.3,2,9.5,3.1,15.4,3.1s10.5-1.1,14.5-3.1,7-5,9.3-8.8c.9-1.8,1.8-3.6,2.4-5.7v15.4h13.9v-50.4c0-7.6-1.4-13.7-3.9-18.1-2.7-4.6-6.6-7.8-12-10h-.4ZM513.8,519.9c-.1,4.9-1.2,8.7-3.1,11.4-1.9,2.7-4.2,4.6-6.9,5.8-2.8,1.1-5.7,1.8-8.8,1.8-5.3,0-9.3-1.2-12.2-3.6s-4.2-5.7-4.2-9.7,1.4-7.4,4.2-10,6.8-3.8,12.2-3.8h18.8v8.4h0Z"/>
    <polygon points="545.1 440.7 545.1 454.2 555.8 454.2 555.8 549.8 573.4 549.8 573.4 454.2 573.4 440.7 555.8 440.7 545.1 440.7"/>
    <path d="M655,472.2c-5.8-3.8-13-5.7-21.6-5.7s-12.6,1.2-17.6,3.5c-5,2.3-9.2,5.5-12.4,9.5s-5.8,8.4-7.4,13.2-2.4,10-2.4,15.3v2.8c0,5.1.8,10.3,2.4,15.1,1.6,4.9,4.1,9.3,7.4,13.2,3.2,3.9,7.6,7.2,12.7,9.5,5.1,2.4,11.2,3.6,18.2,3.6s12.3-1.1,17.3-3.2c5.1-2.2,9.3-5.3,12.6-9.5,3.4-4.1,5.5-8.9,6.6-14.3h-16.4c-.8,3.2-3,6.2-6.6,8.7-3.6,2.4-8.1,3.6-13.8,3.6s-10.1-1.2-13.8-3.6-6.2-5.8-8-10c-1.2-3.2-2-6.8-2.4-10.5h62.2v-7c0-7-1.5-13.5-4.3-19.5-2.8-6.1-7.2-10.9-13-14.7h.3ZM610.7,501.7c.4-2.4,1.1-4.7,1.9-6.9,1.8-4.2,4.3-7.4,7.7-9.9,3.5-2.4,7.8-3.6,13-3.6s9.1,1.1,12.4,3.2c3.2,2.2,5.8,5.1,7.4,9.1,1.1,2.4,1.8,5,2.2,8h-44.7.1Z"/>
    <path d="M747.1,472.2c-5.8-3.8-13-5.7-21.6-5.7s-12.6,1.2-17.6,3.5c-5,2.3-9.2,5.5-12.4,9.5s-5.8,8.4-7.4,13.2-2.4,10-2.4,15.3v2.8c0,5.1.8,10.3,2.4,15.1,1.6,4.9,4.1,9.3,7.4,13.2,3.2,3.9,7.6,7.2,12.7,9.5,5.1,2.4,11.2,3.6,18.2,3.6s12.3-1.1,17.3-3.2c5.1-2.2,9.3-5.3,12.6-9.5,3.4-4.1,5.5-8.9,6.6-14.3h-16.4c-.8,3.2-3,6.2-6.6,8.7-3.6,2.4-8.1,3.6-13.8,3.6s-10.1-1.2-13.8-3.6-6.2-5.8-8-10c-1.2-3.2-2-6.8-2.4-10.5h62.2v-7c0-7-1.5-13.5-4.3-19.5-2.8-6.1-7.2-10.9-13-14.7h.3ZM702.7,501.7c.4-2.4,1.1-4.7,1.9-6.9,1.8-4.2,4.3-7.4,7.7-9.9,3.5-2.4,7.8-3.6,13-3.6s9.1,1.1,12.4,3.2c3.2,2.2,5.8,5.1,7.4,9.1,1.1,2.4,1.8,5,2.2,8h-44.7.1Z"/>
    <path d="M804.1,476.9c-3.6,4.2-5.9,9.9-7,17v-24.7h-13.9v80.6h17.4v-42.7c0-7.4,2-13.2,6.1-17.3s9.9-6.1,17.4-6.1h5.4v-15.4h-2.8c-10,0-17.4,2.8-22.6,8.7h0Z"/>
    <path d="M899.1,509.5c-5.3-4.1-12.6-6.5-21.6-7.6l-8-.8c-4.5-.5-7.7-1.5-9.7-3.1s-3-3.8-3-6.6,1.4-5.7,3.9-7.6c2.7-2,6.5-3,11.5-3s9.3,1.1,11.9,3.1c2.7,2,4.2,4.7,4.3,7.7h15.9c-.1-8.1-3.2-14.3-9.1-18.7-5.8-4.2-13.7-6.4-23.1-6.4s-11.6.9-16.4,3-8.4,4.9-11.1,8.5-4.1,8.2-4.1,13.7,2.4,12.2,7.3,16.1c4.9,3.9,11.4,6.5,19.6,7.3l8,.8c5.5.5,9.6,1.8,11.9,3.5s3.5,4.1,3.5,7.2-1.6,6.1-4.7,8.2c-3.2,2.2-7.6,3.2-13.1,3.2s-11.4-1.2-14.2-3.8c-2.8-2.4-4.5-5.3-4.6-8.2h-16.1c.3,8.1,3.5,14.5,9.5,18.9,6.1,4.6,14.5,6.9,25.3,6.9s12.7-1.1,17.8-3.2c5.1-2.2,9.2-5.1,12-9.1,2.8-3.9,4.3-8.4,4.3-13.7s-2.7-12.8-8-16.8v.3Z"/>
  </g>
  <g>
    <polygon points="366.6 632.9 366 632.9 359.2 617.1 353.7 617.1 353.7 642 357.4 642 357.4 621.9 363.9 636.9 368.4 636.9 374.9 621.8 374.9 642 379 642 379 617.1 373.4 617.1 366.6 632.9"/>
    <path d="M391.9,617.1l-8.7,24.9h4.1l2.4-7h11.3l2.5,7h4.2l-9-24.9h-6.8ZM390.9,631.4l3.7-10.8h1.2l3.8,10.8h-8.8Z"/>
    <path d="M425.5,632.5c1.4-.6,2.5-1.4,3.3-2.6s1.2-2.7,1.2-4.5v-.5c0-1.8-.4-3.3-1.2-4.5s-1.9-2-3.3-2.6c-1.4-.6-3.1-.9-5-.9h-8.7v25.1h4.1v-8.7h4.6c.1,0,.2,0,.3,0l6.3,8.7h4.9l-7-9.4c.2,0,.3,0,.5-.2ZM415.9,620.5h5.2c1,0,1.8.2,2.5.6.7.4,1.2,1,1.6,1.7.4.7.6,1.5.6,2.4s-.2,1.8-.6,2.5c-.4.7-.9,1.3-1.6,1.7-.7.4-1.5.6-2.5.6h-5.2v-9.4Z"/>
    <polygon points="454.7 617.1 450 617.1 440.2 628.8 440.2 617.1 436.1 617.1 436.1 642 440.2 642 440.2 630.4 442.4 630.4 452 642 457.1 642 445.4 628.1 454.7 617.1"/>
    <polygon points="464.2 631.1 474.2 631.1 474.2 627.6 464.2 627.6 464.2 620.7 474.9 620.7 474.9 617.1 464.2 617.1 463.5 617.1 460.1 617.1 460.1 642 463.5 642 464.2 642 475.2 642 475.2 638.5 464.2 638.5 464.2 631.1"/>
    <polygon points="478 620.7 485.4 620.7 485.4 642 489.5 642 489.5 620.7 496.9 620.7 496.9 617.1 478 617.1 478 620.7"/>
    <rect x="501.2" y="617.1" width="4.1" height="24.9"/>
    <polygon points="530.7 638.5 530.3 638.5 518.7 617.1 512 617.1 512 642 515.8 642 515.8 620.6 516.3 620.6 527.9 642 534.6 642 534.6 617.1 530.7 617.1 530.7 638.5"/>
    <path d="M551.9,632.9h7.6v3.5c-.6.6-1.2,1.1-2,1.5-1.4.7-2.9,1.1-4.7,1.1s-2.5-.2-3.6-.6c-1.1-.4-2-1-2.8-1.8-.8-.8-1.4-1.8-1.8-3s-.6-2.6-.6-4.1.2-2.6.6-3.8c.4-1.1.9-2.1,1.7-2.9.7-.8,1.6-1.4,2.6-1.9,1-.4,2.1-.7,3.4-.7s2.4.2,3.4.7c1,.4,1.9,1.1,2.6,1.9.7.8,1.1,1.9,1.2,3.1h4.2c-.2-1.9-.7-3.5-1.7-4.9-1-1.4-2.3-2.5-4-3.3-1.7-.8-3.6-1.2-5.7-1.2s-3.7.4-5.3,1.1c-1.5.7-2.8,1.7-3.9,2.9s-1.9,2.6-2.4,4.1-.8,3-.8,4.6v.8c0,1.8.3,3.4.9,5s1.4,2.9,2.5,4.1,2.5,2.1,4.1,2.8,3.4,1,5.5,1,4.4-.4,6.2-1.3,3.2-2.1,4.4-3.6v-4.9h2.1v-3.2h-13.5v3.2Z"/>
    <path d="M583.5,617.1l-8.7,24.9h4.1l2.4-7h11.3l2.5,7h4.2l-9-24.9h-6.8ZM582.5,631.4l3.7-10.8h1.2l3.8,10.8h-8.8Z"/>
    <path d="M613.1,632.9h7.6v3.5c-.6.6-1.2,1.1-2,1.5-1.4.7-2.9,1.1-4.7,1.1s-2.5-.2-3.6-.6c-1.1-.4-2-1-2.8-1.8-.8-.8-1.4-1.8-1.8-3s-.6-2.6-.6-4.1.2-2.6.6-3.8c.4-1.1.9-2.1,1.7-2.9.7-.8,1.6-1.4,2.6-1.9,1-.4,2.1-.7,3.4-.7s2.4.2,3.4.7c1,.4,1.9,1.1,2.6,1.9.7.8,1.1,1.9,1.2,3.1h4.2c-.2-1.9-.7-3.5-1.7-4.9-1-1.4-2.3-2.5-4-3.3-1.7-.8-3.6-1.2-5.7-1.2s-3.7.4-5.3,1.1c-1.5.7-2.8,1.7-3.9,2.9-1.1,1.2-1.9,2.6-2.4,4.1-.5,1.5-.8,3-.8,4.6v.8c0,1.8.3,3.4.9,5,.6,1.6,1.4,2.9,2.5,4.1,1.1,1.2,2.5,2.1,4.1,2.8,1.6.7,3.4,1,5.5,1s4.4-.4,6.2-1.3,3.2-2.1,4.4-3.6v-4.9h2.1v-3.2h-13.5v3.2Z"/>
    <polygon points="635.1 631.1 645.2 631.1 645.2 627.6 635.1 627.6 635.1 620.7 645.8 620.7 645.8 617.1 635.1 617.1 634.4 617.1 631 617.1 631 642 634.4 642 635.1 642 646.1 642 646.1 638.5 635.1 638.5 635.1 631.1"/>
    <polygon points="670.2 638.5 669.7 638.5 658.2 617.1 651.5 617.1 651.5 642 655.3 642 655.3 620.6 655.7 620.6 667.3 642 674.1 642 674.1 617.1 670.2 617.1 670.2 638.5"/>
    <path d="M696.9,637.4c-1.4,1-3.1,1.5-5.1,1.5s-2.6-.2-3.7-.7c-1.1-.5-1.9-1.1-2.6-2-.7-.9-1.2-1.9-1.6-3-.4-1.1-.5-2.3-.5-3.6s.2-2.6.5-3.7c.4-1.1.9-2.1,1.6-3s1.5-1.5,2.6-2c1-.5,2.2-.7,3.6-.7s2.5.2,3.5.6c1,.4,1.9,1.1,2.6,1.9.7.9,1.1,1.9,1.3,3.2h4.1c-.2-1.9-.8-3.6-1.7-5-1-1.4-2.3-2.5-3.9-3.3-1.6-.8-3.6-1.2-5.8-1.2s-4,.4-5.6,1.1c-1.6.8-2.9,1.7-3.9,3-1,1.2-1.7,2.6-2.2,4.1-.5,1.5-.7,3-.7,4.5v.8c0,1.4.2,2.8.7,4.3.5,1.5,1.2,2.9,2.2,4.2,1,1.3,2.3,2.3,3.9,3.1,1.6.8,3.5,1.2,5.8,1.2s4.3-.4,6-1.3,3-2,3.9-3.5c1-1.4,1.5-3,1.8-4.8h-4.2c-.3,1.8-1.1,3.3-2.5,4.3Z"/>
    <polygon points="726.3 617.1 722.3 617.1 716.7 629.3 715.2 629.3 709.2 617.1 704.9 617.1 712.7 632.4 713.9 632.4 713.9 642 717.9 642 717.9 632.4 719.1 632.4 726.3 617.1"/>
  </g>
</svg>