<?xml version="1.0" encoding="utf-8"?>
<!-- Generator: Adobe Illustrator 26.0.2, SVG Export Plug-In . SVG Version: 6.00 Build 0)  -->
<svg version="1.1" id="Layer_1" xmlns="http://www.w3.org/2000/svg" xmlns:xlink="http://www.w3.org/1999/xlink" x="0px" y="0px"
	 viewBox="0 0 150 60" style="enable-background:new 0 0 150 60;" xml:space="preserve">
<style type="text/css">
	.st0{fill:#FFFFFF;stroke:#C21D1D;stroke-width:2;stroke-miterlimit:10;}
</style>
<path class="st0" d="M48.57,52.3c-4.35,0.97-8.53,1.7-12.56,2.19c-4.03,0.49-7.88,0.73-11.56,0.73c-6.83,0-11.89-1.26-15.17-3.78
	c-3.29-2.52-4.93-6.39-4.93-11.62c0-1.28,0.08-2.64,0.23-4.1s0.38-2.97,0.68-4.52c0.69-3.48,1.57-6.67,2.63-9.58
	s2.25-5.34,3.57-7.31c1.27-1.9,2.55-3.5,3.81-4.78c1.26-1.29,2.59-2.32,3.97-3.1c1.79-1.04,4.16-1.82,7.08-2.33
	c2.93-0.52,6.38-0.78,10.36-0.78c4.3,0,8.47,0.23,12.52,0.68s8,1.16,11.87,2.11l-4.44,16.37c-2.31-0.41-4.67-0.72-7.07-0.94
	c-2.4-0.22-4.88-0.32-7.43-0.32c-3,0-5.51,0.34-7.51,1.02s-3.59,1.71-4.78,3.1c-1.02,1.25-1.84,2.71-2.48,4.38
	c-0.64,1.66-0.96,3.18-0.96,4.54c0,1.95,0.73,3.34,2.2,4.18c1.47,0.84,3.92,1.26,7.36,1.26c2.55,0,5.2-0.17,7.96-0.52
	c2.76-0.35,5.64-0.86,8.64-1.56L48.57,52.3z"/>
<path class="st0" d="M62.19,53.76l0.19-49.35h20.78l-1.65,27.3c-0.13,2.14-0.26,4.1-0.41,5.89c-0.14,1.78-0.3,3.45-0.47,5.01
	c1.02-2.57,2.24-5.5,3.66-8.79c0.22-0.5,0.37-0.84,0.45-1.04L97.11,4.41h22.83L93.51,53.76H62.19z"/>
<path class="st0" d="M111.67,53.76l13.2-49.35h21.27l-13.23,49.35H111.67z"/>
</svg>
