<?xml version="1.0" encoding="utf-8"?>
<!-- Generator: Adobe Illustrator 23.0.3, SVG Export Plug-In . SVG Version: 6.00 Build 0)  -->
<svg version="1.1" id="Layer_1" xmlns="http://www.w3.org/2000/svg" xmlns:xlink="http://www.w3.org/1999/xlink" x="0px" y="0px"
	 viewBox="0 0 119.9 24" style="enable-background:new 0 0 119.9 24;" xml:space="preserve">
<style type="text/css">
	.st0{fill:#686C6D;}
</style>
<path class="st0" d="M100.9,0.1c1.3,0,2.4,1.1,2.3,2.5c0,1.3-1.1,2.3-2.3,2.3c-1.3,0-2.4-1.1-2.4-2.4S99.6,0.1,100.9,0.1z
	 M105.4,21.7l2.3-3c0.5,0.5,1.2,0.9,2.1,1.2c0.9,0.3,1.8,0.5,2.6,0.5c0.8,0,1.4-0.1,1.9-0.3c0.6-0.2,0.8-0.6,0.8-1.2
	c0-0.2-0.1-0.5-0.2-0.7c-0.1-0.2-0.3-0.4-0.6-0.5c-0.3-0.2-0.7-0.3-1.2-0.5c-0.5-0.2-1.2-0.4-1.9-0.6c-0.6-0.2-1.3-0.4-1.9-0.6
	c-0.6-0.2-1.1-0.6-1.6-1c-0.5-0.4-0.9-0.9-1.1-1.4c-0.3-0.5-0.4-1.2-0.4-1.9c0-0.7,0.2-1.4,0.5-2c0.4-0.6,0.8-1.2,1.4-1.6
	c0.6-0.4,1.3-0.8,2.2-1c0.9-0.2,1.8-0.4,2.7-0.4c1.4,0,2.6,0.2,3.7,0.5c1,0.3,1.9,0.7,2.8,1.3l-2,3.1c-0.6-0.3-1.1-0.6-1.8-0.9
	c-0.7-0.3-1.5-0.4-2.4-0.4c-0.8,0-1.4,0.1-1.8,0.4c-0.4,0.3-0.6,0.6-0.6,1c0,0.6,0.4,1.1,1.2,1.3c0.7,0.3,1.7,0.6,3,0.9
	c1.7,0.5,2.9,1.1,3.6,1.9c0.7,0.8,1.1,1.9,1.1,3.2c0,0.9-0.2,1.7-0.6,2.3c-0.4,0.6-1,1.2-1.6,1.6c-0.7,0.4-1.5,0.8-2.3,1
	c-0.9,0.2-1.8,0.3-2.7,0.3c-1.5,0-2.9-0.2-4.2-0.6C107.3,23,106.2,22.5,105.4,21.7L105.4,21.7z M98.5,23.6V7h4.8v16.6H98.5z
	 M87.6,18.2L87.6,18.2l4-11.2h5.2l-7.1,16.6h-4.5L78.3,7h5.3L87.6,18.2z M70.4,13.1c0.6,0,1.2,0,1.8,0c0.6,0,1,0.1,1.2,0.1l0.2,0
	l0-0.5c0-0.4-0.1-0.8-0.3-1.2c-0.2-0.3-0.4-0.6-0.7-0.8c-0.3-0.2-0.7-0.4-1.1-0.4c-0.4-0.1-0.8-0.1-1.2-0.1c-1.1,0-2.1,0.1-2.9,0.4
	c-0.7,0.3-1.3,0.6-1.8,0.9l-1.9-2.9c0.3-0.2,0.7-0.5,1.1-0.7c0.4-0.3,1-0.5,1.6-0.7c0.6-0.2,1.3-0.4,2-0.5c0.9-0.1,1.7-0.2,2.6-0.2
	c2.5,0,4.3,0.7,5.5,2c1.2,1.3,1.8,3.1,1.8,5.4v9.7h-4.5l-0.2-1.9l-0.2,0.3c-0.6,0.7-1.3,1.2-2.1,1.5c-0.8,0.3-1.8,0.5-2.8,0.5
	c-0.6,0-1.2-0.1-1.8-0.2c-0.6-0.2-1.2-0.4-1.8-0.8c-0.5-0.4-1-0.9-1.3-1.5c-0.4-0.6-0.5-1.4-0.5-2.4c0-0.9,0.2-1.8,0.6-2.5
	c0.4-0.7,0.9-1.4,1.6-1.8c0.7-0.5,1.5-0.9,2.4-1.1C68.4,13.2,69.4,13.1,70.4,13.1z M70.2,20.6c0.4,0,0.8-0.1,1.2-0.2
	c0.4-0.1,0.8-0.3,1.1-0.6c0.3-0.2,0.6-0.6,0.8-0.9c0.2-0.4,0.3-0.8,0.3-1.3v-1.5l-0.1,0C72.8,16,72.2,16,71.6,16
	c-1.5,0-2.5,0.2-3.1,0.6c-0.6,0.4-0.9,1-0.9,1.8C67.6,19.9,68.4,20.6,70.2,20.6L70.2,20.6z M53.5,6.6c1.3,0,2.5,0.2,3.5,0.7
	c1,0.4,1.8,1.1,2.5,1.9c0.7,0.8,1.2,1.8,1.5,3c0.3,1.1,0.5,2.4,0.5,3.8v0.7H49.8l0,0.1c0,0.9,0.4,1.8,1.2,2.5c0.8,0.7,1.9,1,3.3,1
	c1.3,0,2.4-0.2,3.3-0.6c0.8-0.4,1.3-0.7,1.7-0.9l1.9,3c-0.2,0.1-0.4,0.3-0.7,0.5c-0.4,0.3-0.9,0.5-1.4,0.8c-0.6,0.3-1.3,0.5-2.1,0.7
	c-0.8,0.2-1.8,0.3-2.8,0.3c-1.4,0-2.7-0.2-3.8-0.6c-1.1-0.4-2.1-1-2.8-1.8c-0.8-0.8-1.4-1.7-1.8-2.8c-0.4-1.1-0.6-2.3-0.6-3.6
	c0-1.1,0.2-2.2,0.6-3.3c0.4-1.1,0.9-2,1.7-2.8C48,8.4,48.9,7.8,50,7.3S52.2,6.6,53.5,6.6z M57.1,13.7l0-0.1c0-0.4-0.1-0.8-0.2-1.1
	c-0.2-0.4-0.4-0.7-0.7-1.1c-0.3-0.3-0.7-0.6-1.1-0.8c-0.4-0.2-1-0.3-1.6-0.3c-0.6,0-1.1,0.1-1.6,0.3c-0.4,0.2-0.8,0.5-1.2,0.8
	c-0.3,0.3-0.5,0.7-0.7,1.1c-0.2,0.4-0.2,0.8-0.2,1.1l0,0.1L57.1,13.7z M33.6,23.6V7h4.6l0.2,2.4l0.2-0.3c0.4-0.6,1-1.1,1.7-1.6
	c0.7-0.5,1.7-0.8,2.8-0.8c0.4,0,0.8,0,1.1,0.1c0.3,0,0.5,0.1,0.8,0.2l-0.8,4.2c-0.5-0.1-1.1-0.2-1.7-0.2c-1.2,0-2.2,0.4-3,1.1
	c-0.8,0.7-1.2,1.8-1.2,3.2v8.2L33.6,23.6z M16.7,0h1.6v10.2c0.2-0.4,0.5-0.7,0.8-1.1c0.3-0.4,0.7-0.8,1.2-1.1
	c0.5-0.4,1.1-0.6,1.7-0.8c0.6-0.2,1.4-0.3,2.3-0.3c1.2,0,2.3,0.2,3.3,0.7c0.9,0.4,1.7,1,2.3,1.8c0.6,0.8,1,1.7,1.3,2.7
	c0.3,1.1,0.4,2.2,0.4,3.4c0,1.4-0.2,2.6-0.7,3.6c-0.5,1.1-1.1,2-1.9,2.7c-0.8,0.7-1.8,1.3-2.9,1.6C25,23.8,23.8,24,22.6,24
	c-1.2,0-2.3-0.1-3.3-0.3c-1-0.2-1.9-0.4-2.5-0.7L16.7,0z M18.2,21.9c0.3,0.1,0.8,0.2,1.5,0.4c0.7,0.2,1.7,0.2,2.9,0.2
	c1,0,2-0.1,2.9-0.4c0.9-0.3,1.6-0.7,2.3-1.3c0.7-0.6,1.2-1.3,1.5-2.2c0.4-0.9,0.5-1.9,0.5-3.1c0-0.9-0.1-1.8-0.3-2.7
	c-0.2-0.9-0.5-1.6-1-2.2c-0.5-0.6-1.1-1.2-1.8-1.5c-0.7-0.4-1.6-0.6-2.7-0.6c-1,0-1.9,0.2-2.6,0.6c-0.7,0.4-1.3,0.9-1.8,1.6
	c-0.5,0.6-0.8,1.3-1.1,2.1c-0.2,0.8-0.4,1.5-0.4,2.2L18.2,21.9z M0,0h1.6v10.6C1.8,10.2,2,9.8,2.4,9.4c0.4-0.5,0.8-0.9,1.3-1.2
	c0.6-0.4,1.2-0.7,1.8-0.9C6.2,7,7,6.9,7.8,6.9c1.2,0,2.1,0.2,2.9,0.5c0.8,0.3,1.4,0.8,1.9,1.4c0.5,0.6,0.8,1.4,1.1,2.3
	c0.2,0.9,0.3,1.9,0.3,3v9.5h-1.6v-9c0-1.2-0.1-2.2-0.3-3c-0.2-0.8-0.5-1.4-0.9-1.9c-0.4-0.5-0.9-0.8-1.5-1C9.1,8.5,8.4,8.4,7.6,8.4
	c-1,0-1.9,0.2-2.7,0.6c-0.7,0.4-1.4,1-1.9,1.6C2.6,11.3,2.2,12,2,12.8c-0.2,0.8-0.4,1.6-0.4,2.4v8.4H0V0z"/>
</svg>
