<?xml version="1.0" encoding="UTF-8"?>
<!DOCTYPE svg PUBLIC "-//W3C//DTD SVG 1.1//EN" "http://www.w3.org/Graphics/SVG/1.1/DTD/svg11.dtd">
<svg xmlns="http://www.w3.org/2000/svg" version="1.1" width="682px" height="229px" style="shape-rendering:geometricPrecision; text-rendering:geometricPrecision; image-rendering:optimizeQuality; fill-rule:evenodd; clip-rule:evenodd" xmlns:xlink="http://www.w3.org/1999/xlink">
<g><path style="opacity:1" fill="#000000" d="M 51.5,65.5 C 57.8333,65.5 64.1667,65.5 70.5,65.5C 70.7771,68.4475 70.4438,71.2809 69.5,74C 66.1832,74.4983 62.8499,74.665 59.5,74.5C 59.5,101.167 59.5,127.833 59.5,154.5C 63.1667,154.5 66.8333,154.5 70.5,154.5C 70.5,157.167 70.5,159.833 70.5,162.5C 64.1667,162.5 57.8333,162.5 51.5,162.5C 51.5,130.167 51.5,97.8333 51.5,65.5 Z"/></g>
<g><path style="opacity:1" fill="#000000" d="M 180.5,65.5 C 186.833,65.5 193.167,65.5 199.5,65.5C 199.5,97.8333 199.5,130.167 199.5,162.5C 193.167,162.5 186.833,162.5 180.5,162.5C 180.5,159.833 180.5,157.167 180.5,154.5C 184.167,154.5 187.833,154.5 191.5,154.5C 191.5,127.833 191.5,101.167 191.5,74.5C 188.15,74.665 184.817,74.4983 181.5,74C 180.556,71.2809 180.223,68.4475 180.5,65.5 Z"/></g>
<g><path style="opacity:1" fill="#000000" d="M 231.5,76.5 C 232.5,76.5 233.5,76.5 234.5,76.5C 234.334,80.8461 234.501,85.1794 235,89.5C 239.467,86.0349 243.633,82.2016 247.5,78C 249.146,76.5986 250.813,76.432 252.5,77.5C 247.527,81.8062 242.86,86.4729 238.5,91.5C 243.367,96.6784 248.367,101.845 253.5,107C 252.167,107.667 250.833,107.667 249.5,107C 244.667,102.167 239.833,97.3333 235,92.5C 234.501,97.4889 234.334,102.489 234.5,107.5C 233.5,107.5 232.5,107.5 231.5,107.5C 231.5,97.1667 231.5,86.8333 231.5,76.5 Z"/></g>
<g><path style="opacity:1" fill="#000000" d="M 257.5,76.5 C 258.5,76.5 259.5,76.5 260.5,76.5C 260.334,84.1739 260.5,91.8406 261,99.5C 263.258,105.419 267.425,107.086 273.5,104.5C 274.333,103.5 275.167,102.5 276,101.5C 277.039,93.2046 277.872,84.8713 278.5,76.5C 279.086,76.7093 279.586,77.0426 280,77.5C 280.87,85.897 280.537,94.2303 279,102.5C 277.065,106.802 273.732,108.802 269,108.5C 263.659,108.669 259.992,106.336 258,101.5C 257.5,93.1733 257.334,84.84 257.5,76.5 Z"/></g>
<g><path style="opacity:1" fill="#000000" d="M 288.5,76.5 C 292.514,76.3345 296.514,76.5012 300.5,77C 308.421,80.6048 309.421,85.6048 303.5,92C 302.552,92.4828 301.552,92.6495 300.5,92.5C 302.234,97.7983 304.901,102.632 308.5,107C 306.888,107.72 305.388,107.554 304,106.5C 301.626,102.25 299.126,98.0838 296.5,94C 294.866,93.5065 293.199,93.3398 291.5,93.5C 291.5,98.1667 291.5,102.833 291.5,107.5C 290.167,107.5 288.833,107.5 287.5,107.5C 287.192,97.0846 287.525,86.7513 288.5,76.5 Z M 291.5,79.5 C 295.584,79.0431 299.417,79.7098 303,81.5C 305.209,85.2071 304.376,88.0404 300.5,90C 297.518,90.498 294.518,90.6646 291.5,90.5C 291.5,86.8333 291.5,83.1667 291.5,79.5 Z"/></g>
<g><path style="opacity:1" fill="#000000" d="M 311.5,76.5 C 318.5,76.5 325.5,76.5 332.5,76.5C 332.657,77.8734 332.49,79.2068 332,80.5C 326.253,88.3262 320.753,96.3262 315.5,104.5C 321.5,105.167 327.5,105.833 333.5,106.5C 325.862,107.497 318.196,107.831 310.5,107.5C 315.816,97.9914 321.816,88.8247 328.5,80C 322.472,79.8303 316.472,79.3303 310.5,78.5C 310.863,77.8165 311.196,77.1499 311.5,76.5 Z"/></g>
<g><path style="opacity:1" fill="#000000" d="M 334.5,76.5 C 335.822,76.33 336.989,76.6634 338,77.5C 340.833,81.8333 343.667,86.1667 346.5,90.5C 349.567,86.7132 352.4,82.7132 355,78.5C 356.133,76.7888 357.633,76.2888 359.5,77C 356,82.5 352.5,88 349,93.5C 348.501,98.1548 348.334,102.821 348.5,107.5C 347.5,107.5 346.5,107.5 345.5,107.5C 345.666,103.154 345.499,98.8206 345,94.5C 341.224,88.609 337.724,82.609 334.5,76.5 Z"/></g>
<g><path style="opacity:1" fill="#000000" d="M 79.5,83.5 C 82.1667,83.5 84.8333,83.5 87.5,83.5C 87.1686,92.1922 87.502,100.859 88.5,109.5C 96.9858,101.514 105.319,93.3478 113.5,85C 117.711,83.4661 122.044,83.1327 126.5,84C 117.1,93.3997 107.767,102.733 98.5,112C 108.487,122.655 118.487,133.321 128.5,144C 124.5,144.667 120.5,144.667 116.5,144C 107.349,134.015 98.016,124.182 88.5,114.5C 87.5015,124.478 87.1681,134.478 87.5,144.5C 84.8333,144.5 82.1667,144.5 79.5,144.5C 79.5,124.167 79.5,103.833 79.5,83.5 Z"/></g>
<g><path style="opacity:1" fill="#000000" d="M 135.5,83.5 C 147.838,83.3335 160.171,83.5001 172.5,84C 173.435,86.3806 173.768,88.8806 173.5,91.5C 163.5,91.5 153.5,91.5 143.5,91.5C 143.5,97.8333 143.5,104.167 143.5,110.5C 152.506,110.334 161.506,110.5 170.5,111C 171.435,113.381 171.768,115.881 171.5,118.5C 162.167,118.5 152.833,118.5 143.5,118.5C 143.5,127.167 143.5,135.833 143.5,144.5C 140.5,144.5 137.5,144.5 134.5,144.5C 134.179,124.091 134.512,103.758 135.5,83.5 Z"/></g>
<g><path style="opacity:1" fill="#000000" d="M 268.5,118.5 C 283.287,120.725 288.453,129.058 284,143.5C 282.01,147.49 278.843,149.99 274.5,151C 259.385,152.552 252.552,145.718 254,130.5C 256.344,123.309 261.177,119.309 268.5,118.5 Z M 267.5,121.5 C 279.533,122.205 284.366,128.539 282,140.5C 277.541,148.447 271.041,150.613 262.5,147C 255.372,140.239 254.706,132.906 260.5,125C 262.713,123.384 265.047,122.217 267.5,121.5 Z"/></g>
<g><path style="opacity:1" fill="#000000" d="M 329.5,118.5 C 346.708,121.249 351.541,130.582 344,146.5C 337.112,152.106 329.612,152.94 321.5,149C 315.014,142.02 313.847,134.186 318,125.5C 321.225,121.979 325.058,119.646 329.5,118.5 Z M 328.5,121.5 C 341.389,122.267 346.222,128.934 343,141.5C 339.345,148.07 333.845,150.237 326.5,148C 318.186,142.595 316.352,135.428 321,126.5C 323.17,124.177 325.67,122.51 328.5,121.5 Z"/></g>
<g><path style="opacity:1" fill="#000000" d="M 366.5,118.5 C 369.166,118.933 371.832,119.433 374.5,120C 377.934,121.01 378.767,122.843 377,125.5C 365.515,118.89 358.015,122.056 354.5,135C 356.422,146.309 363.089,150.642 374.5,148C 375.72,146.475 376.387,144.641 376.5,142.5C 376.333,140.833 376.167,139.167 376,137.5C 373.853,136.887 371.686,136.221 369.5,135.5C 369.709,134.914 370.043,134.414 370.5,134C 373.167,133.333 375.833,133.333 378.5,134C 379.804,139.114 379.804,144.281 378.5,149.5C 365.632,154.972 356.799,151.306 352,138.5C 351.265,127.591 356.099,120.924 366.5,118.5 Z"/></g>
<g><path style="opacity:1" fill="#000000" d="M 480.5,118.5 C 493.828,119.323 499.661,126.323 498,139.5C 493.056,151.488 484.556,154.655 472.5,149C 466.014,142.02 464.847,134.186 469,125.5C 471.986,121.582 475.819,119.248 480.5,118.5 Z M 479.5,121.5 C 491.409,121.637 496.576,127.637 495,139.5C 491.757,147.538 485.923,150.371 477.5,148C 469.186,142.641 467.353,135.474 472,126.5C 474.17,124.177 476.67,122.51 479.5,121.5 Z"/></g>
<g><path style="opacity:1" fill="#000000" d="M 231.5,119.5 C 237.5,119.5 243.5,119.5 249.5,119.5C 249.5,120.5 249.5,121.5 249.5,122.5C 244.5,122.5 239.5,122.5 234.5,122.5C 234.5,126.167 234.5,129.833 234.5,133.5C 239.167,133.5 243.833,133.5 248.5,133.5C 248.5,134.5 248.5,135.5 248.5,136.5C 243.833,136.5 239.167,136.5 234.5,136.5C 234.5,141.167 234.5,145.833 234.5,150.5C 233.5,150.5 232.5,150.5 231.5,150.5C 231.5,140.167 231.5,129.833 231.5,119.5 Z"/></g>
<g><path style="opacity:1" fill="#000000" d="M 288.5,119.5 C 296.5,119.5 304.5,119.5 312.5,119.5C 312.5,120.5 312.5,121.5 312.5,122.5C 309.167,122.5 305.833,122.5 302.5,122.5C 302.5,131.833 302.5,141.167 302.5,150.5C 301.5,150.5 300.5,150.5 299.5,150.5C 299.5,141.167 299.5,131.833 299.5,122.5C 295.833,122.5 292.167,122.5 288.5,122.5C 288.5,121.5 288.5,120.5 288.5,119.5 Z"/></g>
<g><path style="opacity:1" fill="#000000" d="M 388.5,119.5 C 393.58,119.25 398.58,119.75 403.5,121C 408.833,125.667 408.833,130.333 403.5,135C 402.552,135.483 401.552,135.649 400.5,135.5C 402.274,140.381 404.607,145.048 407.5,149.5C 406.349,150.731 405.183,150.731 404,149.5C 401.626,145.25 399.126,141.084 396.5,137C 394.527,136.505 392.527,136.338 390.5,136.5C 390.5,141.167 390.5,145.833 390.5,150.5C 389.5,150.5 388.5,150.5 387.5,150.5C 387.192,140.085 387.525,129.751 388.5,119.5 Z M 390.5,122.5 C 394.637,122.146 398.637,122.646 402.5,124C 404.936,126.319 405.103,128.819 403,131.5C 392.689,136.644 388.522,133.644 390.5,122.5 Z"/></g>
<g><path style="opacity:1" fill="#000000" d="M 423.5,119.5 C 424.822,119.33 425.989,119.663 427,120.5C 430.781,130.514 434.948,140.347 439.5,150C 438.056,150.781 436.723,150.614 435.5,149.5C 434.575,143.092 430.908,140.759 424.5,142.5C 421.833,142.667 419.167,142.833 416.5,143C 415.601,145.192 414.601,147.358 413.5,149.5C 412.5,150.833 411.5,150.833 410.5,149.5C 414.848,139.474 419.181,129.474 423.5,119.5 Z M 424.5,124.5 C 427.298,129.032 429.631,133.865 431.5,139C 427.129,139.828 422.795,139.661 418.5,138.5C 420.515,133.807 422.515,129.141 424.5,124.5 Z"/></g>
<g><path style="opacity:1" fill="#000000" d="M 444.5,119.5 C 450.5,119.5 456.5,119.5 462.5,119.5C 462.5,120.5 462.5,121.5 462.5,122.5C 457.5,122.5 452.5,122.5 447.5,122.5C 447.5,126.167 447.5,129.833 447.5,133.5C 452.167,133.5 456.833,133.5 461.5,133.5C 461.5,134.5 461.5,135.5 461.5,136.5C 456.833,136.5 452.167,136.5 447.5,136.5C 447.5,141.167 447.5,145.833 447.5,150.5C 446.5,150.5 445.5,150.5 444.5,150.5C 444.5,140.167 444.5,129.833 444.5,119.5 Z"/></g>
<g><path style="opacity:1" fill="#000000" d="M 500.5,119.5 C 501.822,119.33 502.989,119.663 504,120.5C 506.755,129.106 510.089,137.44 514,145.5C 517.167,137.167 520.333,128.833 523.5,120.5C 524.325,119.614 525.325,119.281 526.5,119.5C 523.306,129.246 519.806,138.913 516,148.5C 514.333,151.167 512.667,151.167 511,148.5C 507.486,138.812 503.986,129.146 500.5,119.5 Z"/></g>
<g><path style="opacity:1" fill="#000000" d="M 537.5,119.5 C 538.978,119.238 540.311,119.571 541.5,120.5C 545.705,130.456 549.705,140.456 553.5,150.5C 552.178,150.67 551.011,150.337 550,149.5C 549.053,143.644 545.553,141.31 539.5,142.5C 536.833,142.667 534.167,142.833 531.5,143C 530.206,145.087 529.039,147.254 528,149.5C 526.951,150.517 525.784,150.684 524.5,150C 529.25,140.001 533.584,129.834 537.5,119.5 Z M 538.5,124.5 C 539.497,124.47 540.164,124.97 540.5,126C 542.326,130.477 543.993,134.977 545.5,139.5C 541.154,139.666 536.821,139.499 532.5,139C 534.918,134.332 536.918,129.499 538.5,124.5 Z"/></g>
<g><path style="opacity:1" fill="#000000" d="M 558.5,119.5 C 560.144,119.286 561.644,119.62 563,120.5C 568.639,128.972 574.472,137.305 580.5,145.5C 581.167,136.833 581.833,128.167 582.5,119.5C 583.086,119.709 583.586,120.043 584,120.5C 584.5,130.494 584.666,140.494 584.5,150.5C 582.533,150.739 580.699,150.406 579,149.5C 573.333,141.167 567.667,132.833 562,124.5C 561.5,133.16 561.334,141.827 561.5,150.5C 560.5,150.5 559.5,150.5 558.5,150.5C 558.5,140.167 558.5,129.833 558.5,119.5 Z"/></g>
<g><path style="opacity:1" fill="#000000" d="M 592.5,119.5 C 593.5,119.5 594.5,119.5 595.5,119.5C 595.5,129.833 595.5,140.167 595.5,150.5C 594.5,150.5 593.5,150.5 592.5,150.5C 592.5,140.167 592.5,129.833 592.5,119.5 Z"/></g>
<g><path style="opacity:1" fill="#000000" d="M 613.5,119.5 C 614.822,119.33 615.989,119.663 617,120.5C 621.171,130.35 625.338,140.184 629.5,150C 628.056,150.781 626.723,150.614 625.5,149.5C 624.575,143.092 620.908,140.759 614.5,142.5C 608.466,141.343 604.799,143.676 603.5,149.5C 602.675,150.386 601.675,150.719 600.5,150.5C 604.554,140.058 608.887,129.725 613.5,119.5 Z M 614.5,124.5 C 617.298,129.032 619.631,133.865 621.5,139C 617.129,139.828 612.795,139.661 608.5,138.5C 610.312,133.722 612.312,129.055 614.5,124.5 Z"/></g>
</svg>
