<?xml version="1.0" standalone="no"?>
<!DOCTYPE svg PUBLIC "-//W3C//DTD SVG 20010904//EN"
 "http://www.w3.org/TR/2001/REC-SVG-20010904/DTD/svg10.dtd">
<svg version="1.0" xmlns="http://www.w3.org/2000/svg"
 width="740.000000pt" height="476.000000pt" viewBox="0 0 740.000000 476.000000"
 preserveAspectRatio="xMidYMid meet">

<g transform="translate(0.000000,476.000000) scale(0.100000,-0.100000)"
fill="#000000" stroke="none">
<path d="M3067 4683 c-4 -3 -7 -102 -7 -220 0 -163 3 -213 13 -213 6 -1 866 0
1909 0 1878 1 1897 0 1907 -19 8 -14 10 -591 9 -1888 l-3 -1868 -1909 -3
c-1513 -2 -1911 -5 -1918 -15 -13 -21 -10 -411 4 -425 9 -9 474 -12 2031 -12
l2019 0 109 109 109 109 0 2119 0 2118 -108 108 -107 107 -2026 0 c-1114 0
-2029 -3 -2032 -7z"/>
<path d="M1115 3715 c-88 -8 -194 -18 -235 -24 -158 -24 -359 -87 -465 -148
-97 -55 -199 -163 -251 -266 -84 -165 -85 -438 -3 -599 116 -227 381 -367 794
-418 144 -17 245 -30 320 -40 39 -5 146 -19 239 -30 204 -25 255 -36 323 -66
74 -32 103 -66 103 -121 0 -24 -7 -55 -17 -69 -62 -95 -395 -125 -587 -53 -72
26 -114 62 -138 116 l-19 43 -543 0 c-428 0 -546 -3 -554 -13 -15 -18 2 -140
32 -226 62 -178 229 -334 463 -431 239 -100 626 -147 1061 -129 396 16 640 54
872 135 150 52 253 117 352 223 128 135 185 298 175 502 -6 133 -18 187 -63
277 -109 218 -372 353 -794 407 -25 3 -126 17 -225 31 -99 15 -209 30 -245 34
-125 15 -409 60 -457 71 -105 26 -153 66 -153 128 0 26 8 41 35 67 52 48 118
66 268 72 108 3 142 1 218 -18 138 -33 194 -70 228 -151 l22 -49 528 0 c581 0
548 -4 532 62 -5 18 -14 58 -21 88 -29 125 -120 261 -232 345 -73 55 -232 133
-333 163 -296 88 -787 122 -1230 87z"/>
<path d="M3450 3631 c-6 -12 -10 -126 -10 -300 0 -241 2 -282 16 -295 13 -14
66 -16 425 -16 l409 0 2 -867 3 -868 459 -3 c361 -2 461 0 468 10 4 7 8 399 8
871 l0 857 409 0 c359 0 412 2 425 16 14 13 16 55 16 303 0 210 -3 290 -12
299 -9 9 -314 12 -1310 12 -1272 0 -1297 0 -1308 -19z"/>
<path d="M7373 45 c-29 -43 -29 -45 2 -45 23 0 25 4 25 40 0 22 -1 40 -2 40
-2 0 -13 -16 -25 -35z"/>
</g>
</svg>
