<?xml version="1.0" encoding="UTF-8"?>
<!DOCTYPE svg PUBLIC "-//W3C//DTD SVG 1.1//EN" "http://www.w3.org/Graphics/SVG/1.1/DTD/svg11.dtd">
<svg xmlns="http://www.w3.org/2000/svg" version="1.1" width="1968px" height="328px" style="shape-rendering:geometricPrecision; text-rendering:geometricPrecision; image-rendering:optimizeQuality; fill-rule:evenodd; clip-rule:evenodd" xmlns:xlink="http://www.w3.org/1999/xlink">
<g><path style="opacity:1" fill="#646466" d="M 489.5,155.5 C 489.5,110.5 489.5,65.5 489.5,20.5C 330.5,20.5 171.5,20.5 12.5,20.5C 12.5,29.1667 12.5,37.8333 12.5,46.5C 12.1667,46.5 11.8333,46.5 11.5,46.5C 11.5,37.5 11.5,28.5 11.5,19.5C 171.167,19.5 330.833,19.5 490.5,19.5C 490.832,65.0031 490.499,110.336 489.5,155.5 Z"/></g>
<g><path style="opacity:1" fill="#7c0f10" d="M 526.5,20.5 C 543.997,19.8334 561.663,19.5001 579.5,19.5C 597.513,19.5004 615.18,20.1671 632.5,21.5C 597.24,20.507 561.906,20.1737 526.5,20.5 Z"/></g>
<g><path style="opacity:1" fill="#7c0f10" d="M 892.5,20.5 C 856.094,20.1735 819.761,20.5069 783.5,21.5C 801.321,20.1671 819.488,19.5004 838,19.5C 856.336,19.5001 874.503,19.8334 892.5,20.5 Z"/></g>
<g><path style="opacity:1" fill="#ed1e22" d="M 1540.5,19.5 C 1563.17,19.5 1585.83,19.5 1608.5,19.5C 1608.5,116.5 1608.5,213.5 1608.5,310.5C 1585.83,310.5 1563.17,310.5 1540.5,310.5C 1540.5,213.5 1540.5,116.5 1540.5,19.5 Z"/></g>
<g><path style="opacity:1" fill="#7b0f10" d="M 1835.5,20.5 C 1805.76,20.1751 1776.09,20.5084 1746.5,21.5C 1760.98,20.1673 1775.82,19.5006 1791,19.5C 1806,19.5001 1820.84,19.8334 1835.5,20.5 Z"/></g>
<g><path style="opacity:1" fill="#bbbdbf" d="M 489.5,155.5 C 480.833,155.5 472.167,155.5 463.5,155.5C 463.5,119.167 463.5,82.8333 463.5,46.5C 313.167,46.5 162.833,46.5 12.5,46.5C 12.5,37.8333 12.5,29.1667 12.5,20.5C 171.5,20.5 330.5,20.5 489.5,20.5C 489.5,65.5 489.5,110.5 489.5,155.5 Z"/></g>
<g><path style="opacity:1" fill="#ec1d22" d="M 526.5,20.5 C 561.906,20.1737 597.24,20.507 632.5,21.5C 657.934,82.2787 683.1,143.279 708,204.5C 733.182,143.474 758.349,82.4743 783.5,21.5C 819.761,20.5069 856.094,20.1735 892.5,20.5C 892.5,117.167 892.5,213.833 892.5,310.5C 870.167,310.5 847.833,310.5 825.5,310.5C 825.667,241.166 825.5,171.833 825,102.5C 823.961,103.244 823.461,104.244 823.5,105.5C 794.228,173.641 764.561,241.641 734.5,309.5C 716.936,310.824 699.436,310.824 682,309.5C 652.597,242.033 623.764,174.366 595.5,106.5C 595.013,105.527 594.513,104.527 594,103.5C 593.5,172.499 593.333,241.499 593.5,310.5C 571.167,310.5 548.833,310.5 526.5,310.5C 526.5,213.833 526.5,117.167 526.5,20.5 Z"/></g>
<g><path style="opacity:1" fill="#ed1d22" d="M 929.5,20.5 C 1009.17,20.5 1088.83,20.5 1168.5,20.5C 1168.5,43.8333 1168.5,67.1667 1168.5,90.5C 1111.17,90.5 1053.83,90.5 996.5,90.5C 996.5,106.167 996.5,121.833 996.5,137.5C 1051.17,137.5 1105.83,137.5 1160.5,137.5C 1160.5,156.5 1160.5,175.5 1160.5,194.5C 1105.83,194.5 1051.17,194.5 996.5,194.5C 996.5,209.5 996.5,224.5 996.5,239.5C 1055.17,239.5 1113.83,239.5 1172.5,239.5C 1172.5,262.833 1172.5,286.167 1172.5,309.5C 1091.5,309.5 1010.5,309.5 929.5,309.5C 929.5,213.167 929.5,116.833 929.5,20.5 Z"/></g>
<g><path style="opacity:1" fill="#8a1114" d="M 929.5,20.5 C 1009.33,19.5007 1089.33,19.1674 1169.5,19.5C 1169.5,43.5 1169.5,67.5 1169.5,91.5C 1112.17,91.5 1054.83,91.5 997.5,91.5C 997.5,106.5 997.5,121.5 997.5,136.5C 1052,136.168 1106.34,136.501 1160.5,137.5C 1105.83,137.5 1051.17,137.5 996.5,137.5C 996.5,121.833 996.5,106.167 996.5,90.5C 1053.83,90.5 1111.17,90.5 1168.5,90.5C 1168.5,67.1667 1168.5,43.8333 1168.5,20.5C 1088.83,20.5 1009.17,20.5 929.5,20.5 Z"/></g>
<g><path style="opacity:1" fill="#750e11" d="M 1429.5,20.5 C 1356.17,20.5 1282.83,20.5 1209.5,20.5C 1209.5,116.833 1209.5,213.167 1209.5,309.5C 1279.83,309.5 1350.17,309.5 1420.5,309.5C 1350,310.499 1279.34,310.833 1208.5,310.5C 1208.5,213.5 1208.5,116.5 1208.5,19.5C 1282.34,19.1674 1356,19.5008 1429.5,20.5 Z"/></g>
<g><path style="opacity:1" fill="#ec1d22" d="M 1429.5,20.5 C 1449.83,20.5878 1467,27.9211 1481,42.5C 1482.75,44.7343 1484.25,47.0676 1485.5,49.5C 1485.43,51.0269 1486.09,52.0269 1487.5,52.5C 1491.17,57.6328 1494,63.2995 1496,69.5C 1499.29,80.6085 1501.29,91.9418 1502,103.5C 1502.67,144.833 1502.67,186.167 1502,227.5C 1500.68,280.653 1473.51,307.986 1420.5,309.5C 1350.17,309.5 1279.83,309.5 1209.5,309.5C 1209.5,213.167 1209.5,116.833 1209.5,20.5C 1282.83,20.5 1356.17,20.5 1429.5,20.5 Z M 1427.5,106.5 C 1427.93,107.71 1428.6,108.71 1429.5,109.5C 1431.74,120.018 1432.9,130.684 1433,141.5C 1434.27,166.607 1433.27,191.607 1430,216.5C 1428.33,220.524 1426.16,224.191 1423.5,227.5C 1421.5,228.833 1419.83,230.5 1418.5,232.5C 1413.25,235.417 1407.58,237.251 1401.5,238C 1359.83,238.5 1318.17,238.667 1276.5,238.5C 1276.5,189.5 1276.5,140.5 1276.5,91.5C 1317.83,91.3333 1359.17,91.5 1400.5,92C 1411.91,92.6999 1420.91,97.5332 1427.5,106.5 Z"/></g>
<g><path style="opacity:1" fill="#eb1d22" d="M 1835.5,20.5 C 1875.56,116.333 1915.22,212.333 1954.5,308.5C 1930.01,309.498 1905.34,309.831 1880.5,309.5C 1873.52,292.859 1866.52,276.192 1859.5,259.5C 1814.17,258.167 1768.83,258.167 1723.5,259.5C 1717.35,275.941 1711.02,292.274 1704.5,308.5C 1679.91,309.49 1655.24,309.823 1630.5,309.5C 1630.5,308.5 1630.5,307.5 1630.5,306.5C 1668.8,211.263 1707.46,116.263 1746.5,21.5C 1776.09,20.5084 1805.76,20.1751 1835.5,20.5 Z M 1833.5,195.5 C 1819.84,196.167 1806,196.5 1792,196.5C 1777.82,196.499 1763.98,195.833 1750.5,194.5C 1763.98,160.192 1777.48,125.859 1791,91.5C 1804.94,126.369 1819.11,161.036 1833.5,195.5 Z"/></g>
<g><path style="opacity:1" fill="#3b3b3c" d="M 11.5,46.5 C 11.8333,46.5 12.1667,46.5 12.5,46.5C 162.833,46.5 313.167,46.5 463.5,46.5C 463.5,82.8333 463.5,119.167 463.5,155.5C 462.502,119.671 462.168,83.6705 462.5,47.5C 311.999,47.833 161.666,47.4996 11.5,46.5 Z"/></g>
<g><path style="opacity:1" fill="#681311" d="M 1485.5,49.5 C 1486.91,49.9731 1487.57,50.9731 1487.5,52.5C 1486.09,52.0269 1485.43,51.0269 1485.5,49.5 Z"/></g>
<g><path style="opacity:1" fill="#b5b6b9" d="M 416.5,57.5 C 426.493,62.495 435.826,68.495 444.5,75.5C 435.418,81.9206 426.084,87.9206 416.5,93.5C 415.833,91.8333 415.167,90.1667 414.5,88.5C 388.165,88.3334 361.831,88.5 335.5,89C 327.167,111.333 318.833,133.667 310.5,156C 302.92,156.813 295.42,156.647 288,155.5C 282.863,141.089 277.53,126.756 272,112.5C 266.527,127.089 261.36,141.755 256.5,156.5C 248.913,156.814 241.413,156.481 234,155.5C 221.997,124.323 210.497,92.99 199.5,61.5C 209.416,61.181 219.25,61.5144 229,62.5C 234.207,79.2863 239.707,95.953 245.5,112.5C 251.268,95.6966 256.934,78.8633 262.5,62C 269.082,61.19 275.582,61.3567 282,62.5C 287.465,79.8956 293.132,97.2289 299,114.5C 303.167,98.8391 308,83.5058 313.5,68.5C 314.738,66.7857 315.405,64.7857 315.5,62.5C 348.833,62.5 382.167,62.5 415.5,62.5C 415.216,60.5853 415.549,58.9187 416.5,57.5 Z"/></g>
<g><path style="opacity:1" fill="#898a8c" d="M 416.5,57.5 C 415.549,58.9187 415.216,60.5853 415.5,62.5C 382.167,62.5 348.833,62.5 315.5,62.5C 315.405,64.7857 314.738,66.7857 313.5,68.5C 313.674,66.139 314.007,63.8056 314.5,61.5C 347.833,61.5 381.167,61.5 414.5,61.5C 414.215,59.712 414.548,58.0453 415.5,56.5C 416.107,56.6236 416.44,56.9569 416.5,57.5 Z"/></g>
<g><path style="opacity:1" fill="#babbbe" d="M 40.5,108.5 C 40.2172,107.711 39.7172,107.044 39,106.5C 38.5,165.499 38.3333,224.499 38.5,283.5C 188.833,283.5 339.167,283.5 489.5,283.5C 489.5,292.167 489.5,300.833 489.5,309.5C 330.5,309.5 171.5,309.5 12.5,309.5C 12.5,227.167 12.5,144.833 12.5,62.5C 19.8409,62.3337 27.1742,62.5003 34.5,63C 35.0442,63.7172 35.7109,64.2172 36.5,64.5C 48.8028,79.6462 60.9695,94.9795 73,110.5C 72.6508,94.1872 72.4841,77.8539 72.5,61.5C 81.8333,61.5 91.1667,61.5 100.5,61.5C 100.5,93.1667 100.5,124.833 100.5,156.5C 92.8261,156.666 85.1594,156.5 77.5,156C 64.9518,140.291 52.6185,124.458 40.5,108.5 Z"/></g>
<g><path style="opacity:1" fill="#b9babd" d="M 119.5,61.5 C 143.833,61.5 168.167,61.5 192.5,61.5C 192.5,69.1667 192.5,76.8333 192.5,84.5C 176.833,84.5 161.167,84.5 145.5,84.5C 145.5,88.5 145.5,92.5 145.5,96.5C 159.99,97.496 174.657,97.8293 189.5,97.5C 189.5,104.5 189.5,111.5 189.5,118.5C 174.657,118.171 159.99,118.504 145.5,119.5C 145.5,123.833 145.5,128.167 145.5,132.5C 161.833,132.5 178.167,132.5 194.5,132.5C 194.5,140.167 194.5,147.833 194.5,155.5C 169.5,155.5 144.5,155.5 119.5,155.5C 119.5,124.167 119.5,92.8333 119.5,61.5 Z"/></g>
<g><path style="opacity:1" fill="#29292a" d="M 414.5,88.5 C 415.167,90.1667 415.833,91.8333 416.5,93.5C 416.44,94.0431 416.107,94.3764 415.5,94.5C 414.534,92.604 414.201,90.604 414.5,88.5 Z"/></g>
<g><path style="opacity:1" fill="#333334" d="M 145.5,96.5 C 160.5,96.5 175.5,96.5 190.5,96.5C 190.5,104.167 190.5,111.833 190.5,119.5C 175.5,119.5 160.5,119.5 145.5,119.5C 159.99,118.504 174.657,118.171 189.5,118.5C 189.5,111.5 189.5,104.5 189.5,97.5C 174.657,97.8293 159.99,97.496 145.5,96.5 Z"/></g>
<g><path style="opacity:1" fill="#330607" d="M 825.5,310.5 C 824.833,242.167 824.167,173.833 823.5,105.5C 823.461,104.244 823.961,103.244 825,102.5C 825.5,171.833 825.667,241.166 825.5,310.5 Z"/></g>
<g><path style="opacity:1" fill="#200204" d="M 595.5,106.5 C 594.833,174.5 594.167,242.5 593.5,310.5C 593.333,241.499 593.5,172.499 594,103.5C 594.513,104.527 595.013,105.527 595.5,106.5 Z"/></g>
<g><path style="opacity:1" fill="#711714" d="M 1427.5,106.5 C 1429.05,106.821 1429.71,107.821 1429.5,109.5C 1428.6,108.71 1427.93,107.71 1427.5,106.5 Z"/></g>
<g><path style="opacity:1" fill="#2a2b2c" d="M 119.5,61.5 C 119.5,92.8333 119.5,124.167 119.5,155.5C 144.5,155.5 169.5,155.5 194.5,155.5C 169.339,156.498 144.005,156.831 118.5,156.5C 118.168,124.662 118.502,92.9956 119.5,61.5 Z"/></g>
<g><path style="opacity:1" fill="#151516" d="M 249.5,172.5 C 239.442,171.86 229.775,172.527 220.5,174.5C 219.596,173.791 219.263,172.791 219.5,171.5C 229.681,171.173 239.681,171.506 249.5,172.5 Z"/></g>
<g><path style="opacity:1" fill="#141415" d="M 294.5,172.5 C 304.341,171.177 314.341,171.177 324.5,172.5C 324.376,173.107 324.043,173.44 323.5,173.5C 314.014,172.506 304.348,172.173 294.5,172.5 Z"/></g>
<g><path style="opacity:1" fill="#5d5e60" d="M 80.5,172.5 C 71.8333,172.5 63.1667,172.5 54.5,172.5C 54.5,203.833 54.5,235.167 54.5,266.5C 53.5018,235.004 53.1685,203.338 53.5,171.5C 62.6822,171.173 71.6822,171.507 80.5,172.5 Z"/></g>
<g><path style="opacity:1" fill="#babbbe" d="M 80.5,172.5 C 80.5,196.167 80.5,219.833 80.5,243.5C 95.5,243.5 110.5,243.5 125.5,243.5C 125.5,251.167 125.5,258.833 125.5,266.5C 101.833,266.5 78.1667,266.5 54.5,266.5C 54.5,235.167 54.5,203.833 54.5,172.5C 63.1667,172.5 71.8333,172.5 80.5,172.5 Z"/></g>
<g><path style="opacity:1" fill="#b6b7ba" d="M 212.5,172.5 C 212.5,179.833 212.5,187.167 212.5,194.5C 196.833,194.5 181.167,194.5 165.5,194.5C 165.5,198.833 165.5,203.167 165.5,207.5C 179.99,208.496 194.657,208.829 209.5,208.5C 209.5,215.5 209.5,222.5 209.5,229.5C 194.833,229.5 180.167,229.5 165.5,229.5C 165.5,234.5 165.5,239.5 165.5,244.5C 181.833,244.5 198.167,244.5 214.5,244.5C 214.5,251.833 214.5,259.167 214.5,266.5C 189.167,266.5 163.833,266.5 138.5,266.5C 138.333,235.165 138.5,203.832 139,172.5C 163.598,171.169 188.098,171.169 212.5,172.5 Z"/></g>
<g><path style="opacity:1" fill="#b5b6b8" d="M 249.5,172.5 C 257.069,192.696 264.569,213.03 272,233.5C 279.431,213.03 286.931,192.696 294.5,172.5C 304.348,172.173 314.014,172.506 323.5,173.5C 311.289,204.259 298.789,234.926 286,265.5C 276.667,266.833 267.333,266.833 258,265.5C 245.396,235.183 232.896,204.85 220.5,174.5C 229.775,172.527 239.442,171.86 249.5,172.5 Z"/></g>
<g><path style="opacity:1" fill="#bbbcbf" d="M 404.5,172.5 C 404.5,203.833 404.5,235.167 404.5,266.5C 379.5,266.5 354.5,266.5 329.5,266.5C 329.5,259.167 329.5,251.833 329.5,244.5C 346.009,244.83 362.342,244.496 378.5,243.5C 378.5,238.833 378.5,234.167 378.5,229.5C 363.5,229.5 348.5,229.5 333.5,229.5C 333.5,222.5 333.5,215.5 333.5,208.5C 348.5,208.5 363.5,208.5 378.5,208.5C 378.5,203.833 378.5,199.167 378.5,194.5C 362.833,194.5 347.167,194.5 331.5,194.5C 331.5,187.167 331.5,179.833 331.5,172.5C 355.833,172.5 380.167,172.5 404.5,172.5 Z"/></g>
<g><path style="opacity:1" fill="#464647" d="M 489.5,266.5 C 489.5,235.167 489.5,203.833 489.5,172.5C 480.833,172.5 472.167,172.5 463.5,172.5C 463.5,196.5 463.5,220.5 463.5,244.5C 448.5,244.5 433.5,244.5 418.5,244.5C 418.5,251.833 418.5,259.167 418.5,266.5C 417.508,259.018 417.175,251.352 417.5,243.5C 432.5,243.5 447.5,243.5 462.5,243.5C 462.5,219.5 462.5,195.5 462.5,171.5C 471.833,171.5 481.167,171.5 490.5,171.5C 490.832,203.338 490.498,235.004 489.5,266.5 Z"/></g>
<g><path style="opacity:1" fill="#bbbcbf" d="M 489.5,266.5 C 465.833,266.5 442.167,266.5 418.5,266.5C 418.5,259.167 418.5,251.833 418.5,244.5C 433.5,244.5 448.5,244.5 463.5,244.5C 463.5,220.5 463.5,196.5 463.5,172.5C 472.167,172.5 480.833,172.5 489.5,172.5C 489.5,203.833 489.5,235.167 489.5,266.5 Z"/></g>
<g><path style="opacity:1" fill="#212222" d="M 212.5,172.5 C 213.492,179.982 213.825,187.648 213.5,195.5C 197.833,195.5 182.167,195.5 166.5,195.5C 166.5,199.5 166.5,203.5 166.5,207.5C 166.167,207.5 165.833,207.5 165.5,207.5C 165.5,203.167 165.5,198.833 165.5,194.5C 181.167,194.5 196.833,194.5 212.5,194.5C 212.5,187.167 212.5,179.833 212.5,172.5 Z"/></g>
<g><path style="opacity:1" fill="#2a2a2b" d="M 404.5,172.5 C 380.167,172.5 355.833,172.5 331.5,172.5C 331.5,179.833 331.5,187.167 331.5,194.5C 347.167,194.5 362.833,194.5 378.5,194.5C 378.5,199.167 378.5,203.833 378.5,208.5C 363.5,208.5 348.5,208.5 333.5,208.5C 347.99,207.504 362.657,207.171 377.5,207.5C 377.5,203.5 377.5,199.5 377.5,195.5C 361.833,195.5 346.167,195.5 330.5,195.5C 330.5,187.5 330.5,179.5 330.5,171.5C 355.339,171.169 380.006,171.502 404.5,172.5 Z"/></g>
<g><path style="opacity:1" fill="#400809" d="M 1160.5,194.5 C 1106.34,195.499 1052,195.832 997.5,195.5C 997.5,209.833 997.5,224.167 997.5,238.5C 1056.34,238.168 1115,238.501 1173.5,239.5C 1173.17,239.5 1172.83,239.5 1172.5,239.5C 1113.83,239.5 1055.17,239.5 996.5,239.5C 996.5,224.5 996.5,209.5 996.5,194.5C 1051.17,194.5 1105.83,194.5 1160.5,194.5 Z"/></g>
<g><path style="opacity:1" fill="#790f10" d="M 1750.5,194.5 C 1763.98,195.833 1777.82,196.499 1792,196.5C 1806,196.5 1819.84,196.167 1833.5,195.5C 1834.04,195.56 1834.38,195.893 1834.5,196.5C 1806.17,197.5 1777.84,197.833 1749.5,197.5C 1749.26,196.209 1749.6,195.209 1750.5,194.5 Z"/></g>
<g><path style="opacity:1" fill="#4a4a4b" d="M 165.5,207.5 C 165.833,207.5 166.167,207.5 166.5,207.5C 181.167,207.5 195.833,207.5 210.5,207.5C 210.5,214.833 210.5,222.167 210.5,229.5C 210.167,229.5 209.833,229.5 209.5,229.5C 209.5,222.5 209.5,215.5 209.5,208.5C 194.657,208.829 179.99,208.496 165.5,207.5 Z"/></g>
<g><path style="opacity:1" fill="#343435" d="M 209.5,229.5 C 209.833,229.5 210.167,229.5 210.5,229.5C 196.01,230.496 181.343,230.829 166.5,230.5C 166.5,234.833 166.5,239.167 166.5,243.5C 182.833,243.5 199.167,243.5 215.5,243.5C 215.825,251.352 215.492,259.018 214.5,266.5C 214.5,259.167 214.5,251.833 214.5,244.5C 198.167,244.5 181.833,244.5 165.5,244.5C 165.5,239.5 165.5,234.5 165.5,229.5C 180.167,229.5 194.833,229.5 209.5,229.5 Z"/></g>
<g><path style="opacity:1" fill="#343435" d="M 333.5,229.5 C 348.5,229.5 363.5,229.5 378.5,229.5C 378.5,234.167 378.5,238.833 378.5,243.5C 378.167,243.5 377.833,243.5 377.5,243.5C 377.5,239.167 377.5,234.833 377.5,230.5C 362.657,230.829 347.99,230.496 333.5,229.5 Z"/></g>
<g><path style="opacity:1" fill="#931718" d="M 1423.5,227.5 C 1422.83,230.167 1421.17,231.833 1418.5,232.5C 1419.83,230.5 1421.5,228.833 1423.5,227.5 Z"/></g>
<g><path style="opacity:1" fill="#515253" d="M 377.5,243.5 C 377.833,243.5 378.167,243.5 378.5,243.5C 362.342,244.496 346.009,244.83 329.5,244.5C 329.5,251.833 329.5,259.167 329.5,266.5C 328.508,259.018 328.175,251.352 328.5,243.5C 344.833,243.5 361.167,243.5 377.5,243.5 Z"/></g>
<g><path style="opacity:1" fill="#0f0f10" d="M 40.5,108.5 C 39.501,166.331 39.1676,224.331 39.5,282.5C 190.001,282.167 340.334,282.5 490.5,283.5C 490.167,283.5 489.833,283.5 489.5,283.5C 339.167,283.5 188.833,283.5 38.5,283.5C 38.3333,224.499 38.5,165.499 39,106.5C 39.7172,107.044 40.2172,107.711 40.5,108.5 Z"/></g>
<g><path style="opacity:1" fill="#818284" d="M 36.5,64.5 C 35.7109,64.2172 35.0442,63.7172 34.5,63C 27.1742,62.5003 19.8409,62.3337 12.5,62.5C 12.5,144.833 12.5,227.167 12.5,309.5C 171.5,309.5 330.5,309.5 489.5,309.5C 489.5,300.833 489.5,292.167 489.5,283.5C 489.833,283.5 490.167,283.5 490.5,283.5C 490.5,292.5 490.5,301.5 490.5,310.5C 330.833,310.5 171.167,310.5 11.5,310.5C 11.5,227.5 11.5,144.5 11.5,61.5C 19.5069,61.3336 27.5069,61.5003 35.5,62C 36.2524,62.6708 36.5858,63.5041 36.5,64.5 Z"/></g>
<g><path style="opacity:1" fill="#a81318" d="M 1172.5,239.5 C 1172.83,239.5 1173.17,239.5 1173.5,239.5C 1173.5,263.167 1173.5,286.833 1173.5,310.5C 1092,310.833 1010.66,310.499 929.5,309.5C 1010.5,309.5 1091.5,309.5 1172.5,309.5C 1172.5,286.167 1172.5,262.833 1172.5,239.5 Z"/></g>
<g><path style="opacity:1" fill="#9c1517" d="M 1630.5,306.5 C 1630.5,307.5 1630.5,308.5 1630.5,309.5C 1655.24,309.823 1679.91,309.49 1704.5,308.5C 1692.18,309.832 1679.52,310.499 1666.5,310.5C 1653.83,310.333 1641.17,310.167 1628.5,310C 1629.08,308.698 1629.75,307.531 1630.5,306.5 Z"/></g>
<g><path style="opacity:1" fill="#9e1517" d="M 1954.5,308.5 C 1955.04,308.56 1955.38,308.893 1955.5,309.5C 1930.34,310.829 1905.34,310.829 1880.5,309.5C 1905.34,309.831 1930.01,309.498 1954.5,308.5 Z"/></g>
</svg>
