<?xml version="1.0" encoding="UTF-8"?>
<svg xmlns="http://www.w3.org/2000/svg" width="160" height="120" version="1.1" viewBox="35 28 90 64">
<g fill="currentColor">
<path d="M103.635,61.001c-1.592,0-2.342-.843-2.342-2.811v-18.071c0-7.027-4.685-10.119-9.838-10.119-2.697,0-5.514.84-7.397,2.71.445.466.849,1.013,1.191,1.652.824-.918,1.965-1.551,3.302-1.551,3.654,0,4.872,2.998,4.872,6.84v18.539c0,2.623-1.031,2.811-2.436,2.811h-1.031v1.592h14.616v-1.592h-.937Z"/>
<path d="M83.866,58.19v-18.9c0-2.477-.607-4.295-1.514-5.63-1.972-2.462-4.847-3.66-8.043-3.66-3.279,0-5.622.937-7.777,3.467v-2.811h-11.805v1.499h1.218c1.311,0,2.717.094,2.717,2.717v23.318c0,2.623-1.312,2.811-2.623,2.811h-1.031v1.592h14.522v-1.592h-.656c-1.405,0-2.342-.843-2.342-2.811v-20.508c.281-2.53,2.155-4.872,4.685-4.872,4.028,0,4.778,3.186,4.778,6.84v18.539c0,2.623-1.218,2.811-2.623,2.811h-1.031v1.592h14.804v-1.592h-.937c-1.499,0-2.342-.843-2.342-2.811h0Z"/>
<path d="M38.767,76.979v-8.021h1.486l4.235,5.844v-5.844h1.43v8.021h-1.486l-4.235-5.968v5.968s-1.43,0-1.43,0ZM53.092,68.959v1.279h-4.016v2.019h3.826v1.329h-3.842v2.104h4.111v1.29h-5.57v-8.021h5.491ZM53.9,68.959h1.508l.858,5.76,2.086-5.76h1.43l1.952,5.536.909-5.536h1.464l-1.509,8.021h-1.413l-2.204-6.293-2.367,6.293h-1.397l-1.318-8.021h.002ZM65.006,76.643v-1.346c.804.299,1.713.449,2.726.449,1.23,0,1.845-.412,1.845-1.234,0-.598-.378-.897-1.133-.897h-1.256c-1.642,0-2.462-.748-2.462-2.244,0-1.645,1.169-2.467,3.506-2.467.897,0,1.748.131,2.552.393v1.346c-.804-.299-1.654-.449-2.552-.449-1.346,0-2.02.393-2.02,1.178,0,.598.326.897.976.897h1.256c1.746,0,2.619.748,2.619,2.243,0,1.683-1.111,2.524-3.332,2.524-1.014,0-1.922-.131-2.726-.393h0ZM74.568,71.174c0-1.477.953-2.215,2.861-2.215.692,0,1.365.093,2.019.28v1.178c-.654-.187-1.303-.28-1.946-.28-.965,0-1.447.336-1.447,1.009,0,.785.383,1.178,1.15,1.178h1.896v-.797h.802l.572.797h1.021v1.178h-.909v.729c0,1.843-1.025,2.765-3.074,2.765-1.963,0-2.945-.779-2.945-2.339,0-.849.342-1.434,1.027-1.756-.684-.317-1.027-.894-1.027-1.728h0ZM77.216,73.502c-.774,0-1.161.376-1.161,1.127,0,.782.488,1.172,1.464,1.172,1.055,0,1.582-.527,1.582-1.582v-.718h-1.884ZM84.861,76.979v-8.021h1.542l2.721,6.085,2.664-6.085h1.486v8.021h-1.374v-5.586l-2.176,5.586h-1.268l-2.221-5.586v5.586s-1.374,0-1.374,0ZM100.447,68.959v1.279h-4.016v2.019h3.826v1.329h-3.842v2.104h4.111v1.29h-5.57v-8.021h5.491ZM101.9,76.979v-8.021h3.141c2.655,0,3.982,1.264,3.982,3.792,0,2.82-1.328,4.229-3.982,4.229,0,0-3.141,0-3.141,0ZM105.041,75.689c1.664,0,2.496-.98,2.496-2.939,0-1.667-.832-2.502-2.496-2.502h-1.654v5.441h1.654ZM111.771,68.959v8.021h-1.486v-8.021s1.486,0,1.486,0ZM114.278,76.979h-1.526l3.404-8.021h1.598l3.478,8.021h-1.598l-.914-2.187h-2.664l.51-1.29h1.616l-1.262-3.012-2.642,6.489h0ZM59.164,88.256v-6.562h.849v2.267c.41-.349.91-.523,1.5-.523,1.202,0,1.804.598,1.804,1.794v3.024h-.849v-3.038c0-.716-.356-1.074-1.07-1.074-.487,0-.948.204-1.385.61v3.502h-.849ZM66.155,85.847c0-1.606.764-2.409,2.294-2.409s2.294.803,2.294,2.409-.765,2.405-2.294,2.405-2.288-.802-2.294-2.405ZM68.45,87.568c.963,0,1.446-.58,1.446-1.739,0-1.135-.482-1.702-1.446-1.702s-1.446.567-1.446,1.702c0,1.159.482,1.739,1.446,1.739ZM74.478,81.694v6.562h-.849v-6.562s.849,0,.849,0ZM81.675,87.967c-.585.193-1.305.289-2.161.289-1.435,0-2.152-.835-2.152-2.505,0-1.542.762-2.312,2.285-2.312.416,0,.809.077,1.179.229v-1.973h.849v6.272h0ZM80.827,84.42c-.343-.165-.734-.247-1.174-.247-.97,0-1.455.515-1.455,1.546,0,1.221.485,1.831,1.455,1.831.44,0,.832-.059,1.174-.179,0,0,0-2.951,0-2.951ZM85.685,81.694v.803h-.849v-.803h.849ZM85.685,83.438v4.818h-.849v-4.818h.849ZM88.845,88.256v-4.818h.574l.152.615c.492-.41,1.034-.615,1.625-.615,1.202,0,1.804.598,1.804,1.794v3.024h-.849v-3.038c0-.716-.356-1.074-1.069-1.074-.487,0-.948.204-1.386.61v3.502h-.85ZM100.135,88.256c0,1.163-.739,1.744-2.217,1.744-.594,0-1.12-.077-1.578-.229v-.689c.468.153.997.229,1.587.229.905,0,1.358-.352,1.358-1.056v-.229c-.361.153-.75.229-1.165.229-1.523,0-2.285-.812-2.285-2.437,0-1.587.803-2.382,2.409-2.382.651,0,1.282.066,1.891.197v4.621h0ZM99.287,84.255c-.291-.073-.65-.11-1.079-.11-1.025,0-1.537.555-1.537,1.666,0,1.141.485,1.711,1.455,1.711.44,0,.827-.082,1.161-.247v-3.019h0Z"/>
</g>
</svg>
