<svg width="916" height="354" viewBox="0 0 916 354" fill="none" xmlns="http://www.w3.org/2000/svg">
<path d="M808.457 271.118C669.669 349.872 704.108 263.185 631.1 232.665C646.253 304.302 727.762 385.124 806.292 336.869C832.767 320.585 860.552 270.641 878.963 214.075C859.36 236.443 833.879 256.703 808.457 271.118Z" fill="#0DB0CD"/>
<path d="M900.055 101.858C901.644 44.3175 884.306 -0.338743 834.753 1.53022C803.353 2.70329 787.822 29.4056 774.376 59.2691C842.121 64.5778 881.168 80.5634 900.055 101.858V101.858Z" fill="#FFCB05"/>
<path d="M900.055 101.858C899.082 137.01 891.038 176.954 878.963 214.075C911.753 176.676 928.059 133.451 900.055 101.858Z" fill="#ED135D"/>
<path d="M702.897 142.597C743.095 141.603 757.037 97.8017 774.396 59.2693C772.846 59.15 771.337 59.0108 769.768 58.8915C600.395 47.0614 418.788 200.873 599.005 224.374C611.656 226.024 622.182 228.927 631.12 232.645C621.348 186.498 639.104 144.168 702.897 142.577V142.597Z" fill="#ED135D"/>
<path d="M808.457 271.118C833.859 256.703 859.34 236.423 878.963 214.075C891.038 176.954 899.082 137.01 900.055 101.858C881.167 80.5634 842.121 64.5779 774.376 59.2692C757.017 97.8016 743.075 141.603 702.877 142.597C639.084 144.188 621.328 186.518 631.1 232.665C704.108 263.205 669.669 349.873 808.457 271.118V271.118Z" fill="#810C90"/>
<path fill-rule="evenodd" clip-rule="evenodd" d="M0 246.001H7.1298V293.557C7.97376 291.967 9.16525 290.192 10.6966 288.23C12.228 286.267 14.1565 284.465 16.4822 282.821C18.804 281.181 21.4963 279.797 24.5629 278.685C27.6256 277.57 31.1657 277.018 35.1793 277.018C40.3538 277.018 44.7111 277.758 48.255 279.245C51.7913 280.732 54.6707 282.875 56.8895 285.688C59.1082 288.498 60.693 291.89 61.6439 295.865C62.5948 299.84 63.0684 304.267 63.0684 309.146V352.092H55.9386V311.531C55.9386 306.126 55.4612 301.618 54.5103 298.011C53.5594 294.408 52.1617 291.545 50.3134 289.422C48.4612 287.302 46.1928 285.819 43.5006 284.968C40.8044 284.12 37.715 283.695 34.2284 283.695C29.5808 283.695 25.5634 284.649 22.1875 286.558C18.804 288.467 16.0048 290.909 13.7861 293.876C11.5673 296.846 9.9061 300.135 8.79482 303.738C7.68735 307.345 7.1298 310.894 7.1298 314.394V352.092H0V246.001ZM81.7678 344.455C83.0356 344.88 85.2276 345.467 88.3438 346.206C91.46 346.946 95.7638 347.318 101.259 347.318C105.907 347.318 110.211 346.655 114.175 345.332C118.135 344.006 121.595 342.017 124.554 339.364C127.51 336.716 129.809 333.4 131.447 329.425C133.085 325.447 133.903 320.809 133.903 315.507C133.903 311.268 133.425 307.213 132.474 303.337C131.524 299.47 130.019 296.105 127.961 293.241C125.902 290.378 123.229 288.097 119.956 286.399C116.684 284.705 112.666 283.854 107.915 283.854C103.478 283.854 99.6209 284.809 96.3481 286.717C93.0716 288.63 90.3487 291.014 88.1872 293.878C86.0181 296.741 84.4066 299.895 83.3526 303.337C82.2948 306.787 81.7678 310.045 81.7678 313.119V344.455ZM74.7945 245.999H81.9281V291.969C82.879 290.378 84.0667 288.707 85.4911 286.955C86.9194 285.207 88.6875 283.593 90.7993 282.102C92.9112 280.623 95.4202 279.4 98.3263 278.446C101.232 277.491 104.689 277.016 108.706 277.016C114.304 277.016 119.166 277.997 123.286 279.96C127.407 281.922 130.813 284.628 133.506 288.07C136.198 291.516 138.207 295.602 139.528 300.317C140.849 305.039 141.51 310.156 141.51 315.665C141.51 321.817 140.479 327.279 138.417 332.051C136.358 336.823 133.506 340.825 129.862 344.056C126.215 347.291 121.938 349.76 117.027 351.454C112.112 353.152 106.804 353.999 101.099 353.999C95.8173 353.999 90.8261 353.547 86.1251 352.65C81.4241 351.745 77.6472 350.656 74.7945 349.384V245.999ZM150.703 352.102V277.511H171.348L172.222 288.478L173.234 287.262C175.086 284.786 177.676 282.371 180.933 280.087C184.137 277.841 188.361 276.702 193.486 276.702C195.441 276.702 197.144 276.806 198.538 277.009C199.749 277.193 200.948 277.492 202.112 277.91L198.687 296.88C196.453 296.255 193.856 295.94 190.95 295.94C185.416 295.94 180.868 297.635 177.435 300.969C173.99 304.316 172.249 309.099 172.249 315.19V352.102H150.703ZM255.789 307.558L255.77 306.918C255.77 305.258 255.437 303.549 254.781 301.839C254.12 300.13 253.119 298.535 251.802 297.101C250.484 295.668 248.819 294.472 246.849 293.537C244.867 292.601 242.484 292.126 239.765 292.126C237.046 292.126 234.613 292.598 232.528 293.533C230.458 294.461 228.709 295.66 227.342 297.094C225.975 298.52 224.917 300.11 224.203 301.82C223.485 303.53 223.122 305.243 223.122 306.918L223.145 307.558H255.789ZM239.921 275.587C245.818 275.587 251.061 276.641 255.498 278.711C259.932 280.78 263.724 283.69 266.768 287.366C269.815 291.045 272.149 295.522 273.699 300.662C275.257 305.826 276.048 311.567 276.048 317.735V320.912H223.103L223.122 321.568C223.229 325.761 225.089 329.479 228.648 332.607C232.184 335.723 237.095 337.303 243.251 337.303C249.232 337.303 254.177 336.398 257.943 334.616C261.337 333.01 263.85 331.626 265.584 330.415L274.218 343.788C273.397 344.329 272.313 345.084 270.927 346.084C269.277 347.272 267.104 348.453 264.469 349.595C261.834 350.737 258.645 351.768 254.987 352.662C251.34 353.547 247.128 353.995 242.457 353.995C236.229 353.995 230.546 353.018 225.574 351.094C220.609 349.173 216.336 346.467 212.876 343.048C209.416 339.629 206.751 335.451 204.944 330.633C203.131 325.796 202.21 320.387 202.21 314.553C202.21 309.455 203.077 304.472 204.788 299.742C206.495 295.02 208.985 290.834 212.189 287.308C215.385 283.785 219.368 280.918 224.023 278.791C228.675 276.664 234.025 275.587 239.921 275.587ZM314.606 338.731C316.466 338.731 318.318 338.429 320.117 337.827C321.915 337.221 323.527 336.359 324.909 335.255C326.288 334.147 327.433 332.744 328.319 331.081C329.213 329.398 329.66 327.424 329.66 325.212V318.616L329.148 318.539C328.598 318.428 327.563 318.294 326.082 318.133C324.585 317.972 322.855 317.891 320.945 317.891C314.411 317.891 309.893 318.811 307.117 320.705C304.303 322.625 302.878 325.373 302.878 328.869C302.878 335.416 306.823 338.731 314.606 338.731ZM315.717 304.851C318.295 304.851 320.976 304.909 323.691 305.012C326.326 305.116 328.121 305.273 328.923 305.472L329.637 305.652L329.66 303.26C329.66 301.24 329.232 299.5 328.38 298.082C327.548 296.683 326.418 295.495 325.028 294.54C323.645 293.601 322.049 292.927 320.288 292.536C318.555 292.156 316.695 291.964 314.766 291.964C309.641 291.964 305.326 292.62 301.939 293.915C298.826 295.104 296.111 296.453 293.862 297.925L285.208 284.969C286.648 283.938 288.271 282.895 290.043 281.864C292.014 280.718 294.377 279.668 297.07 278.737C299.758 277.801 302.844 277.031 306.235 276.456C309.626 275.881 313.563 275.586 317.932 275.586C328.992 275.586 337.259 278.595 342.491 284.517C347.754 290.466 350.415 298.592 350.415 308.665V352.178H330.309L329.515 343.435L328.541 344.677C326.089 347.551 322.942 349.794 319.196 351.338C315.435 352.891 311.173 353.677 306.525 353.677C303.955 353.677 301.209 353.309 298.364 352.584C295.542 351.864 292.892 350.637 290.49 348.943C288.095 347.256 286.079 344.945 284.502 342.078C282.925 339.222 282.127 335.585 282.127 331.257C282.127 327.029 282.982 323.223 284.666 319.938C286.362 316.645 288.722 313.859 291.693 311.647C294.675 309.424 298.257 307.722 302.34 306.576C306.437 305.434 310.94 304.851 315.717 304.851ZM392.95 327.843L393.34 327.839L410.761 277.515H434.243L402.394 352.179H382.303L350.924 277.515H374.883L392.95 327.843ZM441.693 352.125V277.514H463.239V352.125H441.693ZM472.721 343.601L483.207 329.956C485.617 332.029 488.737 333.785 492.483 335.195C496.493 336.698 500.434 337.457 504.196 337.457C507.648 337.457 510.547 337.016 512.819 336.146C515.301 335.199 516.561 333.336 516.561 330.615C516.561 329.553 516.29 328.557 515.759 327.667C515.217 326.759 514.281 325.958 512.899 325.203C511.608 324.505 509.791 323.765 507.484 323.01C505.154 322.251 502.237 321.393 498.807 320.454C496.004 319.725 493.182 318.748 490.425 317.544C487.695 316.356 485.239 314.865 483.131 313.106C481.038 311.369 479.335 309.238 478.06 306.785C476.792 304.343 476.15 301.445 476.15 298.168C476.15 294.803 476.925 291.725 478.445 289.023C479.977 286.305 482.134 283.909 484.846 281.905C487.569 279.892 490.86 278.321 494.63 277.232C498.41 276.14 502.535 275.588 506.892 275.588C513.136 275.588 518.669 276.301 523.344 277.707C527.808 279.049 531.997 281.019 535.808 283.56L526.823 297.605C524.505 296.141 521.854 294.795 518.937 293.603C515.759 292.304 512.128 291.644 508.16 291.644C504.521 291.644 501.92 292.173 500.213 293.258C498.437 294.385 497.536 295.93 497.536 297.85C497.536 300.579 499.334 302.603 502.875 303.864C506.144 305.029 510.638 306.371 516.229 307.854C523.684 309.936 529.156 312.818 532.49 316.417C535.797 319.997 537.473 324.827 537.473 330.776C537.473 334.766 536.572 338.243 534.796 341.095C533.005 343.969 530.569 346.388 527.548 348.289C524.512 350.206 521.003 351.651 517.119 352.582C513.224 353.521 509.195 353.997 505.147 353.997C498.59 353.997 492.308 353.096 486.476 351.321C480.901 349.619 476.276 347.028 472.721 343.601ZM452.469 246.54C458.415 246.54 463.253 251.396 463.253 257.364C463.253 263.332 458.415 268.185 452.469 268.185C446.523 268.185 441.688 263.332 441.688 257.364C441.688 251.396 446.523 246.54 452.469 246.54Z" fill="#686C6D"/>
</svg>
