<?xml version="1.0" encoding="iso-8859-1"?>
<svg version="1.1" xmlns="http://www.w3.org/2000/svg" xmlns:xlink="http://www.w3.org/1999/xlink" x="0px" y="0px"
	 viewBox="0 0 223.328 35.206" preserveAspectRatio="xMidYMid meet"
	 xml:space="preserve">
<g id="Layer_1_1_">
	<path fill="currentColor" d="M3.176,26.379c1.939,2.021,4.95,3.712,8.745,3.712c3.217,0,4.785-1.525,4.785-3.094
		c0-2.061-2.393-2.764-5.569-3.506C6.641,22.46,0.866,21.224,0.866,15.076c0-4.578,3.96-8.291,10.436-8.291
		c4.373,0,8.002,1.321,10.725,3.836l-3.259,4.29C16.541,12.85,13.571,11.9,10.89,11.9c-2.64,0-4.043,1.155-4.043,2.805
		c0,1.857,2.31,2.435,5.486,3.177c4.538,1.03,10.313,2.393,10.313,8.497c0,5.032-3.589,8.827-11.013,8.827
		c-5.281,0-9.076-1.772-11.633-4.372L3.176,26.379z"/>
	<polygon fill="currentColor" points="26.971,10.211 44.089,10.211 44.089,14.789 32.416,14.789 32.416,19.038 43.842,19.038
		43.842,23.658 32.416,23.658 32.416,28.278 44.089,28.278 44.089,32.898 26.971,32.898 	"/>
	<polygon fill="currentColor" points="55.474,14.954 49.039,14.954 49.039,10.211 67.395,10.211 67.395,14.954 60.919,14.954
		60.919,32.897 55.474,32.897 	"/>
	<path fill="currentColor" d="M81.239,25.061h-3.423v7.837h-5.445V10.211h11.467c5.032,0,7.961,3.301,7.961,7.385
		c0,4.166-2.64,6.475-5.239,6.97l5.445,8.332h-6.228L81.239,25.061z M83.137,14.789h-5.321v5.651h5.321
		c2.062,0,3.135-1.237,3.135-2.845C86.271,16.027,85.158,14.789,83.137,14.789"/>
	<rect x="96.491" y="10.211" fill="currentColor" width="5.445" height="22.687"/>
	<path fill="currentColor" d="M110.93,26.379c1.938,2.021,4.949,3.712,8.744,3.712c3.217,0,4.785-1.525,4.785-3.094
		c0-2.061-2.393-2.764-5.568-3.506c-4.498-1.031-10.271-2.268-10.271-8.415c0-4.578,3.96-8.291,10.435-8.291
		c4.373,0,8.002,1.321,10.727,3.836l-3.26,4.29c-2.229-2.062-5.197-3.011-7.879-3.011c-2.639,0-4.043,1.155-4.043,2.805
		c0,1.857,2.311,2.435,5.486,3.177c4.539,1.03,10.313,2.393,10.313,8.497c0,5.032-3.588,8.827-11.014,8.827
		c-5.279,0-9.074-1.772-11.631-4.372L110.93,26.379z"/>
	<polygon fill="currentColor" points="174.865,10.211 181.053,10.211 187.363,26.999 193.799,10.211 199.904,10.211
		190.705,32.898 184.064,32.898 	"/>
	<path fill="currentColor" d="M223.328,32.897h-5.98l-1.525-3.836h-10.023l-1.486,3.836h-6.023l9.199-22.686h6.643L223.328,32.897
		z M207.324,24.442h6.971l-3.506-9.363L207.324,24.442z"/>
	<polygon fill="currentColor" points="11.323,5.069 3.698,3.961 4.274,0 11.323,1.024 18.372,0 18.948,3.961 	"/>
	<path fill="currentColor" d="M167.91,12.483c2.102-0.974,4.008-2.291,5.648-3.883l-3.234-4.257
		c-2.756,2.912-6.654,4.729-10.98,4.729c-2.119,0-4.113,0.53-5.861,1.462c-1.748-0.932-3.742-1.462-5.861-1.462
		c-4.326,0-8.225-1.817-10.982-4.729l-3.232,4.257c1.641,1.592,3.547,2.909,5.648,3.883c-2.408,2.275-3.914,5.495-3.914,9.069
		c0,6.893,5.588,12.479,12.48,12.479c2.119,0,4.113-0.529,5.861-1.462c1.748,0.933,3.742,1.462,5.861,1.462
		c6.893,0,12.479-5.587,12.479-12.479C171.822,17.979,170.318,14.759,167.91,12.483 M159.344,28.738
		c-2.42,0-4.561-1.197-5.861-3.031c-1.303,1.834-3.441,3.031-5.861,3.031c-3.969,0-7.186-3.217-7.186-7.186
		c0-3.967,3.217-7.186,7.186-7.186c2.42,0,4.559,1.198,5.861,3.032c1.301-1.834,3.441-3.032,5.861-3.032
		c3.969,0,7.186,3.219,7.186,7.186C166.529,25.521,163.313,28.738,159.344,28.738"/>
	<path fill="currentColor" d="M147.621,18.527c-1.672,0-3.025,1.354-3.025,3.025s1.354,3.026,3.025,3.026
		c1.67,0,3.025-1.355,3.025-3.026S149.291,18.527,147.621,18.527"/>
	<path fill="currentColor" d="M159.344,18.527c-1.67,0-3.025,1.354-3.025,3.025s1.355,3.026,3.025,3.026
		c1.672,0,3.025-1.355,3.025-3.026S161.016,18.527,159.344,18.527"/>
</g>
</svg>
