<?xml version="1.0" encoding="UTF-8" standalone="no"?>
<!DOCTYPE svg PUBLIC "-//W3C//DTD SVG 1.1//EN" "http://www.w3.org/Graphics/SVG/1.1/DTD/svg11.dtd">
<svg width="100%" height="100%" viewBox="0 0 4125 1915" version="1.1" xmlns="http://www.w3.org/2000/svg" xmlns:xlink="http://www.w3.org/1999/xlink" xml:space="preserve" xmlns:serif="http://www.serif.com/" style="fill-rule:evenodd;clip-rule:evenodd;stroke-linejoin:round;stroke-miterlimit:2;">
    <g transform="matrix(39.0891,0,0,39.0891,-59463.4,-78672.6)">
        <g transform="matrix(0.216006,0,0,0.216006,108.301,1868.23)">
            <g transform="matrix(4.21259,0,0,4.21259,5954.74,492.792)">
                <g>
                    <g transform="matrix(1.65387,-1.20274e-18,-5.27088e-17,1.3422,-8259.44,-974.609)">
                        <path d="M5085.86,787.555L5088.38,787.397C5088.44,787.807 5088.55,788.119 5088.72,788.334C5088.99,788.682 5089.38,788.856 5089.89,788.856C5090.27,788.856 5090.56,788.767 5090.76,788.589C5090.97,788.411 5091.07,788.205 5091.07,787.971C5091.07,787.748 5090.97,787.549 5090.78,787.373C5090.58,787.197 5090.13,787.031 5089.42,786.875C5088.26,786.613 5087.43,786.266 5086.93,785.832C5086.43,785.399 5086.18,784.846 5086.18,784.174C5086.18,783.733 5086.31,783.316 5086.56,782.923C5086.82,782.53 5087.2,782.222 5087.72,781.997C5088.23,781.773 5089.61,781.66 5090.51,781.66C5091.61,781.66 5092.31,781.888 5092.89,782.297C5093.46,782.705 5093.63,783.33 5093.74,784.221L5090.87,784.367C5090.8,783.981 5090.66,783.699 5090.45,783.524C5090.23,783.348 5089.94,783.26 5089.57,783.26C5089.26,783.26 5089.02,783.325 5088.87,783.456C5088.71,783.587 5088.63,783.746 5088.63,783.934C5088.63,784.071 5088.7,784.194 5088.83,784.303C5088.95,784.416 5089.25,784.522 5089.72,784.619C5090.88,784.869 5091.71,785.122 5092.21,785.378C5092.71,785.634 5093.08,785.951 5093.31,786.33C5093.53,786.709 5093.65,787.133 5093.65,787.602C5093.65,788.153 5093.5,788.66 5093.19,789.125C5092.89,789.59 5092.46,789.943 5091.91,790.183C5091.37,790.423 5090.68,790.543 5089.85,790.543C5088.39,790.543 5087.37,790.262 5086.81,789.699C5086.25,789.137 5085.93,788.422 5085.86,787.555Z" style="fill:white;fill-rule:nonzero;"/>
                    </g>
                    <g transform="matrix(1.65387,-1.20274e-18,-5.27088e-17,1.3422,-8259.68,-974.609)">
                        <path d="M5093.65,781.807L5096.3,781.807L5096.3,785.053L5099.09,781.807L5102.61,781.807L5099.48,785.047L5102.75,790.397L5099.48,790.397L5097.67,786.863L5096.3,788.299L5096.3,790.397L5093.65,790.397L5093.65,781.807Z" style="fill:white;fill-rule:nonzero;"/>
                    </g>
                    <g transform="matrix(1.65387,-1.20274e-18,-5.27088e-17,1.3422,-8259.68,-974.609)">
                        <path d="M5107.57,788.979L5104.54,788.979L5104.13,790.397L5101.41,790.397L5104.64,781.807L5107.54,781.807L5110.77,790.397L5107.99,790.397L5107.57,788.979ZM5107.01,787.121L5106.06,784.033L5105.12,787.121L5107.01,787.121Z" style="fill:white;fill-rule:nonzero;"/>
                    </g>
                    <g transform="matrix(1.65387,-1.20274e-18,-5.27088e-17,1.3422,-8259.73,-974.609)">
                        <path d="M5110.3,790.397L5110.3,781.807L5114.72,781.807C5115.55,781.807 5116.17,781.877 5116.61,782.018C5117.04,782.158 5117.45,782.393 5117.72,782.774C5117.98,783.155 5118.16,783.645 5118.16,784.192C5118.16,784.668 5118.11,785.142 5117.91,785.487C5117.7,785.833 5117.54,785.939 5117.19,786.175C5116.97,786.323 5116.37,786.516 5115.98,786.606C5116.3,786.711 5116.53,786.817 5116.67,786.922C5116.77,786.992 5116.91,787.143 5117.1,787.373C5117.28,787.604 5117.4,787.781 5117.47,787.906L5118.75,790.397L5115.75,790.397L5114.33,787.772C5114.15,787.432 5113.99,787.211 5113.85,787.11C5113.66,786.977 5113.44,786.91 5113.2,786.91L5112.97,786.91L5112.97,790.397L5110.3,790.397ZM5112.97,785.287L5114.09,785.287C5114.21,785.287 5114.44,785.248 5114.79,785.17C5114.97,785.135 5115.11,785.045 5115.22,784.901C5115.33,784.756 5115.39,784.59 5115.39,784.403C5115.39,784.125 5115.3,783.912 5115.12,783.764C5114.95,783.615 5114.62,783.541 5114.13,783.541L5112.97,783.541L5112.97,785.287Z" style="fill:white;fill-rule:nonzero;"/>
                    </g>
                    <g transform="matrix(1.65387,-1.20274e-18,-5.27088e-17,1.3422,-8260.11,-974.609)">
                        <path d="M5118.24,781.807L5122.65,781.807C5123.61,781.807 5124.48,782.223 5124.96,782.68C5125.44,783.137 5125.5,783.538 5125.5,784.382C5125.5,785.249 5125.27,785.988 5124.74,786.477C5124.22,786.965 5123.43,787.209 5122.36,787.209L5120.9,787.209L5120.9,790.397L5118.24,790.397L5118.24,781.807ZM5120.9,785.469L5121.55,785.469C5122.07,785.469 5122.43,785.38 5122.63,785.202C5122.84,785.025 5122.94,784.797 5122.94,784.52C5122.94,784.25 5122.85,784.022 5122.67,783.834C5122.49,783.647 5122.16,783.553 5121.66,783.553L5120.9,783.553L5120.9,785.469Z" style="fill:white;fill-rule:nonzero;"/>
                    </g>
                    <g transform="matrix(1.65387,-1.20274e-18,-5.27088e-17,1.3422,-8260.42,-974.609)">
                        <path d="M5125.56,781.807L5132.28,781.833L5132.28,783.641L5128.22,783.641L5128.22,785.006L5131.87,785.006L5131.86,786.758L5128.22,786.758L5128.22,788.451L5132.8,788.451L5132.8,790.397L5125.56,790.397L5125.56,781.807Z" style="fill:white;fill-rule:nonzero;"/>
                    </g>
                    <g transform="matrix(1.65387,-1.20274e-18,-5.27088e-17,1.3422,-8260.66,-974.609)">
                        <path d="M5132.92,790.397L5132.92,781.807L5137.34,781.807C5138.16,781.807 5138.79,781.877 5139.22,782.018C5139.65,782.158 5140,782.419 5140.27,782.8C5140.54,783.181 5140.67,783.645 5140.67,784.192C5140.67,784.668 5140.57,785.079 5140.36,785.425C5140.16,785.771 5139.88,786.051 5139.53,786.266C5139.3,786.403 5138.99,786.516 5138.59,786.606C5138.91,786.711 5139.14,786.817 5139.29,786.922C5139.38,786.992 5139.53,787.143 5139.71,787.373C5139.9,787.604 5140.02,787.781 5140.08,787.906L5141.37,790.397L5138.37,790.397L5136.95,787.772C5136.77,787.432 5136.61,787.211 5136.47,787.11C5136.28,786.977 5136.06,786.91 5135.82,786.91L5135.58,786.91L5135.58,790.397L5132.92,790.397ZM5135.58,785.287L5136.7,785.287C5136.82,785.287 5137.06,785.248 5137.4,785.17C5137.58,785.135 5137.72,785.045 5137.84,784.901C5137.95,784.756 5138,784.59 5138,784.403C5138,784.125 5137.91,783.912 5137.74,783.764C5137.56,783.615 5137.23,783.541 5136.75,783.541L5135.58,783.541L5135.58,785.287Z" style="fill:white;fill-rule:nonzero;"/>
                    </g>
                    <g transform="matrix(0.851303,-6.19094e-19,-3.34311e-17,0.851303,-4153.28,-592.378)">
                        <path d="M5166.03,781.29C5166.48,781.29 5166.9,781.402 5167.32,781.627C5167.73,781.851 5168.05,782.173 5168.29,782.592C5168.53,783.011 5168.64,783.449 5168.64,783.907C5168.64,784.362 5168.53,784.797 5168.3,785.21C5168.07,785.623 5167.74,785.946 5167.33,786.177C5166.92,786.408 5166.48,786.524 5166.03,786.524C5165.57,786.524 5165.14,786.408 5164.72,786.177C5164.31,785.946 5163.99,785.623 5163.76,785.21C5163.53,784.797 5163.41,784.362 5163.41,783.907C5163.41,783.449 5163.53,783.011 5163.76,782.592C5164,782.173 5164.32,781.851 5164.73,781.627C5165.15,781.402 5165.58,781.29 5166.03,781.29ZM5166.03,781.803C5165.67,781.803 5165.32,781.893 5164.99,782.073C5164.66,782.252 5164.4,782.511 5164.21,782.848C5164.02,783.185 5163.93,783.538 5163.93,783.907C5163.93,784.274 5164.02,784.623 5164.21,784.956C5164.39,785.288 5164.65,785.548 5164.98,785.734C5165.32,785.921 5165.66,786.015 5166.03,786.015C5166.4,786.015 5166.74,785.921 5167.08,785.734C5167.41,785.548 5167.67,785.288 5167.85,784.956C5168.04,784.623 5168.13,784.274 5168.13,783.907C5168.13,783.538 5168.04,783.185 5167.85,782.848C5167.66,782.511 5167.4,782.252 5167.07,782.073C5166.73,781.893 5166.39,781.803 5166.03,781.803ZM5164.84,785.307L5164.84,782.53L5165.41,782.53C5165.94,782.53 5166.23,782.533 5166.3,782.537C5166.48,782.553 5166.63,782.59 5166.73,782.648C5166.84,782.706 5166.92,782.795 5166.99,782.915C5167.06,783.034 5167.1,783.167 5167.1,783.313C5167.1,783.513 5167.03,783.684 5166.9,783.827C5166.77,783.969 5166.58,784.057 5166.35,784.091C5166.43,784.123 5166.5,784.158 5166.54,784.196C5166.59,784.233 5166.65,784.304 5166.73,784.409C5166.75,784.436 5166.82,784.549 5166.94,784.747L5167.26,785.307L5166.57,785.307L5166.33,784.857C5166.18,784.554 5166.05,784.363 5165.94,784.284C5165.84,784.206 5165.71,784.167 5165.56,784.167L5165.41,784.167L5165.41,785.307L5164.84,785.307ZM5165.41,783.729L5165.64,783.729C5165.96,783.729 5166.16,783.717 5166.24,783.692C5166.32,783.667 5166.38,783.623 5166.43,783.56C5166.48,783.498 5166.5,783.426 5166.5,783.347C5166.5,783.269 5166.48,783.2 5166.43,783.14C5166.39,783.08 5166.32,783.036 5166.24,783.01C5166.16,782.984 5165.96,782.971 5165.64,782.971L5165.41,782.971L5165.41,783.729Z" style="fill:white;fill-rule:nonzero;"/>
                    </g>
                </g>
                <g transform="matrix(0.122705,-8.92348e-20,-4.81868e-18,0.122705,134.042,-63.4287)">
                    <path d="M495.679,1081.63C496.239,1082.07 497.637,1081.9 498.622,1081.91C499.716,1081.93 501.178,1081.81 502.24,1081.73C503.161,1081.66 504.146,1081.62 504.996,1081.43C505.806,1081.26 506.834,1081.01 507.34,1080.6C507.8,1080.23 507.967,1079.56 508.035,1078.97C508.22,1077.36 508.267,1073.32 508.449,1070.98C508.606,1068.95 508.761,1066.92 509.127,1064.92C509.496,1062.9 510.19,1060.9 510.666,1058.88C511.151,1056.81 511.695,1054.65 512.04,1052.51C512.422,1050.14 512.656,1046.82 512.957,1044.67C513.195,1042.98 513.371,1040.84 513.851,1039.63C514.217,1038.7 514.903,1037.75 515.836,1037.4C516.807,1037.04 518.396,1037.46 519.677,1037.47C520.989,1037.48 522.364,1037.52 523.707,1037.47C525.821,1037.39 529.864,1037.27 532.365,1036.99C534.506,1036.74 536.604,1036.2 538.711,1035.74C540.908,1035.26 543.295,1034.37 545.547,1034.12C547.759,1033.88 549.998,1034.17 552.222,1034.25C554.656,1034.33 557.558,1034.83 560.151,1034.61C562.745,1034.39 565.48,1033.31 567.783,1032.95C569.828,1032.62 572.079,1031.98 573.971,1032.42C575.863,1032.86 577.752,1034.17 579.137,1035.58C580.522,1036.99 581.418,1039.31 582.282,1040.88C583.021,1042.23 583.724,1043.6 584.321,1045.01C584.958,1046.52 585.398,1048.47 586.106,1049.94C586.773,1051.33 587.754,1052.54 588.568,1053.85C589.589,1055.49 591.306,1057.85 592.229,1059.76C593.078,1061.52 593.792,1063.5 594.104,1065.31C594.405,1067.05 594.402,1068.87 594.104,1070.62C593.805,1072.37 592.724,1074.69 592.309,1075.82C592.112,1076.35 591.618,1076.99 591.615,1077.38C591.612,1077.73 591.915,1078.15 592.291,1078.19C592.697,1078.25 593.475,1077.94 594.065,1078.01C594.746,1078.09 595.594,1078.48 596.373,1078.66C597.166,1078.84 598.161,1079.51 598.825,1079.1C599.488,1078.68 599.935,1077.2 600.355,1076.19C600.943,1074.78 601.782,1072.19 602.347,1070.62C602.809,1069.34 603.259,1068.05 603.745,1066.77C604.347,1065.19 605.328,1062.82 605.958,1061.14C606.508,1059.68 607.082,1057.77 607.523,1056.72C607.802,1056.06 608.226,1055.18 608.606,1054.86C608.912,1054.6 609.465,1054.58 609.806,1054.79C610.403,1055.16 611.516,1056.2 612.188,1057.07C613.059,1058.2 614.261,1060.1 615.028,1061.54C615.738,1062.88 616.241,1064.37 616.789,1065.73C617.319,1067.05 617.915,1068.51 618.316,1069.7C618.667,1070.74 619.081,1071.89 619.196,1072.88C619.301,1073.78 619.284,1074.86 619.002,1075.6C618.73,1076.32 618.073,1076.83 617.501,1077.34C616.765,1077.99 615.175,1078.95 614.581,1079.53C614.238,1079.86 613.74,1080.51 613.941,1080.81C614.141,1081.11 615.154,1081.24 615.786,1081.33C616.689,1081.45 618.207,1081.5 619.361,1081.57C620.477,1081.65 621.903,1081.81 622.71,1081.78C623.221,1081.76 623.893,1081.77 624.2,1081.41C624.506,1081.06 624.529,1080.25 624.549,1079.65C624.585,1078.57 624.377,1076.46 624.417,1074.95C624.455,1073.48 624.688,1072.02 624.785,1070.55C624.888,1068.99 624.948,1067.26 625.035,1065.61C625.131,1063.79 625.463,1061.4 625.362,1059.61C625.271,1057.99 624.98,1056.36 624.431,1054.83C623.824,1053.14 622.866,1051.1 621.717,1049.46C620.278,1047.39 617.383,1044.42 615.793,1042.45C614.537,1040.9 613.056,1039.28 612.175,1037.69C611.357,1036.21 610.598,1034.59 610.507,1032.91C610.408,1031.06 611.061,1028.66 611.579,1026.59C612.183,1024.17 613.351,1021 614.135,1018.39C614.881,1015.9 615.737,1013.18 616.285,1010.91C616.773,1008.89 617.142,1006.16 617.423,1004.78C617.572,1004.05 617.78,1003.16 617.971,1002.61C618.11,1002.22 618.311,1001.61 618.572,1001.51C618.833,1001.42 619.287,1001.78 619.537,1002.05C619.829,1002.36 620.003,1003 620.329,1003.41C620.661,1003.83 621.108,1004.65 621.526,1004.57C621.945,1004.48 622.605,1003.57 622.84,1002.9C623.149,1002.03 623.61,1000.51 623.38,999.324C623.113,997.944 621.86,995.731 621.233,994.621C620.817,993.884 620.301,993.161 619.617,992.662C618.677,991.977 616.907,991.273 615.59,990.511C614.257,989.739 612.941,988.868 611.625,988.034C610.047,987.033 608.015,985.585 606.121,984.506C603.901,983.24 601.031,981.526 598.301,980.439C595.388,979.28 591.088,978.124 588.644,977.548C587.008,977.163 585.31,977.112 583.635,976.984C581.342,976.809 577.808,976.588 574.89,976.499C570.89,976.378 564.72,976.274 559.634,976.257C554.468,976.241 548.315,976.385 543.895,976.399C540.302,976.41 535.425,976.437 533.116,976.34C532.077,976.296 531.052,976.053 530.04,975.816C528.393,975.43 525.255,974.523 523.236,974.022C521.474,973.586 519.719,973.096 517.926,972.816C515.755,972.477 512.79,972.151 510.208,971.989C507.498,971.82 504.309,971.968 501.666,971.799C499.217,971.642 496.639,971.86 494.351,970.972C491.826,969.993 488.695,967.798 486.514,965.922C484.461,964.155 482.615,961.387 481.268,959.715C480.273,958.479 479.041,957.135 478.434,955.891C477.889,954.774 477.482,953.17 477.628,952.251C477.76,951.422 478.599,950.823 479.311,950.379C480.026,949.934 481.09,949.959 481.916,949.582C482.958,949.106 484.439,948.357 485.559,947.526C486.726,946.661 488.085,945.346 488.922,944.387C489.6,943.61 490.172,942.721 490.577,941.773C491.047,940.669 491.57,938.682 491.745,937.767C491.839,937.28 492.08,936.486 491.627,936.283C491.172,936.08 489.862,936.32 489.017,936.545C487.773,936.878 485.583,937.748 484.163,938.279C482.931,938.739 481.294,939.588 480.495,939.729C480.076,939.804 479.52,939.472 479.369,939.127C479.219,938.782 479.257,938.022 479.593,937.659C480.314,936.879 482.297,935.431 483.693,934.449C485.069,933.48 486.787,932.642 487.971,931.765C488.994,931.006 489.899,930.095 490.792,929.186C492.033,927.924 494.074,925.466 495.419,924.191C496.471,923.193 497.575,922.199 498.863,921.533C500.377,920.751 502.64,920.123 504.505,919.498C506.342,918.883 508.314,918.548 510.057,917.785C511.793,917.026 513.436,915.987 514.966,914.923C516.482,913.871 518.157,912.776 519.239,911.404C520.313,910.042 521.116,908.019 521.455,906.696C521.723,905.651 521.405,904.183 521.274,903.464C521.2,903.057 520.949,902.391 520.672,902.381C520.395,902.37 519.898,903.003 519.611,903.401C518.871,904.43 517.304,907.264 516.231,908.555C515.376,909.584 514.042,910.476 513.17,911.15C512.482,911.681 511.677,912.289 511.001,912.598C510.415,912.865 509.749,912.913 509.111,913.001C508.263,913.119 506.331,913.652 505.912,913.303C505.493,912.955 506.216,911.646 506.597,910.908C507.152,909.835 508.466,908.221 509.237,906.869C509.985,905.558 510.67,904.204 511.223,902.799C511.819,901.284 511.947,899.284 512.817,897.777C513.687,896.27 515.353,894.964 516.444,893.757C517.416,892.681 518.512,891.646 519.364,890.535C520.192,889.455 521.212,888.36 521.558,887.091C521.903,885.822 521.69,884.157 521.437,882.92C521.201,881.765 520.541,880.496 520.04,879.669C519.635,879.001 518.795,877.769 518.433,877.961C518.071,878.153 517.976,879.856 517.869,880.823C517.725,882.126 517.79,884.634 517.569,885.778C517.432,886.487 516.997,887.124 516.543,887.685C516.022,888.33 514.936,890.003 514.437,889.648C513.939,889.293 513.614,886.951 513.551,885.557C513.408,882.435 513.749,875.21 513.584,870.917C513.441,867.197 512.82,861.811 512.558,859.798C512.511,859.432 512.227,858.535 512.012,858.835C511.706,859.263 511.025,861.147 510.722,862.362C510.346,863.87 510.061,866.906 509.755,867.883C509.662,868.18 509.074,868.474 508.886,868.226C508.241,867.377 506.677,864.08 505.886,862.79C505.382,861.969 504.88,861.103 504.138,860.488C503.213,859.721 500.887,857.953 500.336,858.191C499.786,858.428 500.597,860.683 500.835,861.911C501.1,863.274 501.917,865.535 501.923,866.367C501.927,866.76 501.268,866.922 500.875,866.906C499.736,866.862 496.902,866.804 495.085,866.1C492.318,865.027 486.395,861.389 484.271,860.469C483.68,860.213 481.907,860.105 482.341,860.581C483.278,861.607 487.354,864.837 489.891,866.626C492.34,868.354 495.468,869.766 497.564,871.317C499.367,872.651 501.94,874.688 502.466,875.929C502.899,876.951 501.807,878.551 500.718,878.763C498.929,879.111 494.707,878.446 491.733,878.017C488.658,877.574 483.472,875.79 482.271,876.103C481.07,876.416 483.277,879.118 484.526,879.894C486.442,881.085 491.599,882.23 493.77,883.249C495.184,883.913 496.423,884.935 497.556,886.01C498.729,887.123 499.719,888.929 500.806,889.926C501.757,890.799 503.369,890.917 504.079,891.995C504.917,893.266 505.884,895.613 505.832,897.556C505.765,900.047 504.616,904.517 503.68,906.936C502.935,908.86 501.285,910.789 500.214,912.067C499.379,913.062 498.181,914.052 497.254,914.601C496.477,915.062 495.269,915.823 494.654,915.365C494.04,914.906 494.035,912.887 493.569,911.848C493.131,910.872 492.486,909.998 491.858,909.132C491.194,908.217 490.038,906.46 489.586,906.356C489.134,906.252 489.161,907.777 489.145,908.51C489.125,909.389 489.402,910.587 489.468,911.631C489.541,912.802 489.734,914.241 489.588,915.535C489.421,917.024 489.252,919.19 488.465,920.564C487.678,921.937 485.91,923.036 484.865,923.777C484.066,924.344 482.939,924.778 482.195,925.009C481.622,925.186 480.727,925.646 480.401,925.162C480.076,924.678 480.371,923.117 480.24,922.104C480.056,920.676 479.564,918.033 479.296,916.59C479.1,915.537 479.216,914.343 478.631,913.446C477.991,912.467 475.925,910.226 475.456,910.711C474.988,911.195 475.685,914.577 475.819,916.353C475.945,918.026 476.14,919.914 476.26,921.366C476.362,922.599 476.715,923.842 476.542,925.067C476.301,926.775 475.948,929.735 474.816,931.619C473.683,933.502 471.401,935.267 469.747,936.367C468.306,937.326 466.557,938.703 464.896,938.219C462.431,937.501 456.986,934.505 454.961,932.058C453.09,929.798 453.06,926.457 452.747,923.539C452.405,920.361 453.279,914.632 452.91,912.987C452.73,912.183 450.97,912.972 450.535,913.672C449.901,914.692 449.583,917.431 449.106,919.106C448.666,920.655 448.29,922.871 447.676,923.721C447.225,924.343 446.098,924.569 445.421,924.204C444.015,923.446 440.518,920.789 439.236,919.172C438.22,917.89 437.85,916.133 437.727,914.502C437.603,912.857 438.291,910.512 438.493,909.305C438.608,908.616 439.282,907.373 438.936,907.257C438.59,907.141 437.014,907.865 436.417,908.607C435.675,909.529 434.941,911.908 434.485,912.791C434.276,913.198 434.134,913.821 433.684,913.905C433.212,913.993 432.199,913.766 431.656,913.318C430.841,912.647 429.59,911.139 428.796,909.876C427.675,908.093 425.719,904.609 424.927,902.616C424.339,901.137 424.103,899.108 424.043,897.924C424.001,897.101 424.132,896.209 424.567,895.51C425.686,893.711 428.846,889.324 430.756,887.126C432.316,885.331 434.676,883.354 436.027,882.318C436.865,881.676 437.851,881.211 438.862,880.909C440.186,880.514 442.628,880.558 443.969,879.945C445.181,879.391 448.182,877.624 446.908,877.234C445.622,876.84 439.083,877.426 436.255,877.581C434.145,877.697 431.376,878.263 429.942,878.166C429.086,878.108 427.789,877.783 427.65,876.997C427.51,876.211 428.167,874.319 429.103,873.45C430.182,872.449 432.895,871.7 434.121,870.992C434.971,870.5 435.68,869.796 436.459,869.198C438.863,867.354 446.697,861.644 448.547,859.926C448.896,859.602 447.999,858.713 447.558,858.894C444.74,860.048 434.88,865.68 431.639,866.853C430.496,867.267 428.624,866.842 428.11,865.934C427.595,865.026 428.097,862.787 428.553,861.404C429.009,860.022 431.07,858.02 430.848,857.641C430.626,857.262 428.243,858.361 427.223,859.13C426.203,859.899 425.499,861.216 424.727,862.253C423.977,863.26 423.189,864.675 422.588,865.352C422.201,865.789 421.542,866.371 421.125,866.317C420.707,866.262 420.201,865.567 420.082,865.027C419.817,863.829 419.979,860.319 419.537,859.127C419.253,858.361 417.766,857.134 417.429,857.878C416.916,859.009 416.618,863.22 416.461,865.914C416.269,869.217 416.365,874.574 416.274,877.699C416.205,880.023 416.062,883.044 415.911,884.664C415.824,885.595 415.624,886.901 415.367,887.417C415.21,887.732 414.659,887.959 414.369,887.76C413.804,887.374 412.347,886.234 411.978,885.1C411.563,883.825 411.86,881.546 411.877,880.107C411.892,878.891 412.558,876.534 412.081,876.465C411.605,876.395 409.694,878.542 409.018,879.689C408.377,880.778 408.14,882.126 408.029,883.349C407.917,884.573 408.081,885.828 408.351,887.03C408.643,888.33 409.211,889.814 409.783,891.151C410.608,893.085 411.856,896.288 413.307,898.632C414.849,901.125 417.208,903.56 419.04,906.111C420.926,908.739 423.796,912.88 424.624,914.397C424.787,914.697 424.345,915.194 424.004,915.213C423.378,915.249 421.867,914.98 420.87,914.609C419.697,914.172 418.035,913.594 416.965,912.594C414.855,910.619 409.758,904.297 408.209,902.765C408.012,902.57 407.579,903.137 407.671,903.397C408.226,904.958 410.475,910.135 411.539,912.13C412.182,913.336 412.995,914.505 414.055,915.367C415.429,916.485 417.754,917.903 419.782,918.835C422.005,919.856 425.265,920.605 427.397,921.495C429.189,922.243 430.96,923.088 432.571,924.172C434.542,925.499 437.078,927.863 439.225,929.456C441.247,930.956 443.498,932.365 445.452,933.728C447.296,935.015 449.86,936.611 450.951,937.638C451.553,938.204 452.824,939.833 451.999,939.887C450.995,939.953 446.656,938.587 444.928,938.033C443.783,937.666 442.788,936.897 441.633,936.562C440.351,936.191 437.89,935.454 437.234,935.803C436.578,936.152 437.372,937.748 437.697,938.655C438.11,939.805 438.851,941.466 439.71,942.705C440.609,944.001 441.878,945.534 443.089,946.429C444.221,947.266 445.769,947.598 446.976,948.079C448.082,948.521 449.464,948.498 450.327,949.318C451.281,950.226 452.346,951.955 452.702,953.525C453.192,955.686 453.01,959.373 453.266,962.281C453.523,965.185 453.943,968.073 454.242,970.973C454.672,975.144 454.866,982.495 455.845,987.309C456.726,991.64 458.108,996.533 460.12,999.86C461.974,1002.93 465.905,1005.12 467.914,1007.27C469.493,1008.95 471.219,1010.67 472.176,1012.73C473.132,1014.8 472.722,1017.49 473.653,1019.67C474.743,1022.21 476.586,1025.54 478.716,1027.99C481.022,1030.64 485.424,1033.65 487.493,1035.6C488.823,1036.86 490.59,1037.96 491.13,1039.71C491.931,1042.31 491.922,1047.52 492.305,1051.19C492.671,1054.69 493.027,1058.33 493.427,1061.71C493.813,1064.96 494.401,1068.95 494.709,1071.46C494.926,1073.22 495.184,1075.45 495.275,1076.76C495.334,1077.6 495.191,1078.49 495.258,1079.3C495.324,1080.09 495.118,1081.19 495.679,1081.63Z" style="fill:rgb(188,17,47);"/>
                </g>
            </g>
        </g>
        <g transform="matrix(0.0434781,0.000123245,-0.000123245,0.0434781,-664.905,-672.47)">
            <g>
                <path d="M52397.5,62585.5C52380.4,62585.5 52364.4,62590.1 52349.4,62599.5C52337.9,62606.4 52326.9,62616.4 52316.7,62629.6C52305.6,62645.5 52300,62658.5 52300,62668.8C52300.1,62670.8 52300.5,62672.6 52300.8,62674.5C52303,62681.2 52306.8,62684.5 52311.9,62684.5L52312.2,62684.5C52318.8,62684.5 52326.9,62679.8 52336.6,62670.4C52345.6,62661.6 52351.6,62655.3 52354.4,62651.7C52361.3,62653.5 52368.6,62654.4 52375.9,62654.4C52392.1,62654.4 52406.9,62651 52420.1,62644.2C52436.2,62635 52444.3,62624.5 52444.3,62612.6C52444.3,62606.5 52441.9,62601.2 52437.1,62596.7C52427.1,62589.2 52413.9,62585.5 52397.5,62585.5ZM52311.3,62671.7C52311.3,62669.1 52312.6,62664.2 52315.2,62656.7C52318.6,62648.5 52322.5,62641.3 52326.9,62635.1C52329.2,62631.4 52334,62625.8 52341.2,62618.5C52358.7,62602 52378.1,62593.8 52399.1,62593.8C52400.4,62593.8 52402.2,62593.9 52404.2,62594C52422.9,62596 52432.3,62601.4 52432.3,62610C52432.1,62610 52432.1,62610.1 52432.1,62610.2L52432.1,62610.9C52432.1,62614.2 52429.4,62618.7 52424.2,62624.5C52418.8,62629.3 52413.6,62633 52408.5,62635.6C52395.5,62642.3 52382.8,62645.6 52370.6,62645.6L52369.2,62645.6C52366.9,62645.6 52364.1,62645.4 52360.8,62644.9L52360.8,62644.7C52368.8,62635 52376.4,62626 52383.8,62617.9C52391,62610.1 52396,62605.7 52398.8,62604.6C52402.4,62603.8 52404.2,62602.3 52404.2,62600.4L52404.2,62600C52404.2,62597.9 52402.6,62596.4 52399.4,62595.8C52395.4,62596.4 52392.5,62597.4 52390.9,62598.8C52387.5,62599.8 52381.7,62604.4 52373.5,62612.5C52362.6,62623.9 52354.3,62633.5 52348.6,62641.5C52346.5,62641 52343.6,62639.6 52339.8,62637.5C52335.3,62634.6 52332.5,62633.2 52331.5,62633.2L52331.2,62633.2C52328.4,62633.9 52326.9,62635.2 52326.9,62637.3L52326.9,62637.6C52326.9,62639 52328.3,62640.7 52330.9,62642.4C52338.8,62646 52342.9,62648 52343.4,62648.3C52330.8,62665.6 52320.6,62674.7 52313,62675.7C52312.1,62675.6 52311.5,62674.3 52311.3,62671.7Z" style="fill:white;fill-rule:nonzero;"/>
                <path d="M52432.2,62641.3C52430.5,62641.3 52428.4,62641.9 52425.9,62643.1C52419.4,62647.5 52416.1,62651.2 52416.1,62654.5C52416.1,62655.1 52416.2,62655.8 52416.4,62656.4C52414.8,62657.6 52414,62658.3 52414,62658.4C52410.2,62660.8 52408.3,62662.8 52408.3,62664.2L52408.3,62665C52408.3,62666.9 52409.7,62668.3 52412.6,62668.9C52413.8,62668.9 52415.1,62668.4 52416.3,62667.5C52421.1,62663.2 52423.8,62661 52424.5,62661L52425.7,62661C52416.7,62667.9 52412.1,62674 52412.1,62678.9C52412.1,62679.4 52412.2,62680 52412.4,62680.6C52413.3,62684.8 52415.6,62686.9 52419.2,62686.9L52419.8,62686.9C52427.2,62686.9 52437.3,62681.7 52450.2,62671.4C52455.2,62667.9 52457.6,62665.4 52457.6,62663.9C52457.6,62661.2 52456,62659.7 52452.8,62659.4C52450.7,62660 52449.6,62660.6 52449.6,62661C52436.9,62671.3 52428,62677.1 52423.2,62678.5L52423.1,62678.5C52423.7,62677.6 52425.1,62676.4 52426.9,62674.9C52437.4,62668.5 52442.7,62663.1 52442.7,62659L52442.7,62658C52442.7,62657.5 52442.5,62657 52442.2,62656.5C52440.8,62653.5 52438.4,62651.9 52435,62651.9C52437.2,62649.4 52438.3,62647.3 52438.3,62645.7L52438.3,62645.6C52438.3,62643.1 52436.2,62641.7 52432.2,62641.3Z" style="fill:white;fill-rule:nonzero;"/>
                <path d="M52471.1,62649.6C52465.5,62649.6 52458.6,62652.9 52450.7,62659.3C52442.9,62666.4 52439,62672.3 52439,62677.3L52439,62678.9C52439,62680.5 52439.5,62682.1 52440.7,62683.6C52443.4,62686.1 52446.6,62687.4 52450.1,62687.4C52455.8,62687.4 52462.9,62683.4 52471.7,62675.4C52473.9,62675.7 52475.3,62675.9 52476,62675.9C52478.2,62675.9 52480.7,62675.4 52483.3,62674.5C52490.4,62671.4 52494,62668.4 52494,62665.2L52494,62664.4C52494,62662.7 52492.8,62661.6 52490.4,62661.1L52490.1,62661.1C52489.8,62661.1 52489.2,62661.2 52488.4,62661.5C52484.5,62664.5 52481.7,62666.3 52480.1,62666.8L52479.9,62666.8C52483.3,62662.6 52485.1,62659.1 52485.1,62656.3C52485.1,62656 52484.9,62655.3 52484.7,62654.4C52483.5,62651.7 52481.4,62650.4 52478.5,62650.4L52477.3,62650.4L52475.4,62650.6C52474.3,62650 52472.9,62649.6 52471.1,62649.6ZM52451.5,62678.3C52451.5,62676.5 52453.3,62673.5 52456.8,62669.2C52461,62665.1 52463.4,62662.9 52463.9,62662.7C52463.6,62664.2 52463.5,62665.2 52463.5,62665.5C52463.5,62667.3 52463.9,62668.9 52464.8,62670.3L52464.8,62670.6C52459.2,62675.7 52454.8,62678.3 52451.5,62678.3Z" style="fill:white;fill-rule:nonzero;"/>
                <path d="M52538.8,62616.2C52531,62616.2 52522.3,62621.4 52512.5,62631.6C52510.7,62632.8 52504.5,62639.9 52494.2,62652.7C52482.1,62669 52471.4,62684.7 52462.3,62699.6C52454.9,62711.2 52451.3,62720.2 52451.3,62726.7L52451.3,62727.9L52451.4,62728.3C52451.5,62728.8 52451.7,62729.5 52451.9,62730.2C52453.6,62734 52456.5,62735.8 52460.3,62735.8L52461.7,62735.8C52463.7,62735.8 52465.8,62735 52468,62733.6C52472.8,62731.1 52477.6,62726.2 52482.4,62718.8C52490.4,62704.9 52494.7,62693.9 52495.3,62685.9L52495.2,62685.7C52498.4,62687 52501.5,62687.6 52504.7,62687.6C52506.7,62687.6 52508.9,62687.3 52511.1,62686.8C52520.6,62682.4 52525.3,62678.8 52525.3,62675.9L52525.3,62675.6L52525.2,62675.4C52524.9,62673.2 52523.3,62671.8 52520.3,62671.1C52519.4,62671.1 52518.3,62671.4 52516.9,62672.2C52512.4,62676.9 52507.5,62679.3 52502.2,62679.3C52499.3,62679.3 52496.7,62677.8 52494.2,62674.8C52494.2,62674.6 52495.3,62673.7 52497.6,62672C52515.4,62658.8 52527.9,62649.1 52535.2,62642.7C52544.4,62635.1 52549.1,62629 52549.1,62624.6C52549.1,62624.2 52549,62623.9 52549,62623.6C52548.9,62623 52548.7,62622.4 52548.4,62621.7C52546.6,62618.1 52543.6,62616.2 52539.6,62616.2L52538.8,62616.2ZM52514.7,62648.4C52522.7,62638.9 52527.6,62633.2 52529.4,62631.4C52532.9,62627.7 52536.2,62625.6 52539.4,62624.8L52539.4,62625C52539.4,62625.2 52538.8,62626 52537.8,62627.4C52529.1,62636.9 52521.4,62644 52514.9,62648.4L52514.7,62648.4ZM52460.3,62727.6L52460.3,62727.4C52460.3,62726.1 52461.6,62722.8 52464.2,62717.6C52467,62711.2 52474.4,62700.1 52486.4,62684.5C52485.1,62689.6 52481.9,62697.2 52477,62707.1C52469.2,62720.3 52463.7,62727.1 52460.5,62727.6L52460.3,62727.6Z" style="fill:white;fill-rule:nonzero;"/>
                <path d="M52548.2,62644.3C52545.5,62644.3 52541.2,62645.6 52535.5,62648.1C52519.3,62657.7 52511.1,62666.7 52511.1,62675.2L52511.1,62675.5C52511.1,62676.4 52511.3,62677.5 52511.7,62678.7C52514.2,62683.4 52518.4,62685.7 52524.4,62685.7L52524.7,62685.7C52531.7,62685.7 52539.8,62682.9 52549.1,62677.5C52561,62670.4 52567.1,62665.5 52567.1,62662.9L52567.1,62662.5C52566.4,62659.9 52565.1,62658.6 52563.3,62658.6L52562.1,62658.6C52560.9,62658.6 52559.7,62659.2 52558.5,62660.4C52544.4,62671.5 52534.1,62677.1 52527.5,62677.1C52525.3,62677.1 52524,62676.5 52523.8,62675.2L52523.8,62674C52523.8,62673.6 52526.3,62672.6 52531.3,62670.9C52549,62662.8 52557.9,62656 52557.9,62650.5C52557.9,62647 52554.6,62644.9 52548.2,62644.3ZM52535.4,62660C52539,62656.9 52541.9,62655 52544,62654.4L52544.1,62654.4C52540.7,62657.1 52537.8,62659 52535.5,62660L52535.4,62660Z" style="fill:white;fill-rule:nonzero;"/>
                <path d="M52581.4,62639.8C52580.6,62639.8 52579.5,62639.9 52578.1,62640.2C52573.1,62641.9 52570.6,62645.3 52570.6,62650.3C52570.6,62650.5 52568.7,62652.2 52564.9,62655.3C52559.4,62659.2 52556.7,62661.8 52556.7,62663.3L52556.7,62663.5C52556.7,62665.6 52558.3,62666.9 52561.5,62667.4C52563.1,62667.3 52564.1,62667.1 52564.3,62666.7C52564.8,62666.7 52567.6,62664.4 52573.1,62659.7C52573.3,62660.8 52573.4,62661.8 52573.4,62662.8C52573.4,62665 52572.5,62667.3 52570.6,62669.6C52566.4,62669.1 52563.9,62668.8 52563.3,62668.8C52562.4,62668.8 52560.9,62669 52558.8,62669.4C52552.4,62671.5 52549.2,62674.6 52549.2,62678.4C52549.2,62679 52549.3,62679.6 52549.5,62680.6C52551.2,62684.2 52554.4,62686.1 52559.2,62686.1L52561.1,62686.1C52563.2,62686.1 52565.9,62685.7 52569,62684.7C52572.6,62683.6 52576.1,62681.4 52579.5,62678.1C52580.6,62677.9 52582.6,62677.3 52585.3,62676.5C52597.7,62670.1 52603.8,62665.2 52603.8,62661.9L52603.8,62661.6C52603.8,62659.7 52602.6,62658.6 52600.1,62658.2L52598.9,62658.2C52597.8,62658.2 52596.3,62658.8 52594.3,62660.3C52590.7,62663.4 52587.8,62665.7 52585.3,62667.1L52585.3,62665.3C52585.3,62662.3 52583.8,62658.4 52580.7,62653.1C52585.1,62649.6 52587.3,62646.9 52587.3,62644.9L52587.3,62644.1C52587.3,62641.7 52585.3,62640.2 52581.4,62639.8Z" style="fill:white;fill-rule:nonzero;"/>
                <path d="M52617.6,62639.8C52616.9,62639.8 52615.8,62639.9 52614.4,62640.2C52609.3,62641.9 52606.8,62645.3 52606.8,62650.3C52606.8,62650.5 52604.9,62652.2 52601.1,62655.3C52595.6,62659.2 52592.9,62661.8 52592.9,62663.3L52592.9,62663.5C52592.9,62665.6 52594.5,62666.9 52597.7,62667.4C52599.4,62667.3 52600.3,62667.1 52600.6,62666.7C52601,62666.7 52603.8,62664.4 52609.3,62659.7C52609.5,62660.8 52609.7,62661.8 52609.7,62662.8C52609.7,62665 52608.8,62667.3 52606.8,62669.6C52602.6,62669.1 52600.1,62668.8 52599.6,62668.8C52598.6,62668.8 52597.2,62669 52595.1,62669.4C52588.6,62671.5 52585.5,62674.6 52585.5,62678.4C52585.5,62679 52585.6,62679.6 52585.8,62680.6C52587.4,62684.2 52590.6,62686.1 52595.4,62686.1L52597.4,62686.1C52599.5,62686.1 52602.1,62685.7 52605.3,62684.7C52608.9,62683.6 52612.4,62681.4 52615.8,62678.1C52616.9,62677.9 52618.9,62677.3 52621.6,62676.5C52634,62670.1 52640.1,62665.2 52640.1,62661.9L52640.1,62661.6C52640.1,62659.7 52638.9,62658.6 52636.4,62658.2L52635.2,62658.2C52634.1,62658.2 52632.5,62658.8 52630.6,62660.3C52627,62663.4 52624,62665.7 52621.6,62667.1L52621.6,62665.3C52621.6,62662.3 52620.1,62658.4 52617,62653.1C52621.4,62649.6 52623.6,62646.9 52623.6,62644.9L52623.6,62644.1C52623.6,62641.7 52621.6,62640.2 52617.6,62639.8Z" style="fill:white;fill-rule:nonzero;"/>
                <path d="M52667,62628.8C52666.2,62628.8 52664.7,62629.2 52662.8,62629.6C52658.3,62632.2 52656.1,62635.1 52656.1,62638.1L52656.1,62638.5C52656.1,62642 52658.2,62644 52662.2,62644.4C52662.4,62644.4 52663.5,62644.2 52665.3,62643.8C52670.3,62641.2 52672.7,62638.5 52672.7,62635.5C52672.7,62635 52672.7,62634.3 52672.6,62633.5C52671.5,62630.5 52669.7,62628.8 52667,62628.8ZM52649.9,62648.8C52648.3,62648.8 52646.6,62649.2 52644.6,62650.2C52634.2,62656.9 52628.9,62661.6 52628.9,62664.4C52629.1,62665.4 52629.4,62666.1 52629.7,62666.6C52626.7,62670.6 52625.2,62673.8 52625.2,62676.4L52625.2,62676.7L52625.4,62678.9C52627.1,62683.5 52630.1,62685.8 52634.5,62685.8L52636.4,62685.8C52638.8,62685.8 52641.7,62685.1 52645.1,62683.7C52652,62680.4 52658.7,62676.2 52665.3,62671C52669.5,62667.9 52671.7,62665.5 52671.7,62663.9C52671.7,62661.8 52670.3,62660.4 52667.5,62659.6C52665.6,62659.6 52663.3,62661.1 52660.5,62664.1C52648.6,62672.9 52640.7,62677.2 52636.8,62677.2L52636.6,62677.2C52636.6,62675.7 52641,62671.1 52649.6,62663.2C52654.8,62659.4 52657.3,62656.7 52657.3,62654.8L52657.3,62653.4C52655.5,62650.3 52653.2,62648.8 52650.3,62648.8L52649.9,62648.8Z" style="fill:white;fill-rule:nonzero;"/>
                <path d="M52686.4,62649.6C52680.7,62649.6 52673.8,62652.9 52665.9,62659.3C52658.2,62666.4 52654.2,62672.3 52654.2,62677.3L52654.2,62678.9C52654.2,62680.5 52654.8,62682.1 52656,62683.6C52658.7,62686.1 52661.9,62687.4 52665.4,62687.4C52671.1,62687.4 52678.2,62683.4 52687,62675.4C52689.1,62675.7 52690.6,62675.9 52691.2,62675.9C52693.4,62675.9 52695.9,62675.4 52698.6,62674.5C52705.7,62671.4 52709.3,62668.4 52709.3,62665.2L52709.3,62664.4C52709.3,62662.7 52708.1,62661.6 52705.7,62661.1L52705.3,62661.1C52705,62661.1 52704.5,62661.2 52703.7,62661.5C52699.8,62664.5 52696.9,62666.3 52695.4,62666.8L52695.2,62666.8C52698.6,62662.6 52700.3,62659.1 52700.3,62656.3C52700.3,62656 52700.2,62655.3 52700,62654.4C52698.8,62651.7 52696.7,62650.4 52693.7,62650.4L52692.5,62650.4L52690.7,62650.6C52689.6,62650 52688.2,62649.6 52686.4,62649.6ZM52666.8,62678.3C52666.8,62676.5 52668.6,62673.5 52672.1,62669.2C52676.2,62665.1 52678.6,62662.9 52679.2,62662.7C52678.9,62664.2 52678.7,62665.2 52678.7,62665.5C52678.7,62667.3 52679.2,62668.9 52680.1,62670.3L52680.1,62670.6C52674.5,62675.7 52670.1,62678.3 52666.8,62678.3Z" style="fill:white;fill-rule:nonzero;"/>
                <path d="M52725.9,62649.6C52721.3,62650.1 52715.2,62653.1 52707.5,62658.8C52702.9,62661.8 52700.6,62664.3 52700.6,62666.4C52700.6,62668.5 52702,62669.8 52704.6,62670.3L52705.7,62670.3L52706.6,62670.1C52701.6,62675.6 52699.2,62679.6 52699.2,62682.1C52699.2,62684.6 52700.8,62686 52703.8,62686.5C52706.3,62686.5 52708.9,62685.4 52711.5,62683.5C52715.8,62680 52720.2,62676.6 52725.1,62673.3C52724.2,62675.8 52723.9,62677.7 52723.9,62678.9L52723.9,62680.8C52725.1,62684.6 52727.6,62686.5 52731.3,62686.5L52732.4,62686.5C52738.5,62686.5 52748.1,62681.5 52760.6,62671.3C52764.3,62669.2 52766,62667.2 52766,62665.1C52766,62663 52764.7,62661.7 52762,62661.2L52761.2,62661.2C52759.7,62661.2 52757.9,62662.1 52755.8,62664.1C52748.9,62670 52742.5,62674.5 52736.4,62677.5L52736.2,62677.5C52739.6,62673 52744.3,62667.4 52750.6,62660.7C52752.9,62658.6 52754.1,62657 52754.1,62655.7C52754.1,62653.5 52752.6,62652.1 52749.6,62651.4L52748.1,62651.4C52744.8,62651.4 52739.3,62653.7 52731.8,62658.4L52732,62656.5L52732,62655.9C52731.5,62651.7 52729.5,62649.6 52725.9,62649.6Z" style="fill:white;fill-rule:nonzero;"/>
                <path d="M52789,62649.3C52783.1,62649.3 52774.8,62652.4 52764,62658.4C52754.4,62664.9 52749.6,62670.9 52749.6,62676.5L52749.6,62678.2C52749.6,62678.7 52749.7,62679.3 52749.8,62680.2C52751,62683.8 52753.2,62685.7 52756.4,62685.7L52757.7,62685.7C52762,62685.7 52767.8,62683.3 52775.1,62678.5L52775.3,62678.5L52775.3,62679.4C52775.3,62680.2 52775.4,62681.1 52775.6,62681.9C52777,62684.7 52779.4,62686 52783,62686C52789.7,62686 52798.1,62682.2 52808.3,62674.3C52814.3,62670 52817.4,62666.9 52817.4,62665L52817.4,62664.5C52817.4,62662.5 52815.8,62661.4 52812.9,62660.9C52811,62660.9 52809,62662 52807,62664.3C52797.4,62672.1 52790.3,62676.6 52785.6,62677.9L52785.3,62677.9C52785.3,62677.1 52788.2,62674 52794.1,62668.4C52800.8,62662.8 52804.1,62659.3 52804.1,62658.1C52804.1,62655.9 52802.7,62654.6 52799.7,62654C52797.8,62650.8 52795,62649.3 52791.5,62649.3L52789,62649.3ZM52760.9,62677.3C52760.9,62677 52763.3,62674.6 52768.2,62670C52775.8,62663.4 52782,62659.6 52786.9,62658.4L52787,62658.4C52787,62658.5 52786.6,62659 52785.8,62659.7C52774.3,62669.9 52766.1,62675.7 52761.1,62677.3L52760.9,62677.3Z" style="fill:white;fill-rule:nonzero;"/>
                <path d="M52877.7,62599.6C52872.5,62599.6 52865.2,62603 52855.8,62609.8C52846.8,62615.9 52837.8,62623.1 52828.9,62631.4C52819.7,62640.8 52813.7,62648 52811.1,62653C52806.5,62661.9 52804.3,62668.8 52804.3,62673.7C52804.3,62675.6 52804.7,62677.5 52805.3,62679.2C52807.9,62683.3 52811.2,62685.3 52815.2,62685.3C52823.2,62685.3 52833.1,62679.9 52845.3,62669.1C52849.7,62665.7 52851.8,62663.4 52851.8,62662.1L52851.8,62661.2C52851.8,62659.5 52850.4,62658.3 52847.4,62657.7C52845.5,62657.7 52843.9,62658.6 52842.2,62660.6C52830.9,62671.1 52822.4,62676.4 52816.6,62676.4C52815.6,62676.4 52814.9,62676.1 52814.8,62675.5C52814.8,62674 52815.5,62671.5 52816.8,62668.4C52830.5,62658.2 52843.6,62647.9 52856.1,62637.6C52863.2,62632 52870.7,62625.2 52878.6,62617.1C52883.4,62612.4 52885.7,62608.5 52885.7,62605.3C52885.6,62605.3 52885.6,62605.1 52885.6,62604.6C52884.3,62601.2 52881.7,62599.6 52877.7,62599.6ZM52833,62644.2C52835.5,62641.1 52840,62636.2 52846.7,62629.6C52858.9,62618.5 52867.7,62611.8 52873.2,62609.5L52873.4,62609.5C52859.5,62622.5 52846.2,62634.1 52833.1,62644.2L52833,62644.2Z" style="fill:white;fill-rule:nonzero;"/>
            </g>
        </g>
    </g>
</svg>
