<?xml version="1.0" encoding="utf-8"?>
<svg version="1.1" xmlns="http://www.w3.org/2000/svg" xmlns:xlink="http://www.w3.org/1999/xlink" x="0px" y="0px"
	 viewBox="0 0 2893 376" width="2893" height="376" preserveAspectRatio="xMidYMid meet" xml:space="preserve">
<g id="Layer_x0020_1" fill="currentColor">
	<path d="M2583.8,266.3c-3.6,0-6.1,0.7-7.6,2.1c-1.4,1.4-2.2,3.9-2.1,7.3V290c0,3.6,0.7,6.1,2.1,7.6
		c1.5,1.4,4,2.2,7.6,2.1h8.4c3.6,0,6.1-0.7,7.6-2.1c1.4-1.5,2.2-4,2.1-7.6v-14.3c0-3.5-0.7-5.9-2.1-7.3c-1.5-1.4-4-2.2-7.6-2.1
		L2583.8,266.3L2583.8,266.3z M2699.3,247.9c3.1,0.8,5.9,1.5,8.4,2.3c2.5,0.7,4.6,1.6,6.3,2.7c1.7,1.1,3,2.6,4,4.4
		c0.9,1.8,1.4,4.3,1.4,7.3c0,3.4-0.5,6.1-1.8,8.3c-1.2,2.1-3.2,3.8-6,5c-2.8,1.1-6.7,1.9-11.5,2.4s-10.8,0.7-18,0.6
		c-8.6,0-16.7-0.1-24.4-0.3c-7.7-0.2-14.7-0.5-20.8-1.1L2635,299c7.7,1.2,15,2,21.8,2.5c6.9,0.5,12.9,0.9,18.2,1
		c5.3,0.2,9.4,0.2,12.4,0.2c9.9,0,18.4-0.4,25.6-1.4c7.2-1,13.2-2.8,17.9-5.5s8.2-6.5,10.4-11.6c2.3-5,3.4-11.6,3.4-19.7
		c0-7.6-1.1-13.8-3.2-18.6c-2.2-4.8-5.5-8.6-10.1-11.5s-10.4-5.2-17.5-7l-37.3-9.2c-3.1-0.9-5.8-1.7-8.2-2.4
		c-2.3-0.8-4.3-1.7-5.9-2.8c-1.5-1.1-2.7-2.6-3.5-4.5s-1.2-4.4-1.2-7.6c0-3.6,0.5-6.3,1.5-8.3s2.8-3.5,5.1-4.3
		c2.4-0.9,5.5-1.4,9.5-1.7c4-0.2,8.9-0.3,14.7-0.3c8.3,0,16.6,0.2,25,0.5s16.8,0.6,25,0.9l2.2-18.9c-5.5-0.9-11.5-1.7-17.9-2.3
		c-6.5-0.6-13-1.2-19.7-1.5c-6.6-0.4-12.8-0.6-18.7-0.7c-9.2-0.1-17.1,0.4-23.7,1.4c-6.6,1.1-12,2.9-16.2,5.6
		c-4.2,2.7-7.3,6.4-9.3,11.3c-2,4.8-3,11-3,18.4c0,7.2,0.9,13.2,2.9,18.1c2,4.9,5.1,8.9,9.6,12c4.4,3.2,10.3,5.6,17.5,7.5l36.8,9.2
		L2699.3,247.9z M2818.9,234.9l43.8,64.9h30.3l-44.1-62.5c-0.9-1.5-2-3-3.2-4.5s-2.3-2.8-3.5-4.1s-2.2-2.2-3-2.8v-0.5
		c0.9-0.6,1.8-1.5,3-2.5s2.3-2.2,3.5-3.4c1.2-1.3,2.3-2.5,3.2-3.8l39.8-47.9h-30.3l-39.8,48.2h-16.2c0.5-3.6,0.9-7.3,1.2-10.9
		c0.3-3.7,0.4-7.5,0.4-11.5v-83h-26.5V300h26.2v-44.4c0-3.2-0.1-6.6-0.4-10.1c-0.3-3.4-0.6-6.9-1-10.5h16.5L2818.9,234.9z"/>
	<path d="M1542.6,39.9c-8.6,0-15.6,2.1-20.9,6.3c-5.3,4.1-8.7,10.4-10.3,18.9l-17.6,102.8c-0.9,6.4-1.7,12.8-2.4,19.3
		c-0.7,6.5-1.4,12.9-2.1,19.3h-3.4c-0.6-6.4-1.1-12.8-1.8-19.3c-0.7-6.5-1.4-12.9-2.4-19.3l-18.8-102.8c-1.6-8.4-4.9-14.8-10.2-18.9
		c-5.3-4.2-12.1-6.3-20.6-6.3H1362c-9.3,0-16.3,2.4-21,7.2c-4.6,4.8-7.1,11.8-7.5,20.9l-9,230.7h73.1l6.4-198h5.6l25.9,132
		c1.6,8.3,4.9,14.4,10.3,18.6c5.3,4.1,12.3,6.2,20.9,6.2h42c8.7,0,15.6-2.1,20.9-6.2c5.3-4.1,8.6-10.3,9.9-18.6l25.5-132h5.6
		l7.9,198h73.1l-9-230.7c-0.3-9.2-2.8-16.2-7.5-20.9c-4.6-4.7-11.6-7.2-21-7.2L1542.6,39.9L1542.6,39.9z M1781.5,105.9
		c-19.2-0.1-35.4,1.7-48.8,5.3c-13.4,3.6-24.3,9.2-32.5,17c-8.3,7.8-14.3,18.1-18.1,30.8c-3.8,12.7-5.7,28.1-5.6,46.4
		c-0.1,17.9,1.8,33.2,5.6,45.7c3.8,12.5,9.8,22.6,18.1,30.3c8.3,7.7,19.1,13.3,32.5,16.8s29.6,5.3,48.8,5.2
		c19.1,0.1,35.3-1.7,48.6-5.2c13.3-3.5,24.1-9.1,32.4-16.8c8.3-7.7,14.3-17.8,18.1-30.3c3.8-12.5,5.6-27.8,5.6-45.7
		c0.1-18.3-1.8-33.7-5.6-46.4c-3.8-12.7-9.8-22.9-18.1-30.8c-8.3-7.8-19.1-13.4-32.4-17S1800.5,105.9,1781.5,105.9L1781.5,105.9z
		 M1781.5,159.2c4.5-0.1,8.2,0.5,11.1,1.8c2.9,1.2,5.1,3.5,6.8,6.8c1.6,3.3,2.8,8,3.4,14.1c0.7,6.1,1,13.9,0.9,23.5
		c0.1,9.3-0.3,16.9-0.9,22.8c-0.6,5.9-1.8,10.4-3.4,13.6c-1.6,3.2-3.9,5.4-6.8,6.6c-2.9,1.2-6.6,1.8-11.1,1.7
		c-4.6,0.1-8.3-0.5-11.3-1.7c-2.9-1.2-5.3-3.4-6.9-6.6c-1.6-3.2-2.8-7.7-3.4-13.6c-0.6-5.9-0.9-13.5-0.9-22.8
		c0-9.6,0.3-17.4,0.9-23.5s1.8-10.8,3.4-14.1s3.9-5.6,6.9-6.8C1773.1,159.7,1776.9,159.2,1781.5,159.2z M1973.9,111.2H1912v187.5
		h78.8V176.8c6.8-2,12.7-3.2,17.5-3.8c4.8-0.5,9.3-0.8,13.3-0.7c4.8-0.1,8.3,0.8,10.4,2.5c2.1,1.8,3.1,4.7,3.1,8.8v115.1h78.8V158.4
		c-0.1-17.3-4.8-30.4-14.1-39.2c-9.4-8.9-23.1-13.3-41.4-13.3c-8.4,0-17,1.2-25.8,3.6s-17.5,6-26.3,10.9
		c-8.7,4.9-17.1,11.1-25.3,18.6L1973.9,111.2L1973.9,111.2z M2269.4,222.2c13.8,0,25.3-0.9,34.7-2.8c9.4-1.9,16.9-4.9,22.5-8.9
		s9.7-9.1,12.1-15.4c2.4-6.3,3.6-13.8,3.4-22.4c-0.1-11-1.9-20.6-5.5-28.9c-3.6-8.3-9.3-15.3-16.9-20.9c-7.8-5.6-17.8-9.9-30.1-12.7
		c-12.4-2.8-27.4-4.3-44.9-4.3c-19.4-0.1-35.8,1.7-49.4,5.3c-13.6,3.6-24.6,9.3-33,17.3c-8.4,7.9-14.5,18.3-18.4,31.1
		s-5.8,28.4-5.8,46.9c-0.1,15.9,1.8,29.9,5.7,42c3.8,12.1,9.9,22.2,18.4,30.3c8.4,8.1,19.4,14.3,33.1,18.4
		c13.6,4.1,30.2,6.1,49.8,6.1c11.3,0.1,22.3-0.4,32.9-1.5c10.6-1,20.9-2.7,30.8-5.3c9.9-2.6,19.3-6.1,28.1-10.5l-7.1-47.3
		c-10.8,1.1-21.1,2-30.8,2.6c-9.6,0.6-18.4,1-26.1,1.2c-7.8,0.3-14.2,0.3-19.3,0.3c-6.6,0.1-12-0.6-16.3-1.9
		c-4.3-1.3-7.5-3.5-9.9-6.5c-2.4-3.1-4.1-7.1-5-12.2h46.9L2269.4,222.2z M2221,185.1c0.3-6.3,0.9-11.4,1.8-15.3
		c1-3.9,2.4-6.8,4.4-8.7c1.9-1.9,4.5-3.2,7.8-3.9c3.2-0.6,7.2-0.8,11.9-0.7c4.7-0.1,8.6,0.3,11.5,1c2.9,0.8,5.1,2.1,6.4,4.2
		c1.4,2.1,2,5.1,2,9.1c0.1,4.2-0.4,7.3-1.3,9.4c-0.9,2.1-2.8,3.4-5.6,4s-7,0.9-12.6,0.9H2221L2221,185.1z M2573.9,111.2h-83.6
		l-22.1,103.5c-0.6,3.2-1.3,6.8-2.1,10.8c-0.8,3.9-1.7,8.1-2.6,12.3c-0.9,4.3-2,8.3-3.1,12.3h-3.4c-0.8-5.8-1.5-11.7-2.3-17.6
		c-0.8-5.9-1.6-11.8-2.6-17.6L2430,111.4h-83.6l55.5,169.1c1.7,5.7,4.8,10.1,9.1,13.4c4.4,3.2,9.6,4.9,15.6,5h12.8
		c-3.3,5.7-7.5,10.6-12.4,14.5c-5,3.9-10.9,7.3-18,10c-7,2.7-15.2,5.1-24.7,7l5.3,42.4c12.9,2.7,24.7,3.6,35.3,2.7
		s20.2-3.1,28.8-6.8c8.5-3.6,16.1-8.3,22.7-13.9c6.6-5.6,12.4-11.8,17.3-18.7c4.9-6.8,9.1-13.9,12.5-21.2c3.4-7.3,6.2-14.4,8.3-21.3
		l59.6-182.3L2573.9,111.2z"/>
	<path d="M583.2,100.7V39.9H357v60.8h72.4v198h81.4v-198L583.2,100.7L583.2,100.7z M668.7,106
		c-19.2-0.1-35.4,1.7-48.8,5.3c-13.4,3.6-24.3,9.2-32.5,17c-8.3,7.8-14.3,18.1-18.1,30.8s-5.7,28.1-5.6,46.4
		c-0.1,17.9,1.8,33.2,5.6,45.7c3.8,12.5,9.8,22.6,18.1,30.3s19.1,13.3,32.5,16.8s29.6,5.3,48.8,5.2c19.1,0.1,35.3-1.7,48.6-5.2
		s24.1-9.1,32.4-16.8c8.3-7.7,14.3-17.8,18.1-30.3c3.8-12.5,5.6-27.8,5.6-45.7c0.1-18.3-1.8-33.7-5.6-46.4s-9.8-22.9-18.1-30.8
		c-8.3-7.8-19.1-13.4-32.4-17C704,107.7,687.7,106,668.7,106z M668.7,159.3c4.5-0.1,8.2,0.5,11.1,1.8c2.9,1.2,5.1,3.5,6.8,6.8
		c1.6,3.3,2.8,8,3.4,14.1c0.7,6.1,1,13.9,0.9,23.5c0.1,9.3-0.3,16.9-0.9,22.8c-0.6,5.9-1.8,10.4-3.4,13.6c-1.6,3.2-3.9,5.4-6.8,6.6
		c-2.9,1.2-6.6,1.8-11.1,1.7c-4.6,0.1-8.3-0.5-11.3-1.7c-2.9-1.2-5.3-3.4-6.9-6.6c-1.6-3.2-2.8-7.7-3.4-13.6
		c-0.6-5.9-0.9-13.5-0.9-22.8c0-9.6,0.3-17.4,0.9-23.5c0.6-6.1,1.8-10.8,3.4-14.1c1.6-3.3,3.9-5.6,6.9-6.8
		C660.3,159.8,664.1,159.3,668.7,159.3z M896,158.5h45.4v-47.3H896V62.1h-79.1v49.5l-31.5,1.5v45.4h31.9v93
		c0.1,11.1,2.5,20.4,7.4,28.3c4.9,7.8,11.8,13.8,20.6,18c8.9,4.1,19.4,6.2,31.6,6.3c4.5,0,9.5-0.2,15.1-0.6s11.4-1,17.3-1.8
		c5.9-0.8,11.6-1.7,17-3c5.4-1.2,10.2-2.7,14.3-4.4L932,244h-19.9c-5.8,0.1-9.9-1-12.4-3.1s-3.8-5.6-3.7-10.4L896,158.5L896,158.5z
		 M971,165.3c10.7-0.5,20.9-0.9,30.8-1.2c9.9-0.3,19.1-0.4,27.6-0.6c8.5-0.1,16-0.1,22.6-0.1c5.4,0,9.8,0.6,13,1.9
		c3.2,1.3,5.5,3.4,6.9,6.1c1.4,2.7,2.2,6.3,2.3,10.7v1.5h-58.5c-12.8,0.1-23.8,2-33.1,5.9c-9.2,3.9-16.3,9.4-21.3,16.6
		c-5,7.2-7.5,15.8-7.6,25.9v18.8c0.1,8.8,1.8,16.6,5.2,23.2s8.1,12.2,14,16.6c5.9,4.5,12.8,7.8,20.5,10.1c7.8,2.3,16,3.4,24.8,3.4
		c10.6-0.1,20-1.6,28.1-4.6c8.2-3,15.3-6.9,21.4-11.6c6-4.8,11.2-9.9,15.4-15.3l7.1,26.3h62.6V182.6c0-14.6-1.8-26.8-5.4-36.6
		c-3.6-9.9-8.9-17.7-15.9-23.6c-6.9-5.9-15.6-10.1-25.8-12.6c-10.2-2.6-21.9-3.8-35.1-3.8c-5.8,0-12.2,0.2-19.3,0.5
		c-7.1,0.3-14.6,0.7-22.4,1.3c-7.8,0.6-15.6,1.2-23.4,2c-7.8,0.8-15.3,1.6-22.4,2.6c-7.1,0.9-13.6,1.9-19.3,3l7.1,49.9H971z
		 M1030.3,233.2c0-3.4,1.2-6.3,3.6-8.4c2.4-2.1,5.9-3.2,10.6-3.3h29.6v19.9c-4.8,2.9-9.5,5.1-14.3,6.8c-4.9,1.7-9.4,2.5-13.8,2.6
		c-5.3-0.1-9.2-1.1-11.8-3.3c-2.6-2.1-3.9-4.9-3.9-8.4L1030.3,233.2L1030.3,233.2z M1262.1,36.3h-78.4v215.3
		c0.1,11.1,2.6,20.4,7.7,28.3c5.1,7.8,12.3,13.8,21.8,17.9c9.4,4.2,20.8,6.3,33.9,6.3c3.8,0,8.1-0.2,13.2-0.6s10.3-1,15.6-1.8
		c5.4-0.8,10.4-1.7,15-3c4.6-1.2,8.4-2.7,11.3-4.4l-8.6-50.3h-12.8c-6.4,0.1-11.1-1-14.2-3.1s-4.6-5.6-4.6-10.4L1262.1,36.3
		L1262.1,36.3z"/>
	<path d="M199.2,358.1C181.9,370,164.1,376,146.3,376h-0.1c-2.2,0-4.5-0.1-6.7-0.3c-0.4,0-0.8-0.1-1.1-0.1h-0.2
		c-16.3-1.6-32.4-8.2-48.2-19.7c1.9-4.4,3.8-9.4,5.6-14.9c2.5-7.7,4.9-16.5,7.2-26.5l0.1-0.2c0.6-2.4,1.1-5,1.7-7.7
		c0.5-2.6,1.1-5.1,1.5-7.7c0.4-2.2,0.9-4.8,1.4-7.7c0.6-3.6,1.1-6.4,1.4-8.5c1.4-8.8,2.7-18.1,3.8-27.8c1.1-9.7,2-19.5,2.8-29.5
		l0.5-6.7c-4-0.7-8.1-1.6-12.1-2.6c-2.4,30.1-6.5,59.2-12.3,84.2c-7.6,32.7-25.4,74-26.3,61.5c-1-14.6-6.7-46-17.5-63.5
		s-22.4-49.7-22.6-73.4c-0.1-9.3,3.5-29,11.7-42.8C23.1,168.4,14,151,12.2,129.8C8.7,87.8,50.9,28.9,0,-0.1
		C55,3,93.7,23.3,144.6,25.4C195.5,23.3,234.1,3,289.2,-0.1c-50.9,28.9-8.7,87.9-12.2,129.9c-1.8,21.2-10.9,38.6-24.7,52.3
		c8.2,13.8,11.8,33.5,11.7,42.8c-0.1,23.7-11.8,55.9-22.6,73.4s-16.5,48.9-17.5,63.5c-0.9,12.5-18.7-28.9-26.3-61.5
		c-5.7-24.8-9.8-53.5-12.2-83.4c-4.4,1-8.7,1.8-13.1,2.5l0.4,5.9c0.7,10,1.7,19.8,2.8,29.5c1.1,9.7,2.4,19,3.8,27.8
		c0.3,2.1,0.8,4.9,1.4,8.5c0.5,3,1,5.6,1.4,7.7c0.5,2.6,1,5.2,1.5,7.7c0.6,2.7,1.1,5.2,1.7,7.7l0,0v0.2l0,0
		c2.4,10.4,5,19.7,7.6,27.7c2,5.9,4,11.2,6.1,15.8L199.2,358.1z"/>
</g>
</svg>
