<?xml version="1.0" encoding="UTF-8"?>
<svg width="157px" height="45px" viewBox="0 0 157 45" version="1.1" xmlns="http://www.w3.org/2000/svg" xmlns:xlink="http://www.w3.org/1999/xlink">
<g stroke="none" stroke-width="1" fill="none" fill-rule="evenodd">
<g transform="translate(0.000000, 0.181600)" fill="currentColor">
<polygon points="11.7812 17.3032 20.2732 17.3032 20.2732 29.9912 26.0762 29.9912 26.0762 17.3032 34.5672 17.3032 34.5672 13.1332 11.7812 13.1332"></polygon>
<path d="M52.5137,21.4444 L43.4507,21.4444 L43.4507,17.0954 L52.7147,17.0954 C54.4577,17.0954 54.9147,17.1724 55.3737,17.5774 C55.7427,17.9314 55.8587,18.4104 55.8587,19.4724 C55.8587,21.1144 55.3147,21.4444 52.5137,21.4444 M57.3167,23.4664 C57.1737,23.4664 56.8027,23.4404 56.3727,23.4154 C58.9457,23.0864 59.8327,22.8344 60.4907,22.2274 C61.3187,21.4444 61.6917,20.2314 61.6917,18.4104 C61.6917,15.7824 60.9197,14.2394 59.2617,13.5584 C58.1457,13.1034 56.8597,12.9514 54.1147,12.9514 L37.6757,12.9514 L37.6757,29.8094 L43.4507,29.8094 L43.4507,25.5634 L52.3427,25.5634 C53.9147,25.5634 54.3717,25.6144 54.8297,25.8914 C55.3447,26.2214 55.5447,26.7524 55.5447,27.7124 L55.5447,29.8094 L61.4337,29.8094 L61.4337,27.1554 C61.4337,25.7144 61.2057,24.9574 60.6327,24.3754 C60.0617,23.7684 59.3187,23.5684 57.3167,23.4664"></path>
<polygon points="86.125 16.7681 86.125 12.9521 65 12.9521 65 29.8091 86.326 29.8091 86.326 25.9931 70.717 25.9931 70.717 23.0111 85.238 23.0111 85.238 19.6761 70.717 19.6761 70.717 16.7681"></polygon>
<polygon points="109.9355 25.7652 98.3825 12.9522 89.1485 12.9522 89.1485 29.8092 94.7235 29.8092 94.5805 17.1212 105.9595 29.8092 115.2795 29.8092 115.2795 12.9522 109.7895 12.9522"></polygon>
<path d="M124.5654,25.7916 L124.5654,17.1476 L134.4014,17.1476 C137.7464,17.1476 138.4314,17.8796 138.4314,21.4186 C138.4314,24.3256 138.0604,25.2086 136.6584,25.5896 C135.9744,25.7916 135.8584,25.7916 134.2874,25.7916 L124.5654,25.7916 Z M139.9774,29.5586 C142.0624,29.2036 143.6654,27.6376 143.9794,25.6146 C144.1494,24.6536 144.2634,22.8846 144.2634,21.3936 C144.2634,20.6106 144.2094,19.4206 144.1494,18.6386 C143.9494,16.4636 143.5214,15.4286 142.4624,14.5186 C141.1194,13.3556 139.2594,12.9516 135.2304,12.9516 L118.7614,12.9516 L118.7614,29.8106 L136.0034,29.8106 C138.0314,29.8106 138.8884,29.7606 139.9774,29.5586 L139.9774,29.5586 Z"></path>
<path d="M57.6777,37.899 L56.9527,37.899 C56.6497,37.899 56.5517,37.997 56.5517,38.3 L56.5517,40.641 C56.5517,41.689 56.7767,42.503 56.8647,42.806 L56.7967,42.806 C56.6987,42.59 56.4927,41.817 55.9837,41.053 L54.0227,38.085 C53.9347,37.958 53.8467,37.899 53.6407,37.899 L52.8287,37.899 C52.5347,37.899 52.4277,37.997 52.4277,38.3 L52.4277,44.451 C52.4277,44.755 52.5347,44.853 52.8287,44.853 L53.5527,44.853 C53.8567,44.853 53.9547,44.755 53.9547,44.451 L53.9547,42.11 C53.9547,41.072 53.7387,40.201 53.6807,39.916 L53.7487,39.916 C53.8267,40.181 54.0917,41.023 54.5717,41.748 L56.4927,44.667 C56.5907,44.804 56.6887,44.853 56.8847,44.853 L57.6777,44.853 C57.9707,44.853 58.0687,44.755 58.0687,44.451 L58.0687,38.3 C58.0687,37.997 57.9707,37.899 57.6777,37.899"></path>
<path d="M98.9697,37.899 L98.2437,37.899 C97.9417,37.899 97.8437,37.997 97.8437,38.3 L97.8437,40.641 C97.8437,41.689 98.0687,42.503 98.1567,42.806 L98.0887,42.806 C97.9907,42.59 97.7837,41.817 97.2757,41.053 L95.3147,38.085 C95.2267,37.958 95.1387,37.899 94.9337,37.899 L94.1197,37.899 C93.8257,37.899 93.7197,37.997 93.7197,38.3 L93.7197,44.451 C93.7197,44.755 93.8257,44.853 94.1197,44.853 L94.8457,44.853 C95.1487,44.853 95.2457,44.755 95.2457,44.451 L95.2457,42.11 C95.2457,41.072 95.0307,40.201 94.9727,39.916 L95.0407,39.916 C95.1187,40.181 95.3837,41.023 95.8637,41.748 L97.7837,44.667 C97.8827,44.804 97.9807,44.853 98.1767,44.853 L98.9697,44.853 C99.2627,44.853 99.3607,44.755 99.3607,44.451 L99.3607,38.3 C99.3607,37.997 99.2627,37.899 98.9697,37.899"></path>
<path d="M65.7896,37.899 L61.8426,37.899 C61.5486,37.899 61.4406,37.997 61.4406,38.3 L61.4406,44.451 C61.4406,44.755 61.5486,44.853 61.8426,44.853 L62.6346,44.853 C62.9286,44.853 63.0366,44.755 63.0366,44.451 L63.0366,42.198 L65.2896,42.198 C65.5936,42.198 65.6916,42.1 65.6916,41.807 L65.6916,41.151 C65.6916,40.847 65.5936,40.75 65.2896,40.75 L63.0366,40.75 L63.0366,39.347 L65.7896,39.347 C66.0826,39.347 66.1806,39.25 66.1806,38.956 L66.1806,38.3 C66.1806,37.997 66.0826,37.899 65.7896,37.899"></path>
<path d="M90.2373,43.4039 L87.3963,43.4039 L87.3963,42.0609 L89.6493,42.0609 C89.9533,42.0609 90.0513,41.9639 90.0513,41.6599 L90.0513,41.0049 C90.0513,40.7099 89.9533,40.6119 89.6493,40.6119 L87.3963,40.6119 L87.3963,39.3469 L90.1493,39.3469 C90.4433,39.3469 90.5413,39.2499 90.5413,38.9559 L90.5413,38.2999 C90.5413,37.9969 90.4433,37.8989 90.1493,37.8989 L86.2023,37.8989 C85.9083,37.8989 85.8003,37.9969 85.8003,38.2999 L85.8003,44.4519 C85.8003,44.7559 85.9083,44.8529 86.2023,44.8529 L90.2373,44.8529 C90.5413,44.8529 90.6393,44.7559 90.6393,44.4519 L90.6393,43.7969 C90.6393,43.5029 90.5413,43.4039 90.2373,43.4039"></path>
<path d="M47.6274,42.3951 C47.6274,43.1591 47.1464,43.5511 46.3234,43.5511 C45.4904,43.5511 45.0194,43.1591 45.0194,42.3951 L45.0194,40.3471 C45.0194,39.5921 45.4904,39.2001 46.3234,39.2001 C47.1464,39.2001 47.6274,39.5921 47.6274,40.3471 L47.6274,42.3951 Z M46.3234,37.7521 C44.4614,37.7521 43.4244,38.7601 43.4244,40.3861 L43.4244,42.3661 C43.4244,43.9921 44.4614,44.9991 46.3234,44.9991 C48.1754,44.9991 49.2124,43.9921 49.2124,42.3661 L49.2124,40.3861 C49.2124,38.7601 48.1754,37.7521 46.3234,37.7521 L46.3234,37.7521 Z"></path>
<path d="M73.6768,43.4039 L70.8368,43.4039 L70.8368,42.0609 L73.0898,42.0609 C73.3928,42.0609 73.4898,41.9639 73.4898,41.6599 L73.4898,41.0049 C73.4898,40.7099 73.3928,40.6119 73.0898,40.6119 L70.8368,40.6119 L70.8368,39.3469 L73.5888,39.3469 C73.8828,39.3469 73.9808,39.2499 73.9808,38.9559 L73.9808,38.2999 C73.9808,37.9969 73.8828,37.8989 73.5888,37.8989 L69.6418,37.8989 C69.3488,37.8989 69.2398,37.9969 69.2398,38.2999 L69.2398,44.4519 C69.2398,44.7559 69.3488,44.8529 69.6418,44.8529 L73.6768,44.8529 C73.9808,44.8529 74.0788,44.7559 74.0788,44.4519 L74.0788,43.7969 C74.0788,43.5029 73.9808,43.4039 73.6768,43.4039"></path>
<path d="M112.5137,37.899 L111.7017,37.899 C111.4077,37.899 111.3097,37.997 111.3097,38.291 L111.3097,44.461 C111.3097,44.755 111.4077,44.853 111.7017,44.853 L112.5137,44.853 C112.8077,44.853 112.9057,44.755 112.9057,44.461 L112.9057,38.291 C112.9057,37.997 112.8077,37.899 112.5137,37.899"></path>
<path d="M105.4785,39.1998 C106.1245,39.1998 106.5165,39.4448 106.7035,39.9268 C106.8105,40.2098 106.9285,40.2598 107.2125,40.1718 L107.9665,39.9058 C108.2495,39.8078 108.3195,39.6718 108.2215,39.3958 C107.8295,38.3398 106.9185,37.7528 105.4785,37.7528 C103.6175,37.7528 102.5795,38.7608 102.5795,40.3868 L102.5795,42.3658 C102.5795,43.9918 103.6175,44.9998 105.4785,44.9998 C106.9185,44.9998 107.8295,44.4128 108.2215,43.3548 C108.3195,43.0808 108.2495,42.9438 107.9665,42.8458 L107.2125,42.5808 C106.9385,42.4728 106.8205,42.5418 106.7035,42.8258 C106.5265,43.3058 106.1245,43.5518 105.4785,43.5518 C104.6165,43.5518 104.1755,43.1498 104.1755,42.3748 L104.1755,40.3758 C104.1755,39.6018 104.6165,39.1998 105.4785,39.1998"></path>
<path d="M120.6953,43.4039 L117.8543,43.4039 L117.8543,42.0609 L120.1073,42.0609 C120.4113,42.0609 120.5083,41.9639 120.5083,41.6599 L120.5083,41.0049 C120.5083,40.7099 120.4113,40.6119 120.1073,40.6119 L117.8543,40.6119 L117.8543,39.3469 L120.6063,39.3469 C120.9003,39.3469 120.9983,39.2499 120.9983,38.9559 L120.9983,38.2999 C120.9983,37.9969 120.9003,37.8989 120.6063,37.8989 L116.6593,37.8989 C116.3663,37.8989 116.2583,37.9969 116.2583,38.2999 L116.2583,44.4519 C116.2583,44.7559 116.3663,44.8529 116.6593,44.8529 L120.6953,44.8529 C120.9983,44.8529 121.0963,44.7559 121.0963,44.4519 L121.0963,43.7969 C121.0963,43.5029 120.9983,43.4039 120.6953,43.4039"></path>
<path d="M80.1162,40.9547 L78.7542,40.9547 L78.7542,39.3477 L80.1162,39.3477 C80.6462,39.3477 80.9302,39.6427 80.9302,40.1507 C80.9302,40.6607 80.6372,40.9547 80.1162,40.9547 L80.1162,40.9547 Z M81.6542,42.5027 C81.5872,42.3857 81.5272,42.2677 81.4602,42.1597 C82.1742,41.8267 82.5852,41.1317 82.5852,40.1507 C82.5852,38.7307 81.6932,37.8987 80.2832,37.8987 L77.5602,37.8987 C77.2662,37.8987 77.1582,37.9967 77.1582,38.3007 L77.1582,44.4517 C77.1582,44.7557 77.2662,44.8527 77.5602,44.8527 L78.3532,44.8527 C78.6462,44.8527 78.7542,44.7557 78.7542,44.4517 L78.7542,42.3847 L79.1562,42.3847 C79.7242,42.3847 79.9102,42.5127 80.1252,42.9627 L80.8502,44.4717 C80.9972,44.7747 81.1752,44.8527 81.6742,44.8527 L82.4572,44.8527 C82.7522,44.8527 82.7912,44.6667 82.6632,44.4327 L81.6542,42.5027 Z"></path>
<path d="M39.5327,42.0406 C39.2777,41.5616 39.0127,41.2286 38.6407,41.0146 L40.6787,38.2906 C40.8257,38.0846 40.7467,37.8986 40.4727,37.8986 L39.6207,37.8986 C39.1507,37.8986 39.0427,37.9476 38.8367,38.2316 L37.1027,40.6116 L37.0147,40.6116 L36.8577,40.6116 L36.8577,38.3006 C36.8577,37.9966 36.7507,37.8986 36.4567,37.8986 L35.6637,37.8986 C35.3697,37.8986 35.2627,37.9966 35.2627,38.3006 L35.2627,44.4506 C35.2627,44.7556 35.3697,44.8536 35.6637,44.8536 L36.4567,44.8536 C36.7507,44.8536 36.8577,44.7556 36.8577,44.4506 L36.8577,42.0406 L37.1127,42.0406 C37.6707,42.0406 37.8477,42.1796 38.0727,42.6296 L38.9837,44.4906 C39.1307,44.7936 39.2977,44.8536 39.7867,44.8536 L40.5707,44.8536 C40.8747,44.8536 40.9137,44.6666 40.7867,44.4326 L39.5327,42.0406 Z"></path>
<polygon points="0 0.8184 0 41.9494 24.96 41.9494 24.96 37.9494 4 37.9494 4 4.8184 152.045 4.8184 152.045 37.9494 131.085 37.9494 131.085 41.9494 156.045 41.9494 156.045 0.8184"></polygon>
</g>
</g>
</svg>
