<?xml version="1.0" encoding="UTF-8"?>
<svg xmlns="http://www.w3.org/2000/svg" width="160" height="120" version="1.1" viewBox="18 51 124 18">
<g fill="currentColor">
<path d="M20,56.189h7.698v11.354h5.262v-11.354h7.699v-3.733h-20.66v3.733Z"/>
<path d="M65.266,57.343c0-2.351-.702-3.733-2.206-4.342-1.011-.407-2.178-.545-4.665-.545h-14.906v15.087h5.236v-3.798h8.062c1.427,0,1.841.043,2.256.293.468.293.648.766.648,1.627v1.877h5.341v-2.374c0-1.291-.207-1.967-.727-2.488-.518-.544-1.191-.728-3.005-.814-.129,0-.469-.023-.856-.047,2.331-.293,3.136-.52,3.733-1.06.75-.704,1.089-1.79,1.089-3.418ZM56.943,60.057h-8.218v-3.889h8.4c1.581,0,1.996.068,2.41.43.336.315.441.745.441,1.697,0,1.47-.492,1.762-3.033,1.762Z"/>
<path d="M73.429,61.46h13.173v-2.986h-13.173v-2.601h13.974v-3.417h-19.157v15.087h19.341v-3.415h-14.157v-2.669Z"/>
<path d="M108.973,63.925l-10.475-11.469h-8.372v15.087h4.92l.005-11.354,10.318,11.354h8.452v-15.087h-4.855l.007,11.469Z"/>
<path d="M139.897,57.547c-.182-1.947-.569-2.871-1.529-3.687-1.22-1.041-2.906-1.404-6.559-1.404h-14.933v15.087h15.632c1.843,0,2.619-.043,3.604-.224,1.893-.316,3.345-1.72,3.631-3.531.155-.857.258-2.441.258-3.776,0-.701-.05-1.764-.103-2.466ZM133.105,63.764c-.622.18-.727.18-2.153.18h-8.813v-7.731h8.918c3.031,0,3.654.655,3.654,3.822,0,2.599-.338,3.389-1.606,3.729Z"/>
</g>
</svg>
