<?xml version="1.0" encoding="utf-8"?>
<svg class="svg-icon logo__big fill-navy text-navy dark:text-white dark:fill-white fill-current" xmlns="http://www.w3.org/2000/svg" viewBox="0 0 153 48" style="enable-background:new 0 0 153 48" xml:space="preserve">
    <path fill-rule="evenodd" clip-rule="evenodd" d="M146.6 28.4c-.6.6-1.6 1.1-2.7 1.1-2.1 0-3.6-1.4-3.6-3.6v-5.3h-.8c-.5 0-1-.4-1-1 0-.5.4-1 1-1h.8v-3.8c0-.7.5-1.2 1.1-1.2.6 0 1.1.5 1.1 1.2v3.8h2.4c.5 0 1 .4 1 1 0 .5-.4 1-1 1h-2.4V26c0 1.1.7 1.7 1.4 1.7s1-.3 1.5-.7c.5-.4 1-.3 1.3 0 .4.2.5.9-.1 1.4zm-9.7-8.7c0 .5-.4 1-1 1-1.8 0-2.7 1.5-2.7 3.3v4.2c0 .7-.5 1.2-1.1 1.2-.6 0-1.1-.5-1.1-1.2v-8.3c0-.7.5-1.2 1.1-1.2.6 0 1.1.5 1.1 1.2v.2c.6-.9 1.5-1.4 2.6-1.4.7 0 1.1.5 1.1 1zm-10.7 4.4c0-2.1-1.3-3.6-3.2-3.6-2 0-3.2 1.5-3.2 3.6s1.2 3.6 3.2 3.6c1.9-.1 3.2-1.5 3.2-3.6zm2.1 0c0 3-2.2 5.5-5.4 5.5s-5.4-2.5-5.4-5.5 2.2-5.5 5.4-5.5 5.4 2.4 5.4 5.5zm-15.4 0c0-2.1-1.3-3.6-3.2-3.6-1.9 0-3.4 1.5-3.4 3.6s1.4 3.6 3.4 3.6c1.9-.1 3.2-1.5 3.2-3.6zm2.2 0c0 3-2.2 5.5-5.2 5.5-1.5 0-2.7-.6-3.5-1.5v5c0 .7-.5 1.2-1.1 1.2-.6 0-1.1-.5-1.1-1.2V19.9c0-.7.5-1.2 1.1-1.2.6 0 1.1.5 1.1 1.2v.1c.8-.9 2-1.5 3.5-1.5 3 .1 5.2 2.5 5.2 5.6zm-15.7 0c0-2.1-1.3-3.6-3.2-3.6-1.9 0-3.4 1.5-3.4 3.6s1.4 3.6 3.4 3.6c1.8-.1 3.2-1.5 3.2-3.6zm2.2 0c0 3-2.2 5.5-5.2 5.5-1.5 0-2.7-.6-3.5-1.5v5c0 .7-.5 1.2-1.1 1.2-.6 0-1.1-.5-1.1-1.2V19.9c0-.7.5-1.2 1.1-1.2.6 0 1.1.5 1.1 1.2v.1c.8-.9 2-1.5 3.5-1.5 3 .1 5.2 2.5 5.2 5.6zm-13.8-4.2v4.9c0 2.8-2.1 4.7-4.7 4.7s-4.7-1.9-4.7-4.7v-4.9c0-.7.5-1.2 1.1-1.2.6 0 1.1.5 1.1 1.2v4.9c0 1.9 1.2 2.8 2.6 2.8 1.4 0 2.6-.9 2.6-2.8v-4.9c0-.7.5-1.2 1.1-1.2.5 0 .9.6.9 1.2zm-12.1 6.5c0 1.9-1.8 3.2-3.9 3.2-1.6 0-2.9-.6-3.6-1.2-.5-.4-.5-1.1-.1-1.4.4-.4.9-.3 1.4 0 .6.4 1.5.7 2.3.7 1 0 1.7-.5 1.7-1.2 0-1.9-5.6-1.2-5.6-4.8 0-1.7 1.6-3.1 3.8-3.1 1.2 0 2.1.3 2.9.8.6.4.7 1.1.3 1.5-.4.4-.9.4-1.4.1-.5-.3-1.1-.5-1.8-.5-.9 0-1.6.4-1.6 1.2-.1 1.8 5.6 1 5.6 4.7zm-12.6-2.3c0-2.1-1.3-3.6-3.2-3.6-1.9 0-3.4 1.5-3.4 3.6s1.4 3.6 3.4 3.6c1.9-.1 3.2-1.5 3.2-3.6zm2.2 0c0 3-2.2 5.5-5.2 5.5-1.5 0-2.7-.6-3.5-1.5v.1c0 .7-.5 1.2-1.1 1.2-.6 0-1.1-.5-1.1-1.2V14.4c0-.7.5-1.2 1.1-1.2.6 0 1.1.5 1.1 1.2V20c.8-.9 2-1.5 3.5-1.5 3 .1 5.2 2.5 5.2 5.6zm-21.6-1h6c-.3-1.7-1.2-2.6-2.9-2.6s-2.8 1-3.1 2.6zm8 1.1c0 .4-.4.7-.8.7h-7.4c.2 1.7 1.3 2.7 3.2 2.7.9 0 1.9-.3 2.5-.8.5-.3 1-.4 1.4 0 .4.4.3 1.1-.2 1.5-1 .8-2.4 1.2-3.7 1.2-3.5 0-5.5-2.5-5.5-5.5s2.3-5.5 5.4-5.5c3.4.1 5.4 2.7 5.1 5.7zm-12.1-4.1-3.9 8.4c-.3.7-.9 1.1-1.7 1.1-.7 0-1.3-.4-1.7-1.1L29 21.1l-3.4 7.4c-.3.7-.9 1.1-1.7 1.1-.7 0-1.3-.4-1.7-1.1l-3.4-7.4-3.4 7.4c-.3.7-.9 1.1-1.7 1.1-.7 0-1.3-.4-1.7-1.1l-3.9-8.4c-.2-.5 0-1.2.5-1.4.6-.3 1.2 0 1.4.5l3.6 8.1 3.4-7.7c.3-.6.9-1 1.6-1s1.3.4 1.6 1l3.4 7.7 3.4-7.7c.3-.6.9-1 1.6-1 .7 0 1.3.4 1.6 1l3.4 7.7 3.6-8.1c.2-.5.9-.8 1.4-.5 1 .2 1.2.8 1 1.4zm6.5 13.1C42.7 41.8 34.1 48 24 48 10.7 48 0 37.2 0 24S10.7 0 24 0c10.1 0 18.7 6.2 22.2 14.8.3.7 0 1.2-.5 1.4-.4.2-1.1.1-1.4-.7C41 7.6 33.1 2 24 2 11.9 2 2 11.9 2 24s9.9 22 22 22c9.1 0 17-5.6 20.3-13.5.3-.8 1-.9 1.4-.7.4.2.7.7.4 1.4zM151 19.5c.2 0 .3-.1.3-.3 0-.2-.1-.3-.3-.3h-.4v.6h.4zm.2.2.4.6h-.3l-.3-.6h-.4v.6h-.2v-1.6h.7c.3 0 .5.2.5.5 0 .2-.2.4-.4.5zm1-.2c0-.7-.6-1.3-1.3-1.3-.7 0-1.3.6-1.3 1.3 0 .7.6 1.3 1.3 1.3.7 0 1.3-.6 1.3-1.3zm.2 0c0 .8-.7 1.5-1.5 1.5s-1.5-.7-1.5-1.5.7-1.5 1.5-1.5 1.5.7 1.5 1.5z"></path>
</svg>
