<?xml version="1.0" encoding="UTF-8"?>
<svg version="1.1" xmlns="http://www.w3.org/2000/svg" width="532" height="594">
  <path d="M0 0 C103.62 0 207.24 0 314 0 C314.72213117 5.05491818 315.14438074 9.68780727 315.12939453 14.73950195 C315.13202301 15.8481234 315.13202301 15.8481234 315.13470459 16.97914124 C315.13907235 19.39887911 315.13620466 21.81854275 315.1328125 24.23828125 C315.13348664 25.92742425 315.13445758 27.61656717 315.13571167 29.30570984 C315.13718145 32.83345469 315.13505593 36.36117413 315.13037109 39.88891602 C315.12465229 44.41626902 315.1279709 48.94356301 315.13394356 53.47091389 C315.13754997 56.95294137 315.13641059 60.43495475 315.13381577 63.91698265 C315.13314785 65.5871907 315.13397021 67.25740002 315.13629532 68.92760658 C315.13882551 71.25426274 315.13497706 73.58082181 315.12939453 75.9074707 C315.13141876 76.59993896 315.13344299 77.29240723 315.13552856 78.00585938 C315.11426932 82.77146137 315.11426932 82.77146137 314 85 C307.46721214 85.02527002 300.93443679 85.04283292 294.40161133 85.05493164 C292.17732268 85.05997317 289.95303737 85.06680623 287.72875977 85.07543945 C284.53921691 85.08751298 281.34971771 85.09322996 278.16015625 85.09765625 C277.15912369 85.10281754 276.15809113 85.10797882 275.12672424 85.11329651 C274.20584518 85.11337204 273.28496613 85.11344757 272.33618164 85.11352539 C271.52121719 85.115746 270.70625275 85.11796661 269.86659241 85.12025452 C268 85 268 85 267 84 C266.67 72.45 266.34 60.9 266 49 C194.06 49 122.12 49 48 49 C47.9175 80.123125 47.835 111.24625 47.75 143.3125 C47.71358398 153.13169189 47.67716797 162.95088379 47.63964844 173.06762695 C47.62626887 181.88643366 47.62626887 181.88643366 47.6182251 190.70524597 C47.61450564 194.62652175 47.59954443 198.54757986 47.57769775 202.46879578 C47.55015785 207.478637 47.54205439 212.48816404 47.5477109 217.49807394 C47.54652897 219.33164079 47.53865827 221.1652192 47.52313948 222.99872077 C47.34799254 244.70944697 55.6816517 257.21318779 70.53466797 272.5234375 C74.19229207 276.20909405 78.06000045 279.6220124 82 283 C83.44246094 284.27423828 83.44246094 284.27423828 84.9140625 285.57421875 C94.24053361 293.73359643 104.23015497 301.54852628 115 307.71875 C115.66 308.1415625 116.32 308.564375 117 309 C117 309.66 117 310.32 117 311 C117.69867188 311.25007813 118.39734375 311.50015625 119.1171875 311.7578125 C122.38603804 313.16634159 125.15042772 314.91823318 128.125 316.875 C129.35667391 317.67202479 130.58845071 318.46889062 131.8203125 319.265625 C134.02547473 320.70149483 136.22185474 322.14838278 138.40917969 323.61132812 C140.93009753 325.2971492 143.46430344 326.96151634 146 328.625 C147.20100342 329.44266846 147.20100342 329.44266846 148.42626953 330.27685547 C152.89614744 333.19802904 152.89614744 333.19802904 158.05078125 334.15625 C162.13430453 332.55529253 165.57254874 330.33817036 169.1875 327.875 C170.69769194 326.87075573 172.20810877 325.86684955 173.71875 324.86328125 C174.44964844 324.3729541 175.18054688 323.88262695 175.93359375 323.37744141 C178.6574337 321.56176265 181.41849956 319.80833956 184.1875 318.0625 C187.01472523 316.27507493 189.80827374 314.46014871 192.5625 312.5625 C195 311 195 311 197 311 C197 310.34 197 309.68 197 309 C198.94921875 307.625 198.94921875 307.625 201.6875 306 C213.1166951 298.91156058 223.31404009 290.23006753 233.41015625 281.39013672 C234.84019526 280.13973099 236.27894232 278.89930108 237.71875 277.66015625 C249.11709085 267.686608 263.22141439 254.65305245 266 239 C266.26873062 234.54142721 266.23286908 230.09414738 266.1953125 225.62890625 C266.19329834 224.49578003 266.19128418 223.36265381 266.18920898 222.19519043 C266.17878761 217.98425212 266.15086517 213.77337177 266.125 209.5625 C266.063125 195.4240625 266.063125 195.4240625 266 181 C232.34 181 198.68 181 164 181 C163.67 206.41 163.34 231.82 163 258 C157.37232525 256.87446505 157.37232525 256.87446505 154.328125 254.7421875 C153.66748047 254.28448975 153.00683594 253.82679199 152.32617188 253.35522461 C151.64103516 252.86675049 150.95589844 252.37827637 150.25 251.875 C149.54423828 251.37943604 148.83847656 250.88387207 148.11132812 250.37329102 C135.84229343 241.70807402 135.84229343 241.70807402 133 239 C133 238.34 133 237.68 133 237 C132.41992188 236.74347656 131.83984375 236.48695313 131.2421875 236.22265625 C123.62080543 232.06674582 116.7273778 223.18213341 114 215 C113.90374793 212.34322541 113.86356404 209.71292449 113.87060547 207.05615234 C113.86797699 205.84358513 113.86797699 205.84358513 113.86529541 204.60652161 C113.86089185 201.93297178 113.86380909 199.25948801 113.8671875 196.5859375 C113.86651416 194.73174019 113.86554389 192.87754296 113.86428833 191.02334595 C113.86281349 187.13795125 113.86495955 183.25257953 113.86962891 179.3671875 C113.87533401 174.37552759 113.8720409 169.38392136 113.86605644 164.39226341 C113.86245183 160.56456087 113.86358881 156.73687116 113.86618423 152.90916824 C113.86685337 151.06787739 113.86602555 149.22658538 113.86370468 147.38529587 C113.86117894 144.81851844 113.86501726 142.2518294 113.87060547 139.68505859 C113.86858124 138.91725571 113.86655701 138.14945282 113.86447144 137.35838318 C113.88573574 132.11426426 113.88573574 132.11426426 115 131 C117.56718197 130.90222981 120.10743916 130.87004984 122.67506409 130.87974548 C123.48854543 130.87889106 124.30202678 130.87803663 125.14015907 130.87715632 C127.88716241 130.87549903 130.63410573 130.88102694 133.38110352 130.88647461 C135.34181721 130.88675645 137.302531 130.8865988 139.26324463 130.8860321 C144.60393334 130.88574402 149.94459981 130.89164248 155.28528333 130.89860606 C160.86002316 130.90483782 166.43476345 130.90544326 172.00950623 130.90663147 C182.57406091 130.90974531 193.13860531 130.91795941 203.70315546 130.92798096 C215.7271323 130.93914045 227.75110961 130.94465213 239.77509034 130.94967639 C264.51673261 130.96014199 289.25836573 130.97774245 314 131 C315.2137377 133.42747539 315.1284347 134.97115968 315.13371277 137.68418884 C315.13797775 138.67232574 315.14224274 139.66046265 315.14663696 140.67854309 C315.14618378 141.76680893 315.14573059 142.85507477 315.14526367 143.97631836 C315.15030159 145.69126495 315.15030159 145.69126495 315.15544128 147.44085693 C315.16497977 151.24053012 315.16689631 155.04015932 315.16796875 158.83984375 C315.17118098 161.47864297 315.17454503 164.11744201 315.17805481 166.75624084 C315.18445776 172.30046882 315.18593676 177.84468485 315.18530273 183.38891602 C315.18470414 189.77578502 315.19521033 196.16256896 315.2110464 202.54941648 C315.22417866 208.04343018 315.22948414 213.53741631 315.22884732 219.03144556 C315.22859367 222.30759335 315.2323048 225.5836494 315.24202538 228.85978508 C315.25187941 232.52630403 315.24892503 236.19260807 315.24291992 239.85913086 C315.24853943 240.92917862 315.25415894 241.99922638 315.25994873 243.10169983 C315.17731775 263.067844 307.12631843 276.43802242 294.48339844 291.2578125 C293.43248374 292.4920665 292.39537731 293.73813902 291.36816406 294.9921875 C290.83674805 295.63414062 290.30533203 296.27609375 289.7578125 296.9375 C289.27715332 297.52402344 288.79649414 298.11054688 288.30126953 298.71484375 C287 300 287 300 285 300 C284.62875 300.86625 284.62875 300.86625 284.25 301.75 C282.81700012 304.32939979 281.21575324 306.06121592 279 308 C278.34 308 277.68 308 277 308 C276.67 308.99 276.34 309.98 276 311 C274.64453125 312.40234375 274.64453125 312.40234375 272.8125 313.9375 C272.09707031 314.54335938 271.38164062 315.14921875 270.64453125 315.7734375 C269.77183594 316.50820313 268.89914062 317.24296875 268 318 C266.87757378 318.96981415 265.75657575 319.94128277 264.63671875 320.9140625 C253.6310453 330.45699439 253.6310453 330.45699439 248.13671875 334.42578125 C246.31719976 335.76630438 244.5416067 337.14107147 242.76953125 338.54296875 C242.19017822 338.99849121 241.6108252 339.45401367 241.01391602 339.92333984 C239.86076517 340.83149601 238.71133432 341.744401 237.56616211 342.66259766 C234.79900438 344.82958329 232.54268604 346.54426612 229 347 C229 347.66 229 348.32 229 349 C227.27956284 350.27906846 225.49491932 351.47210991 223.6875 352.625 C219.50174229 355.34500472 215.40115952 358.10767907 211.375 361.0625 C204.155153 366.35290513 197.07169696 371.53095112 189.1796875 375.77734375 C187.0581786 376.96736577 185.07071166 378.25363367 183.0625 379.625 C178.36394084 382.79069589 173.60646337 385.85631098 168.8125 388.875 C167.6534314 389.62644287 167.6534314 389.62644287 166.47094727 390.39306641 C165.72385498 390.85890137 164.9767627 391.32473633 164.20703125 391.8046875 C163.5416333 392.22733887 162.87623535 392.64999023 162.19067383 393.08544922 C159.25645624 394.31041067 157.15796736 394.32261105 154 394 C151.36621094 392.82592773 151.36621094 392.82592773 148.734375 391.18359375 C147.76113281 390.58353516 146.78789062 389.98347656 145.78515625 389.36523438 C144.78355469 388.72908203 143.78195312 388.09292969 142.75 387.4375 C141.76386719 386.82841797 140.77773437 386.21933594 139.76171875 385.59179688 C134.12429984 382.08233649 128.66170725 378.38552604 123.24804688 374.54223633 C121.32147641 373.22054371 119.39834081 372.02679226 117.359375 370.890625 C113.4942175 368.71535031 109.88859995 366.27987055 106.25 363.75 C105.55044189 363.26619873 104.85088379 362.78239746 104.13012695 362.28393555 C98.35515873 358.2768012 92.66296698 354.16369433 87 350 C85.12520687 348.64554694 83.25020516 347.29138256 81.375 345.9375 C77.24030342 342.93044794 73.17375953 339.85307308 69.15625 336.69140625 C67.76978516 335.6038351 66.37455001 334.52730414 64.96875 333.46484375 C57.95403609 328.13837256 51.37222506 322.31831239 44.75634766 316.51074219 C43.04845868 315.04168228 41.30161524 313.63409839 39.54296875 312.2265625 C38.70378906 311.49179687 37.86460937 310.75703125 37 310 C37 309.34 37 308.68 37 308 C35.68 307.34 34.36 306.68 33 306 C33 305.34 33 304.68 33 304 C32.443125 303.79375 31.88625 303.5875 31.3125 303.375 C28.77187799 301.86435988 27.23492503 300.06141825 25.44140625 297.73046875 C23.91309908 295.83904104 23.91309908 295.83904104 21.640625 293.66796875 C1.6971129 273.51794099 -1.31234263 254.10207414 -1.24291992 226.81201172 C-1.24399399 224.36031544 -1.24593453 221.90861942 -1.24867249 219.45692444 C-1.25300124 213.51420137 -1.24810891 207.57152918 -1.23882218 201.62881581 C-1.22839498 194.70581591 -1.22850946 187.78282785 -1.22899476 180.85982157 C-1.22949416 168.51330675 -1.22036383 156.16681794 -1.20581055 143.8203125 C-1.19169491 131.83886237 -1.18464117 119.85743512 -1.18530273 107.87597656 C-1.18534269 107.13649815 -1.18538265 106.39701974 -1.18542381 105.63513289 C-1.18546417 104.89692896 -1.18550452 104.15872503 -1.1855461 103.39815128 C-1.18623522 89.74601147 -1.18035405 76.09388137 -1.17139288 62.44174471 C-1.16837453 57.61398341 -1.16731313 52.7862239 -1.16686058 47.95846176 C-1.16610873 41.47251665 -1.15978101 34.98659257 -1.14969444 28.50065422 C-1.14676351 26.11490082 -1.14554527 23.72914464 -1.14612198 21.34338951 C-1.14660954 18.09982113 -1.14098814 14.85632132 -1.13371277 11.61276245 C-1.13526137 10.65792745 -1.13680997 9.70309244 -1.1384055 8.71932304 C-1.13518106 7.85537583 -1.13195661 6.99142862 -1.12863445 6.10130119 C-1.12793003 5.35216261 -1.1272256 4.60302402 -1.12649983 3.83118427 C-1 2 -1 2 0 0 Z " fill="#ffffff" transform="translate(113,122)"/>
</svg>
