<?xml version="1.0" encoding="UTF-8"?>
<svg id="Layer_2" xmlns="http://www.w3.org/2000/svg" xmlns:xlink="http://www.w3.org/1999/xlink" version="1.1" viewBox="0 0 690 724">
  <!-- Generator: Adobe Illustrator 30.0.0, SVG Export Plug-In . SVG Version: 2.1.1 Build 123)  -->
  <defs>
    <style>
      .st0 {
        fill: url(#linear-gradient2);
      }

      .st1 {
        fill: url(#linear-gradient1);
      }

      .st2 {
        fill: url(#linear-gradient);
      }

      .st3 {
        fill: none;
        stroke: #000;
        stroke-miterlimit: 10;
      }
    </style>
    <linearGradient id="linear-gradient" x1="94.7" y1="323.8" x2="409" y2="323.8" gradientUnits="userSpaceOnUse">
      <stop offset="0" stop-color="#007aff"/>
      <stop offset="1" stop-color="#0051d5"/>
    </linearGradient>
    <linearGradient id="linear-gradient1" x1="366.2" y1="200" x2="591" y2="200" gradientUnits="userSpaceOnUse">
      <stop offset="0" stop-color="#34c759"/>
      <stop offset="1" stop-color="#28a745"/>
    </linearGradient>
    <linearGradient id="linear-gradient2" x1="292.1" y1="471.2" x2="608.2" y2="471.2" gradientUnits="userSpaceOnUse">
      <stop offset="0" stop-color="#8a2be2"/>
      <stop offset="1" stop-color="#6a1bb2"/>
    </linearGradient>
  </defs>
  <path class="st2" d="M333,526.6c-14.2,12.1-29.8,19.4-45.1,23.6-47,12.8-97.2-4.3-127.7-42.3-39.3-49-90.4-141-51.7-258.6C179.1,34.2,409,104,409,104c0,0-172.9,51.4-170.3,258,1.5,120.2,94.3,164.6,94.3,164.6Z"/>
  <path class="st1" d="M366.2,176.9s51.6,29.2,71.3,76.6h153.5s-79.8-175.7-224.8-76.6Z"/>
  <path class="st3" d="M-249.6,69.6"/>
  <path class="st0" d="M301.2,598.5c128.1-55.3,150.2-174,150.2-174h-95.9v-86.4h252.3s25.7,293.4-315.2,264.2c-.2,0-.4,0-.5,0l9.2-3.8Z"/>
</svg>