<svg xmlns="http://www.w3.org/2000/svg" width="532" height="594"><path fill="#fff" d="M0 0C103.62 0 207.24 0 314 0 314.72 5.05 315.14 9.69 315.13 14.74 315.13 15.85 315.13 15.85 315.13 16.98 315.14 19.4 315.14 21.82 315.13 24.24 315.13 25.93 315.13 27.62 315.14 29.31 315.14 32.83 315.14 36.36 315.13 39.89 315.12 44.42 315.13 48.94 315.13 53.47 315.14 56.95 315.14 60.43 315.13 63.92 315.13 65.59 315.13 67.26 315.14 68.93 315.14 71.25 315.13 73.58 315.13 75.91 315.13 76.6 315.13 77.29 315.14 78.01 315.11 82.77 315.11 82.77 314 85 307.47 85.03 300.93 85.04 294.4 85.05 292.18 85.06 289.95 85.07 287.73 85.08 284.54 85.09 281.35 85.09 278.16 85.1 277.16 85.1 276.16 85.11 275.13 85.11 274.21 85.11 273.29 85.11 272.34 85.11 271.52 85.12 270.71 85.12 269.87 85.12 268 85 268 85 267 84 266.67 72.45 266.34 60.9 266 49 194.06 49 122.12 49 48 49 47.92 80.12 47.84 111.25 47.75 143.31 47.72 153.13 47.68 162.95 47.64 173.07 47.63 181.89 47.63 181.89 47.62 190.71 47.61 194.63 47.6 198.55 47.58 202.47 47.55 207.48 47.54 212.49 47.55 217.5 47.55 219.33 47.54 221.17 47.52 223 47.35 244.71 55.68 257.21 70.53 272.52 74.19 276.21 78.06 279.62 82 283 83.44 284.27 83.44 284.27 84.91 285.57 94.24 293.73 104.23 301.55 115 307.72 115.66 308.14 116.32 308.56 117 309 117 309.66 117 310.32 117 311 117.7 311.25 118.4 311.5 119.12 311.76 122.39 313.17 125.15 314.92 128.13 316.88 129.36 317.67 130.59 318.47 131.82 319.27 134.03 320.7 136.22 322.15 138.41 323.61 140.93 325.3 143.46 326.96 146 328.63 147.2 329.44 147.2 329.44 148.43 330.28 152.9 333.2 152.9 333.2 158.05 334.16 162.13 332.56 165.57 330.34 169.19 327.88 170.7 326.87 172.21 325.87 173.72 324.86 174.45 324.37 175.18 323.88 175.93 323.38 178.66 321.56 181.42 319.81 184.19 318.06 187.01 316.28 189.81 314.46 192.56 312.56 195 311 195 311 197 311 197 310.34 197 309.68 197 309 198.95 307.63 198.95 307.63 201.69 306 213.12 298.91 223.31 290.23 233.41 281.39 234.84 280.14 236.28 278.9 237.72 277.66 249.12 267.69 263.22 254.65 266 239 266.27 234.54 266.23 230.09 266.2 225.63 266.19 224.5 266.19 223.36 266.19 222.2 266.18 217.98 266.15 213.77 266.13 209.56 266.06 195.42 266.06 195.42 266 181 232.34 181 198.68 181 164 181 163.67 206.41 163.34 231.82 163 258 157.37 256.87 157.37 256.87 154.33 254.74 153.67 254.28 153.01 253.83 152.33 253.36 151.64 252.87 150.96 252.38 150.25 251.88 149.54 251.38 148.84 250.88 148.11 250.37 135.84 241.71 135.84 241.71 133 239 133 238.34 133 237.68 133 237 132.42 236.74 131.84 236.49 131.24 236.22 123.62 232.07 116.73 223.18 114 215 113.9 212.34 113.86 209.71 113.87 207.06 113.87 205.84 113.87 205.84 113.87 204.61 113.86 201.93 113.86 199.26 113.87 196.59 113.87 194.73 113.87 192.88 113.86 191.02 113.86 187.14 113.86 183.25 113.87 179.37 113.88 174.38 113.87 169.38 113.87 164.39 113.86 160.56 113.86 156.74 113.87 152.91 113.87 151.07 113.87 149.23 113.86 147.39 113.86 144.82 113.87 142.25 113.87 139.69 113.87 138.92 113.87 138.15 113.86 137.36 113.89 132.11 113.89 132.11 115 131 117.57 130.9 120.11 130.87 122.68 130.88 123.49 130.88 124.3 130.88 125.14 130.88 127.89 130.88 130.63 130.88 133.38 130.89 135.34 130.89 137.3 130.89 139.26 130.89 144.6 130.89 149.94 130.89 155.29 130.9 160.86 130.9 166.43 130.91 172.01 130.91 182.57 130.91 193.14 130.92 203.7 130.93 215.73 130.93 227.75 130.94 239.78 130.95 264.52 130.96 289.26 130.98 314 131 315.21 133.43 315.13 134.97 315.13 137.68 315.14 138.67 315.14 139.66 315.15 140.68 315.15 141.77 315.15 142.86 315.15 143.98 315.15 145.69 315.15 145.69 315.16 147.44 315.16 151.24 315.17 155.04 315.17 158.84 315.17 161.48 315.17 164.12 315.18 166.76 315.18 172.3 315.19 177.84 315.19 183.39 315.18 189.78 315.2 196.16 315.21 202.55 315.22 208.04 315.23 213.54 315.23 219.03 315.23 222.31 315.23 225.58 315.24 228.86 315.25 232.53 315.25 236.19 315.24 239.86 315.25 240.93 315.25 241.99 315.26 243.1 315.18 263.07 307.13 276.44 294.48 291.26 293.43 292.49 292.4 293.74 291.37 294.99 290.84 295.63 290.31 296.28 289.76 296.94 289.28 297.52 288.8 298.11 288.3 298.71 287 300 287 300 285 300 284.63 300.87 284.63 300.87 284.25 301.75 282.82 304.33 281.22 306.06 279 308 278.34 308 277.68 308 277 308 276.67 308.99 276.34 309.98 276 311 274.64 312.4 274.64 312.4 272.81 313.94 272.1 314.54 271.38 315.15 270.64 315.77 269.77 316.51 268.9 317.24 268 318 266.88 318.97 265.76 319.94 264.64 320.91 253.63 330.46 253.63 330.46 248.14 334.43 246.32 335.77 244.54 337.14 242.77 338.54 242.19 338.99 241.61 339.45 241.01 339.92 239.86 340.83 238.71 341.74 237.57 342.66 234.8 344.83 232.54 346.54 229 347 229 347.66 229 348.32 229 349 227.28 350.28 225.49 351.47 223.69 352.63 219.5 355.35 215.4 358.11 211.38 361.06 204.16 366.35 197.07 371.53 189.18 375.78 187.06 376.97 185.07 378.25 183.06 379.63 178.36 382.79 173.61 385.86 168.81 388.88 167.65 389.63 167.65 389.63 166.47 390.39 165.72 390.86 164.98 391.32 164.21 391.8 163.54 392.23 162.88 392.65 162.19 393.09 159.26 394.31 157.16 394.32 154 394 151.37 392.83 151.37 392.83 148.73 391.18 147.76 390.58 146.79 389.98 145.79 389.37 144.78 388.73 143.78 388.09 142.75 387.44 141.76 386.83 140.78 386.22 139.76 385.59 134.12 382.08 128.66 378.39 123.25 374.54 121.32 373.22 119.4 372.03 117.36 370.89 113.49 368.72 109.89 366.28 106.25 363.75 105.55 363.27 104.85 362.78 104.13 362.28 98.36 358.28 92.66 354.16 87 350 85.13 348.65 83.25 347.29 81.38 345.94 77.24 342.93 73.17 339.85 69.16 336.69 67.77 335.6 66.37 334.53 64.97 333.46 57.95 328.14 51.37 322.32 44.76 316.51 43.05 315.04 41.3 313.63 39.54 312.23 38.7 311.49 37.86 310.76 37 310 37 309.34 37 308.68 37 308 35.68 307.34 34.36 306.68 33 306 33 305.34 33 304.68 33 304 32.44 303.79 31.89 303.59 31.31 303.38 28.77 301.86 27.23 300.06 25.44 297.73 23.91 295.84 23.91 295.84 21.64 293.67 1.7 273.52-1.31 254.1-1.24 226.81-1.24 224.36-1.25 221.91-1.25 219.46-1.25 213.51-1.25 207.57-1.24 201.63-1.23 194.71-1.23 187.78-1.23 180.86-1.23 168.51-1.22 156.17-1.21 143.82-1.19 131.84-1.18 119.86-1.19 107.88-1.19 107.14-1.19 106.4-1.19 105.64-1.19 104.9-1.19 104.16-1.19 103.4-1.19 89.75-1.18 76.09-1.17 62.44-1.17 57.61-1.17 52.79-1.17 47.96-1.17 41.47-1.16 34.99-1.15 28.5-1.15 26.11-1.15 23.73-1.15 21.34-1.15 18.1-1.14 14.86-1.13 11.61-1.14 10.66-1.14 9.7-1.14 8.72-1.14 7.86-1.13 7-1.13 6.1-1.13 5.35-1.13 4.6-1.13 3.83-1 2-1 2 0 0z" transform="translate(113,122)"/></svg>
