<svg xmlns="http://www.w3.org/2000/svg" width="48" height="48" viewBox="0 0 48 48">
  <rect width="48" height="48" rx="4" fill="#f7df1e"/>
  <path d="M27 35c1 1.5 2.5 2.5 4.5 2.5 2 0 3-.8 3-2.5 0-1.5-1-2-3-2.5l-1-.5c-2.5-1-4-2.5-4-5.5 0-2.5 2-4.5 5-4.5 2 0 3.5.8 4.5 2.5l-2.5 1.5c-.5-1-1-1.5-2-1.5s-1.5.5-1.5 1.5c0 1 .5 1.5 2 2l1 .5c3 1.5 4.5 2.5 4.5 5.5s-2.5 5-6 5c-3.5 0-5.5-1.5-6.5-3.5L27 35zm-12 0c.5 1 1 1.5 2 1.5 1 0 1.5-.5 1.5-2v-11h3v11c0 3.5-2 5-5 5-2.5 0-4-1.5-5-3.5L15 35z" fill="#000"/>
</svg>
