<svg xmlns="http://www.w3.org/2000/svg" width="48" height="48" viewBox="0 0 48 48">
  <ellipse cx="24" cy="24" rx="23" ry="12" fill="#8993be" stroke="#8993be" stroke-width="1"/>
  <ellipse cx="24" cy="24" rx="20" ry="10" fill="#fff"/>
  <g fill="#8993be">
    <path d="M14 20h3c1.5 0 2.5 1 2.5 2.5s-1 2.5-2.5 2.5h-1v2h-2v-7zm2 3.5h1c.5 0 .5-.5.5-1s0-1-.5-1h-1v2z"/>
    <path d="M20.5 20h2v3h1.5c1.5 0 2.5 1 2.5 2s-1 2-2.5 2h-3.5v-7zm2 5h1.5c.5 0 .5-.5.5-.5s0-.5-.5-.5h-1.5v1z"/>
    <path d="M28 20h3c1.5 0 2.5 1 2.5 2.5s-1 2.5-2.5 2.5h-1v2h-2v-7zm2 3.5h1c.5 0 .5-.5.5-1s0-1-.5-1h-1v2z"/>
  </g>
</svg>
